dosis_medium.sfdir
StartChar: exclam
Encoding: 33 33 214
Width: 209
Flags: W
LayerCount: 2
Back
Fore
SplineSet
149 698 m 0,0,1
 149 640 149 640 147 577 c 128,-1,2
 145 514 145 514 143 450.5 c 128,-1,3
 141 387 141 387 139 323.5 c 128,-1,4
 137 260 137 260 137 202 c 0,5,6
 137 188 137 188 125.5 181.5 c 128,-1,7
 114 175 114 175 104 175 c 0,8,9
 91 175 91 175 81 181.5 c 128,-1,10
 71 188 71 188 71 202 c 0,11,12
 71 260 71 260 69 323.5 c 128,-1,13
 67 387 67 387 65 450.5 c 128,-1,14
 63 514 63 514 61 577 c 128,-1,15
 59 640 59 640 59 698 c 0,16,17
 59 719 59 719 71.5 730 c 128,-1,18
 84 741 84 741 104 741 c 0,19,20
 122 741 122 741 135.5 730 c 128,-1,21
 149 719 149 719 149 698 c 0,0,1
105 99 m 0,22,23
 126 99 126 99 141 83.5 c 128,-1,24
 156 68 156 68 156 46 c 0,25,26
 156 26 156 26 141 10 c 128,-1,27
 126 -6 126 -6 105 -6 c 0,28,29
 82 -6 82 -6 67 10 c 128,-1,30
 52 26 52 26 52 46 c 0,31,32
 52 68 52 68 67 83.5 c 128,-1,33
 82 99 82 99 105 99 c 0,22,23
EndSplineSet
EndChar
StartChar: quotedbl
Encoding: 34 34 331
Width: 279
Flags: W
LayerCount: 2
Back
Fore
SplineSet
71 768 m 0,0,1
 84 768 84 768 96 761 c 128,-1,2
 108 754 108 754 108 743 c 2,3,-1
 98 598 l 2,4,5
 98 588 98 588 91.5 580 c 128,-1,6
 85 572 85 572 71 572 c 256,7,8
 57 572 57 572 51 580 c 128,-1,9
 45 588 45 588 45 598 c 2,10,-1
 35 743 l 2,11,12
 35 754 35 754 46 761 c 128,-1,13
 57 768 57 768 71 768 c 0,0,1
207 768 m 0,14,15
 220 768 220 768 232 761 c 128,-1,16
 244 754 244 754 244 743 c 2,17,-1
 234 598 l 2,18,19
 234 588 234 588 227.5 580 c 128,-1,20
 221 572 221 572 207 572 c 256,21,22
 193 572 193 572 187 580 c 128,-1,23
 181 588 181 588 181 598 c 2,24,-1
 171 743 l 2,25,26
 171 754 171 754 182 761 c 128,-1,27
 193 768 193 768 207 768 c 0,14,15
EndSplineSet
EndChar
StartChar: numbersign
Encoding: 35 35 290
Width: 609
Flags: W
LayerCount: 2
Back
Fore
SplineSet
253 713 m 0,0,1
 270 713 270 713 281 704 c 128,-1,2
 292 695 292 695 292 678 c 2,3,-1
 266 521 l 1,4,-1
 389 521 l 1,5,-1
 417 694 l 2,6,7
 419 703 419 703 429 708 c 128,-1,8
 439 713 439 713 450 713 c 0,9,10
 467 713 467 713 478.5 704 c 128,-1,11
 490 695 490 695 490 678 c 2,12,-1
 464 521 l 1,13,-1
 556 521 l 2,14,15
 567 521 567 521 576 512 c 128,-1,16
 585 503 585 503 585 489 c 256,17,18
 585 475 585 475 577 466 c 128,-1,19
 569 457 569 457 559 457 c 2,20,-1
 453 457 l 1,21,-1
 428 308 l 1,22,-1
 520 308 l 2,23,24
 531 308 531 308 540 299 c 128,-1,25
 549 290 549 290 549 275 c 0,26,27
 549 261 549 261 541 252.5 c 128,-1,28
 533 244 533 244 523 244 c 2,29,-1
 416 244 l 1,30,-1
 386 55 l 2,31,32
 384 45 384 45 373.5 39 c 128,-1,33
 363 33 363 33 352 33 c 0,34,35
 336 33 336 33 323.5 41.5 c 128,-1,36
 311 50 311 50 311 67 c 2,37,-1
 340 244 l 1,38,-1
 219 244 l 1,39,-1
 188 56 l 2,40,41
 186 45 186 45 173.5 39 c 128,-1,42
 161 33 161 33 155 33 c 0,43,44
 139 33 139 33 127 41.5 c 128,-1,45
 115 50 115 50 115 67 c 2,46,-1
 142 244 l 1,47,-1
 52 244 l 2,48,49
 24 244 24 244 24 275 c 0,50,51
 24 289 24 289 31 298.5 c 128,-1,52
 38 308 38 308 49 308 c 2,53,-1
 155 308 l 1,54,-1
 179 457 l 1,55,-1
 88 457 l 2,56,57
 60 457 60 457 60 489 c 0,58,59
 60 503 60 503 66.5 512 c 128,-1,60
 73 521 73 521 84 521 c 2,61,-1
 191 521 l 1,62,-1
 220 694 l 2,63,64
 222 703 222 703 231.5 708 c 128,-1,65
 241 713 241 713 253 713 c 0,0,1
231 308 m 1,66,-1
 352 308 l 1,67,-1
 376 457 l 1,68,-1
 255 457 l 1,69,-1
 231 308 l 1,66,-1
EndSplineSet
EndChar
StartChar: dollar
Encoding: 36 36 190
Width: 506
Flags: W
LayerCount: 2
Back
Fore
SplineSet
238 2 m 1,0,1
 191 3 191 3 153.5 14.5 c 128,-1,2
 116 26 116 26 89.5 43.5 c 128,-1,3
 63 61 63 61 49 80 c 128,-1,4
 35 99 35 99 35 115 c 0,5,6
 35 130 35 130 46.5 145.5 c 128,-1,7
 58 161 58 161 72 161 c 0,8,9
 82 161 82 161 93.5 149 c 128,-1,10
 105 137 105 137 123 122.5 c 128,-1,11
 141 108 141 108 168 95.5 c 128,-1,12
 195 83 195 83 238 81 c 1,13,-1
 238 347 l 1,14,15
 205 359 205 359 171.5 372.5 c 128,-1,16
 138 386 138 386 112 407 c 128,-1,17
 86 428 86 428 69.5 459.5 c 128,-1,18
 53 491 53 491 53 539 c 0,19,20
 53 586 53 586 69 618.5 c 128,-1,21
 85 651 85 651 111.5 672 c 128,-1,22
 138 693 138 693 171 703.5 c 128,-1,23
 204 714 204 714 238 717 c 1,24,-1
 238 747 l 2,25,26
 238 755 238 755 245.5 761.5 c 128,-1,27
 253 768 253 768 264 768 c 0,28,29
 274 768 274 768 282 761.5 c 128,-1,30
 290 755 290 755 290 747 c 2,31,-1
 290 719 l 1,32,33
 317 718 317 718 345 713 c 128,-1,34
 373 708 373 708 396 700 c 128,-1,35
 419 692 419 692 433.5 680 c 128,-1,36
 448 668 448 668 448 653 c 0,37,38
 448 641 448 641 438.5 624 c 128,-1,39
 429 607 429 607 412 607 c 0,40,41
 404 607 404 607 394.5 612 c 128,-1,42
 385 617 385 617 370.5 624 c 128,-1,43
 356 631 356 631 336.5 636.5 c 128,-1,44
 317 642 317 642 290 644 c 1,45,-1
 290 416 l 1,46,47
 322 404 322 404 353.5 389 c 128,-1,48
 385 374 385 374 410 350.5 c 128,-1,49
 435 327 435 327 450.5 292 c 128,-1,50
 466 257 466 257 466 206 c 0,51,52
 466 114 466 114 417 65 c 128,-1,53
 368 16 368 16 290 5 c 1,54,-1
 290 -31 l 2,55,56
 290 -39 290 -39 282 -45.5 c 128,-1,57
 274 -52 274 -52 264 -52 c 0,58,59
 253 -52 253 -52 245.5 -45.5 c 128,-1,60
 238 -39 238 -39 238 -31 c 2,61,-1
 238 2 l 1,0,1
386 198 m 0,62,63
 386 226 386 226 378 247 c 128,-1,64
 370 268 370 268 356.5 283 c 128,-1,65
 343 298 343 298 325 308.5 c 128,-1,66
 307 319 307 319 286 328 c 1,67,-1
 286 83 l 1,68,69
 334 91 334 91 360 119.5 c 128,-1,70
 386 148 386 148 386 198 c 0,62,63
133 547 m 0,71,72
 133 521 133 521 141.5 503 c 128,-1,73
 150 485 150 485 165 472.5 c 128,-1,74
 180 460 180 460 200 450.5 c 128,-1,75
 220 441 220 441 242 433 c 1,76,-1
 242 643 l 1,77,78
 219 641 219 641 199.5 634.5 c 128,-1,79
 180 628 180 628 165 616.5 c 128,-1,80
 150 605 150 605 141.5 588 c 128,-1,81
 133 571 133 571 133 547 c 0,71,72
EndSplineSet
EndChar
StartChar: percent
Encoding: 37 37 319
Width: 765
Flags: W
LayerCount: 2
Back
Fore
SplineSet
165 345 m 256,0,1
 138 345 138 345 114 351.5 c 128,-1,2
 90 358 90 358 73 372 c 128,-1,3
 56 386 56 386 46 408.5 c 128,-1,4
 36 431 36 431 36 463 c 2,5,-1
 36 613 l 2,6,7
 36 677 36 677 73 704 c 128,-1,8
 110 731 110 731 165 731 c 0,9,10
 192 731 192 731 215.5 724.5 c 128,-1,11
 239 718 239 718 256.5 704 c 128,-1,12
 274 690 274 690 284 667.5 c 128,-1,13
 294 645 294 645 294 613 c 2,14,-1
 294 463 l 2,15,16
 294 431 294 431 284 408.5 c 128,-1,17
 274 386 274 386 256.5 372 c 128,-1,18
 239 358 239 358 215.5 351.5 c 128,-1,19
 192 345 192 345 165 345 c 256,0,1
234 613 m 2,20,21
 234 646 234 646 215.5 662 c 128,-1,22
 197 678 197 678 165 678 c 256,23,24
 133 678 133 678 114.5 662 c 128,-1,25
 96 646 96 646 96 613 c 2,26,-1
 96 463 l 2,27,28
 96 430 96 430 114.5 414 c 128,-1,29
 133 398 133 398 165 398 c 256,30,31
 197 398 197 398 215.5 414 c 128,-1,32
 234 430 234 430 234 463 c 2,33,-1
 234 613 l 2,20,21
600 -3 m 256,34,35
 573 -3 573 -3 549 3.5 c 128,-1,36
 525 10 525 10 508 24 c 128,-1,37
 491 38 491 38 481 60.5 c 128,-1,38
 471 83 471 83 471 115 c 2,39,-1
 471 265 l 2,40,41
 471 329 471 329 508 356 c 128,-1,42
 545 383 545 383 600 383 c 0,43,44
 627 383 627 383 650.5 376.5 c 128,-1,45
 674 370 674 370 691.5 356 c 128,-1,46
 709 342 709 342 719 319.5 c 128,-1,47
 729 297 729 297 729 265 c 2,48,-1
 729 115 l 2,49,50
 729 83 729 83 719 60.5 c 128,-1,51
 709 38 709 38 691.5 24 c 128,-1,52
 674 10 674 10 650.5 3.5 c 128,-1,53
 627 -3 627 -3 600 -3 c 256,34,35
669 265 m 2,54,55
 669 298 669 298 650.5 314 c 128,-1,56
 632 330 632 330 600 330 c 256,57,58
 568 330 568 330 549.5 314 c 128,-1,59
 531 298 531 298 531 265 c 2,60,-1
 531 115 l 2,61,62
 531 82 531 82 549.5 66 c 128,-1,63
 568 50 568 50 600 50 c 256,64,65
 632 50 632 50 650.5 66 c 128,-1,66
 669 82 669 82 669 115 c 2,67,-1
 669 265 l 2,54,55
570 770 m 0,68,69
 582 770 582 770 593 760.5 c 128,-1,70
 604 751 604 751 604 737 c 0,71,72
 604 730 604 730 601 723 c 2,73,-1
 227 -14 l 2,74,75
 223 -22 223 -22 215.5 -26 c 128,-1,76
 208 -30 208 -30 199 -30 c 0,77,78
 185 -30 185 -30 176 -21 c 128,-1,79
 167 -12 167 -12 167 0 c 0,80,81
 167 7 167 7 170 13 c 2,82,-1
 545 755 l 2,83,84
 549 763 549 763 555.5 766.5 c 128,-1,85
 562 770 562 770 570 770 c 0,68,69
EndSplineSet
Ligature2: "'frac' Diagonal Fractions in Latin lookup 9 subtable" zero slash zero
EndChar
StartChar: ampersand
Encoding: 38 38 142
Width: 618
Flags: W
LayerCount: 2
Back
Fore
SplineSet
265 -10 m 0,0,1
 210 -10 210 -10 166.5 7.5 c 128,-1,2
 123 25 123 25 92.5 54.5 c 128,-1,3
 62 84 62 84 46 123 c 128,-1,4
 30 162 30 162 30 205 c 0,5,6
 30 242 30 242 41 273 c 128,-1,7
 52 304 52 304 71 329.5 c 128,-1,8
 90 355 90 355 113.5 374 c 128,-1,9
 137 393 137 393 163 405 c 1,10,11
 148 423 148 423 134 441.5 c 128,-1,12
 120 460 120 460 109 480.5 c 128,-1,13
 98 501 98 501 91.5 524.5 c 128,-1,14
 85 548 85 548 85 575 c 0,15,16
 85 616 85 616 100 648.5 c 128,-1,17
 115 681 115 681 140.5 703 c 128,-1,18
 166 725 166 725 200.5 736.5 c 128,-1,19
 235 748 235 748 274 748 c 0,20,21
 316 748 316 748 348 736.5 c 128,-1,22
 380 725 380 725 402 709 c 128,-1,23
 424 693 424 693 435 675.5 c 128,-1,24
 446 658 446 658 446 646 c 0,25,26
 446 630 446 630 434.5 618.5 c 128,-1,27
 423 607 423 607 407 607 c 0,28,29
 395 607 395 607 385.5 618 c 128,-1,30
 376 629 376 629 363 642.5 c 128,-1,31
 350 656 350 656 329.5 667.5 c 128,-1,32
 309 679 309 679 276 679 c 0,33,34
 227 679 227 679 197.5 650 c 128,-1,35
 168 621 168 621 168 570 c 0,36,37
 168 545 168 545 176.5 522.5 c 128,-1,38
 185 500 185 500 199 479 c 128,-1,39
 213 458 213 458 230 438.5 c 128,-1,40
 247 419 247 419 264 401 c 2,41,-1
 455 193 l 1,42,43
 465 216 465 216 471 239 c 128,-1,44
 477 262 477 262 480 284 c 128,-1,45
 483 306 483 306 484.5 326 c 128,-1,46
 486 346 486 346 486 362 c 0,47,48
 487 378 487 378 494.5 385 c 128,-1,49
 502 392 502 392 523 392 c 256,50,51
 544 392 544 392 551.5 381.5 c 128,-1,52
 559 371 559 371 559 350 c 0,53,54
 559 334 559 334 557 310 c 128,-1,55
 555 286 555 286 549 257.5 c 128,-1,56
 543 229 543 229 533 198.5 c 128,-1,57
 523 168 523 168 507 139 c 1,58,-1
 590 50 l 2,59,60
 603 37 603 37 603 27 c 0,61,62
 603 13 603 13 590.5 2.5 c 128,-1,63
 578 -8 578 -8 564 -8 c 0,64,65
 553 -8 553 -8 542 3 c 2,66,-1
 466 83 l 1,67,68
 433 41 433 41 383.5 15.5 c 128,-1,69
 334 -10 334 -10 265 -10 c 0,0,1
276 65 m 0,70,71
 327 65 327 65 360.5 84.5 c 128,-1,72
 394 104 394 104 415 136 c 1,73,-1
 210 354 l 1,74,75
 194 344 194 344 177.5 331.5 c 128,-1,76
 161 319 161 319 147 302 c 128,-1,77
 133 285 133 285 124 263 c 128,-1,78
 115 241 115 241 115 212 c 0,79,80
 115 182 115 182 125.5 155.5 c 128,-1,81
 136 129 136 129 156.5 109 c 128,-1,82
 177 89 177 89 207 77 c 128,-1,83
 237 65 237 65 276 65 c 0,70,71
EndSplineSet
EndChar
StartChar: quotesingle
Encoding: 39 39 338
Width: 143
Flags: W
LayerCount: 2
Back
Fore
SplineSet
71 768 m 0,0,1
 84 768 84 768 96 761 c 128,-1,2
 108 754 108 754 108 743 c 2,3,-1
 98 598 l 2,4,5
 98 588 98 588 91.5 580 c 128,-1,6
 85 572 85 572 71 572 c 256,7,8
 57 572 57 572 51 580 c 128,-1,9
 45 588 45 588 45 598 c 2,10,-1
 35 743 l 2,11,12
 35 754 35 754 46 761 c 128,-1,13
 57 768 57 768 71 768 c 0,0,1
EndSplineSet
EndChar
StartChar: parenleft
Encoding: 40 40 316
Width: 310
Flags: W
LayerCount: 2
Back
Fore
SplineSet
249 -20 m 0,0,1
 211 -20 211 -20 176 -9 c 128,-1,2
 141 2 141 2 114.5 23.5 c 128,-1,3
 88 45 88 45 72.5 78 c 128,-1,4
 57 111 57 111 57 155 c 2,5,-1
 57 579 l 2,6,7
 57 619 57 619 73 653.5 c 128,-1,8
 89 688 89 688 116 713.5 c 128,-1,9
 143 739 143 739 178 753.5 c 128,-1,10
 213 768 213 768 251 768 c 0,11,12
 274 768 274 768 283 757 c 128,-1,13
 292 746 292 746 292 731 c 0,14,15
 292 714 292 714 284 703.5 c 128,-1,16
 276 693 276 693 263 693 c 0,17,18
 234 693 234 693 211 683 c 128,-1,19
 188 673 188 673 172.5 656.5 c 128,-1,20
 157 640 157 640 149 620 c 128,-1,21
 141 600 141 600 141 579 c 2,22,-1
 141 155 l 2,23,24
 141 124 141 124 152.5 104.5 c 128,-1,25
 164 85 164 85 182 74 c 128,-1,26
 200 63 200 63 221.5 59 c 128,-1,27
 243 55 243 55 263 55 c 0,28,29
 280 55 280 55 286 43 c 128,-1,30
 292 31 292 31 292 17 c 0,31,32
 292 0 292 0 283 -10 c 128,-1,33
 274 -20 274 -20 249 -20 c 0,0,1
EndSplineSet
EndChar
StartChar: parenright
Encoding: 41 41 317
Width: 310
Flags: W
LayerCount: 2
Back
Fore
SplineSet
60 -20 m 0,0,1
 35 -20 35 -20 26.5 -10 c 128,-1,2
 18 0 18 0 18 17 c 0,3,4
 18 31 18 31 23.5 43 c 128,-1,5
 29 55 29 55 47 55 c 0,6,7
 67 55 67 55 88.5 59 c 128,-1,8
 110 63 110 63 128 74 c 128,-1,9
 146 85 146 85 157.5 104.5 c 128,-1,10
 169 124 169 124 169 155 c 2,11,-1
 169 579 l 2,12,13
 169 600 169 600 161 620 c 128,-1,14
 153 640 153 640 137.5 656.5 c 128,-1,15
 122 673 122 673 99 683 c 128,-1,16
 76 693 76 693 47 693 c 0,17,18
 34 693 34 693 26 703.5 c 128,-1,19
 18 714 18 714 18 731 c 0,20,21
 18 746 18 746 27 757 c 128,-1,22
 36 768 36 768 59 768 c 0,23,24
 97 768 97 768 132 753.5 c 128,-1,25
 167 739 167 739 194 713.5 c 128,-1,26
 221 688 221 688 237 653.5 c 128,-1,27
 253 619 253 619 253 579 c 2,28,-1
 253 155 l 2,29,30
 253 111 253 111 237 78 c 128,-1,31
 221 45 221 45 194.5 23.5 c 128,-1,32
 168 2 168 2 133 -9 c 128,-1,33
 98 -20 98 -20 60 -20 c 0,0,1
EndSplineSet
EndChar
StartChar: asterisk
Encoding: 42 42 152
Width: 438
Flags: W
LayerCount: 2
Back
Fore
SplineSet
347 416 m 2,0,1
 352 409 352 409 352 399 c 0,2,3
 352 384 352 384 340.5 375 c 128,-1,4
 329 366 329 366 316 366 c 0,5,6
 311 366 311 366 304.5 368 c 128,-1,7
 298 370 298 370 293 378 c 2,8,-1
 219 487 l 1,9,-1
 145 377 l 2,10,11
 141 370 141 370 135.5 368 c 128,-1,12
 130 366 130 366 124 366 c 0,13,14
 113 366 113 366 100 374.5 c 128,-1,15
 87 383 87 383 87 397 c 0,16,17
 87 409 87 409 94 417 c 2,18,-1
 171 520 l 1,19,-1
 49 556 l 2,20,21
 38 559 38 559 33 567 c 128,-1,22
 28 575 28 575 28 586 c 0,23,24
 28 599 28 599 37.5 609.5 c 128,-1,25
 47 620 47 620 61 620 c 0,26,27
 66 620 66 620 70 619 c 2,28,-1
 192 577 l 1,29,-1
 187 702 l 2,30,31
 188 716 188 716 197.5 723.5 c 128,-1,32
 207 731 207 731 219 731 c 0,33,34
 232 731 232 731 241.5 723.5 c 128,-1,35
 251 716 251 716 252 702 c 2,36,-1
 247 575 l 1,37,-1
 369 619 l 2,38,39
 372 620 372 620 379 620 c 0,40,41
 392 620 392 620 401 608.5 c 128,-1,42
 410 597 410 597 410 584 c 0,43,44
 410 562 410 562 389 556 c 2,45,-1
 268 523 l 1,46,-1
 347 416 l 2,0,1
EndSplineSet
EndChar
StartChar: plus
Encoding: 43 43 324
Width: 431
Flags: W
LayerCount: 2
Back
Fore
SplineSet
216 51 m 256,0,1
 200 51 200 51 189.5 59 c 128,-1,2
 179 67 179 67 179 80 c 2,3,-1
 179 205 l 1,4,-1
 55 205 l 2,5,6
 42 205 42 205 34 214.5 c 128,-1,7
 26 224 26 224 26 240 c 0,8,9
 26 255 26 255 34 265.5 c 128,-1,10
 42 276 42 276 55 276 c 2,11,-1
 179 276 l 1,12,-1
 179 400 l 2,13,14
 179 411 179 411 189.5 420.5 c 128,-1,15
 200 430 200 430 216 430 c 256,16,17
 232 430 232 430 241.5 420.5 c 128,-1,18
 251 411 251 411 251 400 c 2,19,-1
 251 276 l 1,20,-1
 375 276 l 2,21,22
 386 276 386 276 395.5 265.5 c 128,-1,23
 405 255 405 255 405 240 c 0,24,25
 405 224 405 224 395.5 214.5 c 128,-1,26
 386 205 386 205 375 205 c 2,27,-1
 251 205 l 1,28,-1
 251 80 l 2,29,30
 251 67 251 67 241.5 59 c 128,-1,31
 232 51 232 51 216 51 c 256,0,1
EndSplineSet
EndChar
StartChar: comma
Encoding: 44 44 178
Width: 176
Flags: W
LayerCount: 2
Back
Fore
SplineSet
87 99 m 0,0,1
 107 99 107 99 123 84.5 c 128,-1,2
 139 70 139 70 139 46 c 0,3,4
 139 43 139 43 138 38 c 128,-1,5
 137 33 137 33 133 20.5 c 128,-1,6
 129 8 129 8 120.5 -14.5 c 128,-1,7
 112 -37 112 -37 96 -75 c 0,8,9
 90 -89 90 -89 74 -89 c 0,10,11
 64 -89 64 -89 54.5 -82.5 c 128,-1,12
 45 -76 45 -76 45 -65 c 0,13,14
 45 -58 45 -58 47 -54 c 2,15,-1
 68 -2 l 1,16,17
 54 4 54 4 45 17 c 128,-1,18
 36 30 36 30 36 46 c 0,19,20
 36 68 36 68 50.5 83.5 c 128,-1,21
 65 99 65 99 87 99 c 0,0,1
EndSplineSet
EndChar
StartChar: hyphen
Encoding: 45 45 246
Width: 413
Flags: W
LayerCount: 2
Back
Fore
SplineSet
47 240 m 0,0,1
 47 255 47 255 54.5 265.5 c 128,-1,2
 62 276 62 276 76 276 c 2,3,-1
 336 276 l 2,4,5
 347 276 347 276 356.5 265.5 c 128,-1,6
 366 255 366 255 366 240 c 0,7,8
 366 224 366 224 356.5 214.5 c 128,-1,9
 347 205 347 205 336 205 c 2,10,-1
 76 205 l 2,11,12
 62 205 62 205 54.5 214.5 c 128,-1,13
 47 224 47 224 47 240 c 0,0,1
EndSplineSet
EndChar
StartChar: period
Encoding: 46 46 320
Width: 176
Flags: W
LayerCount: 2
Back
Fore
SplineSet
89 99 m 0,0,1
 110 99 110 99 125 83.5 c 128,-1,2
 140 68 140 68 140 46 c 0,3,4
 140 26 140 26 125 10 c 128,-1,5
 110 -6 110 -6 89 -6 c 0,6,7
 66 -6 66 -6 51.5 10 c 128,-1,8
 37 26 37 26 37 46 c 0,9,10
 37 68 37 68 51.5 83.5 c 128,-1,11
 66 99 66 99 89 99 c 0,0,1
EndSplineSet
EndChar
StartChar: slash
Encoding: 47 47 363
Width: 475
Flags: W
LayerCount: 2
Back
Fore
SplineSet
421 770 m 0,0,1
 433 770 433 770 444.5 760.5 c 128,-1,2
 456 751 456 751 456 737 c 0,3,4
 456 730 456 730 452 723 c 2,5,-1
 79 -14 l 2,6,7
 75 -22 75 -22 67 -26 c 128,-1,8
 59 -30 59 -30 51 -30 c 0,9,10
 37 -30 37 -30 28 -21 c 128,-1,11
 19 -12 19 -12 19 0 c 0,12,13
 19 3 19 3 19.5 6.5 c 128,-1,14
 20 10 20 10 22 13 c 2,15,-1
 397 755 l 2,16,17
 404 770 404 770 421 770 c 0,0,1
EndSplineSet
EndChar
StartChar: zero
Encoding: 48 48 415
Width: 541
Flags: W
LayerCount: 2
Back
Fore
SplineSet
270 -6 m 256,0,1
 225 -6 225 -6 185.5 5.5 c 128,-1,2
 146 17 146 17 117 43 c 128,-1,3
 88 69 88 69 71.5 110.5 c 128,-1,4
 55 152 55 152 55 212 c 2,5,-1
 55 513 l 2,6,7
 55 573 55 573 71.5 614.5 c 128,-1,8
 88 656 88 656 117 682 c 128,-1,9
 146 708 146 708 185.5 719.5 c 128,-1,10
 225 731 225 731 270 731 c 256,11,12
 315 731 315 731 354.5 719.5 c 128,-1,13
 394 708 394 708 423.5 682 c 128,-1,14
 453 656 453 656 469.5 614.5 c 128,-1,15
 486 573 486 573 486 513 c 2,16,-1
 486 212 l 2,17,18
 486 152 486 152 469.5 110.5 c 128,-1,19
 453 69 453 69 423.5 43 c 128,-1,20
 394 17 394 17 354.5 5.5 c 128,-1,21
 315 -6 315 -6 270 -6 c 256,0,1
402 513 m 2,22,23
 402 586 402 586 367 620.5 c 128,-1,24
 332 655 332 655 270 655 c 256,25,26
 208 655 208 655 173.5 620.5 c 128,-1,27
 139 586 139 586 139 513 c 2,28,-1
 139 212 l 2,29,30
 139 139 139 139 173.5 104.5 c 128,-1,31
 208 70 208 70 270 70 c 256,32,33
 332 70 332 70 367 104.5 c 128,-1,34
 402 139 402 139 402 212 c 2,35,-1
 402 513 l 2,22,23
271 401 m 0,36,37
 288 401 288 401 299 390 c 128,-1,38
 310 379 310 379 310 362 c 256,39,40
 310 345 310 345 299 333.5 c 128,-1,41
 288 322 288 322 271 322 c 0,42,43
 253 322 253 322 242 333.5 c 128,-1,44
 231 345 231 345 231 362 c 256,45,46
 231 379 231 379 242 390 c 128,-1,47
 253 401 253 401 271 401 c 0,36,37
EndSplineSet
EndChar
StartChar: one
Encoding: 49 49 301
Width: 248
Flags: W
LayerCount: 2
Back
Fore
SplineSet
98 606 m 1,0,-1
 61 551 l 2,1,2
 51 540 51 540 40 540 c 0,3,4
 26 540 26 540 17.5 550.5 c 128,-1,5
 9 561 9 561 9 575 c 0,6,7
 9 584 9 584 14.5 594.5 c 128,-1,8
 20 605 20 605 27 610 c 2,9,-1
 119 719 l 2,10,11
 124 724 124 724 130 728 c 128,-1,12
 136 732 136 732 145 732 c 0,13,14
 159 732 159 732 170.5 724 c 128,-1,15
 182 716 182 716 182 702 c 2,16,-1
 182 30 l 2,17,18
 182 15 182 15 169 7.5 c 128,-1,19
 156 0 156 0 140 0 c 256,20,21
 124 0 124 0 111 7.5 c 128,-1,22
 98 15 98 15 98 30 c 2,23,-1
 98 606 l 1,0,-1
EndSplineSet
Substitution2: "'lnum' Lining Figures in Latin lookup 8 subtable" one.lnum
Substitution2: "'aalt' Access All Alternates in Latin lookup 0 subtable" one.lnum
EndChar
StartChar: two
Encoding: 50 50 379
Width: 484
Flags: W
LayerCount: 2
Back
Fore
SplineSet
48 560 m 0,0,1
 48 598 48 598 63.5 629.5 c 128,-1,2
 79 661 79 661 105.5 683.5 c 128,-1,3
 132 706 132 706 167.5 718.5 c 128,-1,4
 203 731 203 731 243 731 c 0,5,6
 286 731 286 731 324 716.5 c 128,-1,7
 362 702 362 702 389.5 676 c 128,-1,8
 417 650 417 650 433 614 c 128,-1,9
 449 578 449 578 449 536 c 0,10,11
 449 482 449 482 424.5 439.5 c 128,-1,12
 400 397 400 397 363.5 362 c 128,-1,13
 327 327 327 327 284 297.5 c 128,-1,14
 241 268 241 268 204.5 240.5 c 128,-1,15
 168 213 168 213 143.5 185.5 c 128,-1,16
 119 158 119 158 119 127 c 2,17,-1
 119 76 l 1,18,-1
 426 76 l 2,19,20
 438 76 438 76 446.5 65 c 128,-1,21
 455 54 455 54 455 38 c 0,22,23
 455 24 455 24 446.5 12 c 128,-1,24
 438 0 438 0 426 0 c 2,25,-1
 70 0 l 2,26,27
 58 0 58 0 45 8 c 128,-1,28
 32 16 32 16 32 30 c 2,29,-1
 32 127 l 2,30,31
 32 168 32 168 56.5 202.5 c 128,-1,32
 81 237 81 237 118 268.5 c 128,-1,33
 155 300 155 300 198.5 329.5 c 128,-1,34
 242 359 242 359 279 390.5 c 128,-1,35
 316 422 316 422 340.5 457 c 128,-1,36
 365 492 365 492 365 533 c 0,37,38
 365 554 365 554 357.5 575.5 c 128,-1,39
 350 597 350 597 335 614.5 c 128,-1,40
 320 632 320 632 297 642.5 c 128,-1,41
 274 653 274 653 243 653 c 0,42,43
 195 653 195 653 162.5 626.5 c 128,-1,44
 130 600 130 600 130 544 c 0,45,46
 130 531 130 531 118.5 521 c 128,-1,47
 107 511 107 511 86 511 c 0,48,49
 68 511 68 511 58 521.5 c 128,-1,50
 48 532 48 532 48 560 c 0,0,1
EndSplineSet
EndChar
StartChar: three
Encoding: 51 51 372
Width: 497
Flags: W
LayerCount: 2
Back
Fore
SplineSet
239 70 m 0,0,1
 305 70 305 70 339 103 c 128,-1,2
 373 136 373 136 373 208 c 2,3,-1
 373 227 l 2,4,5
 373 293 373 293 336.5 321 c 128,-1,6
 300 349 300 349 239 349 c 0,7,8
 223 349 223 349 216.5 359.5 c 128,-1,9
 210 370 210 370 210 384 c 0,10,11
 210 397 210 397 216.5 408 c 128,-1,12
 223 419 223 419 239 419 c 0,13,14
 266 419 266 419 287.5 424 c 128,-1,15
 309 429 309 429 324 442.5 c 128,-1,16
 339 456 339 456 347 479.5 c 128,-1,17
 355 503 355 503 355 539 c 0,18,19
 355 600 355 600 327.5 628 c 128,-1,20
 300 656 300 656 243 656 c 0,21,22
 208 656 208 656 185 647 c 128,-1,23
 162 638 162 638 149 624 c 128,-1,24
 136 610 136 610 131 593 c 128,-1,25
 126 576 126 576 126 560 c 0,26,27
 126 543 126 543 117 533 c 128,-1,28
 108 523 108 523 86 523 c 0,29,30
 59 523 59 523 50.5 532 c 128,-1,31
 42 541 42 541 42 566 c 0,32,33
 42 588 42 588 51 617 c 128,-1,34
 60 646 60 646 83 671 c 128,-1,35
 106 696 106 696 145 713.5 c 128,-1,36
 184 731 184 731 245 731 c 0,37,38
 287 731 287 731 322 721.5 c 128,-1,39
 357 712 357 712 382.5 691 c 128,-1,40
 408 670 408 670 422 636.5 c 128,-1,41
 436 603 436 603 436 554 c 0,42,43
 436 488 436 488 413 445.5 c 128,-1,44
 390 403 390 403 355 386 c 1,45,46
 399 368 399 368 428 330 c 128,-1,47
 457 292 457 292 457 227 c 2,48,-1
 457 208 l 2,49,50
 457 149 457 149 440 108.5 c 128,-1,51
 423 68 423 68 393 42.5 c 128,-1,52
 363 17 363 17 323.5 5.5 c 128,-1,53
 284 -6 284 -6 239 -6 c 0,54,55
 183 -6 183 -6 143 10 c 128,-1,56
 103 26 103 26 77 50.5 c 128,-1,57
 51 75 51 75 38.5 105 c 128,-1,58
 26 135 26 135 26 164 c 0,59,60
 26 187 26 187 35 195 c 128,-1,61
 44 203 44 203 65 203 c 0,62,63
 91 203 91 203 99.5 194.5 c 128,-1,64
 108 186 108 186 108 170 c 256,65,66
 108 154 108 154 115 136.5 c 128,-1,67
 122 119 122 119 137.5 104 c 128,-1,68
 153 89 153 89 178 79.5 c 128,-1,69
 203 70 203 70 239 70 c 0,0,1
EndSplineSet
EndChar
StartChar: four
Encoding: 52 52 224
Width: 460
Flags: W
LayerCount: 2
Back
Fore
SplineSet
286 168 m 1,0,-1
 36 168 l 2,1,2
 22 168 22 168 13.5 177 c 128,-1,3
 5 186 5 186 5 201 c 0,4,5
 5 212 5 212 10 220 c 2,6,-1
 257 707 l 2,7,8
 270 731 270 731 295 731 c 0,9,10
 307 731 307 731 321.5 722 c 128,-1,11
 336 713 336 713 336 698 c 0,12,13
 336 691 336 691 332 684 c 2,14,-1
 113 248 l 1,15,-1
 286 248 l 1,16,-1
 286 416 l 2,17,18
 286 431 286 431 299 438 c 128,-1,19
 312 445 312 445 328 445 c 256,20,21
 344 445 344 445 357 438 c 128,-1,22
 370 431 370 431 370 416 c 2,23,-1
 370 248 l 1,24,-1
 423 248 l 2,25,26
 438 248 438 248 445.5 235.5 c 128,-1,27
 453 223 453 223 453 208 c 256,28,29
 453 193 453 193 444.5 180.5 c 128,-1,30
 436 168 436 168 423 168 c 2,31,-1
 370 168 l 1,32,-1
 370 30 l 2,33,34
 370 15 370 15 357 7.5 c 128,-1,35
 344 0 344 0 328 0 c 256,36,37
 312 0 312 0 299 7.5 c 128,-1,38
 286 15 286 15 286 30 c 2,39,-1
 286 168 l 1,0,-1
EndSplineSet
EndChar
StartChar: five
Encoding: 53 53 218
Width: 485
Flags: W
LayerCount: 2
Back
Fore
SplineSet
241 436 m 2,0,1
 286 436 286 436 325.5 425 c 128,-1,2
 365 414 365 414 394 389 c 128,-1,3
 423 364 423 364 439.5 325 c 128,-1,4
 456 286 456 286 456 229 c 2,5,-1
 456 210 l 2,6,7
 456 151 456 151 439.5 110 c 128,-1,8
 423 69 423 69 393.5 43 c 128,-1,9
 364 17 364 17 325 5.5 c 128,-1,10
 286 -6 286 -6 241 -6 c 0,11,12
 189 -6 189 -6 149 8 c 128,-1,13
 109 22 109 22 81.5 46 c 128,-1,14
 54 70 54 70 39.5 101 c 128,-1,15
 25 132 25 132 25 167 c 0,16,17
 25 190 25 190 36.5 198.5 c 128,-1,18
 48 207 48 207 67 207 c 0,19,20
 91 207 91 207 100 197.5 c 128,-1,21
 109 188 109 188 109 173 c 0,22,23
 109 123 109 123 147 96.5 c 128,-1,24
 185 70 185 70 240 70 c 0,25,26
 302 70 302 70 337 104 c 128,-1,27
 372 138 372 138 372 210 c 2,28,-1
 372 229 l 2,29,30
 372 299 372 299 337 332.5 c 128,-1,31
 302 366 302 366 241 366 c 2,32,-1
 99 366 l 2,33,34
 76 366 76 366 68 375.5 c 128,-1,35
 60 385 60 385 60 399 c 0,36,37
 60 403 60 403 60.5 409.5 c 128,-1,38
 61 416 61 416 62 421 c 2,39,-1
 83 701 l 2,40,41
 84 715 84 715 89.5 723 c 128,-1,42
 95 731 95 731 105 731 c 2,43,-1
 393 731 l 2,44,45
 407 731 407 731 413.5 719 c 128,-1,46
 420 707 420 707 420 693 c 256,47,48
 420 679 420 679 413.5 667 c 128,-1,49
 407 655 407 655 393 655 c 2,50,-1
 156 655 l 1,51,-1
 141 436 l 1,52,-1
 241 436 l 2,0,1
EndSplineSet
EndChar
StartChar: six
Encoding: 54 54 360
Width: 526
Flags: W
LayerCount: 2
Back
Fore
SplineSet
285 435 m 0,0,1
 327 435 327 435 363.5 425 c 128,-1,2
 400 415 400 415 427.5 391.5 c 128,-1,3
 455 368 455 368 470.5 329.5 c 128,-1,4
 486 291 486 291 486 233 c 2,5,-1
 486 212 l 2,6,7
 486 152 486 152 469.5 110.5 c 128,-1,8
 453 69 453 69 424 43 c 128,-1,9
 395 17 395 17 355.5 5.5 c 128,-1,10
 316 -6 316 -6 271 -6 c 256,11,12
 226 -6 226 -6 186.5 5.5 c 128,-1,13
 147 17 147 17 117.5 43 c 128,-1,14
 88 69 88 69 71.5 110.5 c 128,-1,15
 55 152 55 152 55 212 c 2,16,-1
 55 513 l 2,17,18
 55 573 55 573 72 614.5 c 128,-1,19
 89 656 89 656 118 682 c 128,-1,20
 147 708 147 708 187 719.5 c 128,-1,21
 227 731 227 731 274 731 c 0,22,23
 327 731 327 731 366.5 716 c 128,-1,24
 406 701 406 701 432.5 676.5 c 128,-1,25
 459 652 459 652 472.5 620.5 c 128,-1,26
 486 589 486 589 486 557 c 0,27,28
 486 536 486 536 476 528 c 128,-1,29
 466 520 466 520 447 520 c 0,30,31
 430 520 430 520 416.5 527 c 128,-1,32
 403 534 403 534 403 553 c 0,33,34
 403 577 403 577 392.5 595.5 c 128,-1,35
 382 614 382 614 364.5 627.5 c 128,-1,36
 347 641 347 641 323 648 c 128,-1,37
 299 655 299 655 272 655 c 0,38,39
 209 655 209 655 174 620.5 c 128,-1,40
 139 586 139 586 139 513 c 2,41,-1
 139 373 l 1,42,43
 165 406 165 406 202.5 420.5 c 128,-1,44
 240 435 240 435 285 435 c 0,0,1
139 208 m 2,45,46
 139 134 139 134 174 100 c 128,-1,47
 209 66 209 66 271 66 c 256,48,49
 333 66 333 66 367.5 100 c 128,-1,50
 402 134 402 134 402 208 c 2,51,-1
 402 229 l 2,52,53
 402 303 402 303 367.5 334 c 128,-1,54
 333 365 333 365 271 365 c 0,55,56
 211 365 211 365 175 336 c 128,-1,57
 139 307 139 307 139 238 c 2,58,-1
 139 208 l 2,45,46
EndSplineSet
EndChar
StartChar: seven
Encoding: 55 55 356
Width: 470
Flags: W
LayerCount: 2
Back
Fore
SplineSet
455 608 m 2,0,1
 455 599 455 599 451 587.5 c 128,-1,2
 447 576 447 576 441 565 c 2,3,-1
 157 12 l 2,4,5
 150 -2 150 -2 130 -2 c 256,6,7
 110 -2 110 -2 94.5 9 c 128,-1,8
 79 20 79 20 79 38 c 0,9,10
 79 47 79 47 83 55 c 2,11,-1
 371 598 l 1,12,-1
 371 655 l 1,13,-1
 108 655 l 1,14,-1
 108 550 l 2,15,16
 108 537 108 537 95.5 528.5 c 128,-1,17
 83 520 83 520 66 520 c 256,18,19
 49 520 49 520 36.5 528.5 c 128,-1,20
 24 537 24 537 24 550 c 2,21,-1
 24 701 l 2,22,23
 24 712 24 712 36 721.5 c 128,-1,24
 48 731 48 731 62 731 c 2,25,-1
 417 731 l 2,26,27
 430 731 430 731 442.5 721.5 c 128,-1,28
 455 712 455 712 455 701 c 2,29,-1
 455 608 l 2,0,1
EndSplineSet
EndChar
StartChar: eight
Encoding: 56 56 202
Width: 511
Flags: W
LayerCount: 2
Back
Fore
SplineSet
256 731 m 256,0,1
 298 731 298 731 333.5 722 c 128,-1,2
 369 713 369 713 395 692 c 128,-1,3
 421 671 421 671 435.5 637.5 c 128,-1,4
 450 604 450 604 450 555 c 0,5,6
 450 491 450 491 425.5 453.5 c 128,-1,7
 401 416 401 416 360 399 c 1,8,9
 410 379 410 379 440.5 334.5 c 128,-1,10
 471 290 471 290 471 212 c 2,11,-1
 471 200 l 2,12,13
 471 144 471 144 454.5 105 c 128,-1,14
 438 66 438 66 409 41 c 128,-1,15
 380 16 380 16 340.5 5 c 128,-1,16
 301 -6 301 -6 256 -6 c 0,17,18
 210 -6 210 -6 170.5 5 c 128,-1,19
 131 16 131 16 102 41 c 128,-1,20
 73 66 73 66 56.5 105 c 128,-1,21
 40 144 40 144 40 200 c 2,22,-1
 40 212 l 2,23,24
 40 290 40 290 70.5 334.5 c 128,-1,25
 101 379 101 379 152 399 c 1,26,27
 110 416 110 416 85.5 453.5 c 128,-1,28
 61 491 61 491 61 555 c 0,29,30
 61 604 61 604 75.5 637.5 c 128,-1,31
 90 671 90 671 116.5 692 c 128,-1,32
 143 713 143 713 178.5 722 c 128,-1,33
 214 731 214 731 256 731 c 256,0,1
387 224 m 2,34,35
 387 296 387 296 352 329 c 128,-1,36
 317 362 317 362 256 362 c 0,37,38
 194 362 194 362 159 329 c 128,-1,39
 124 296 124 296 124 224 c 2,40,-1
 124 208 l 2,41,42
 124 134 124 134 159 100 c 128,-1,43
 194 66 194 66 256 66 c 256,44,45
 318 66 318 66 352.5 101 c 128,-1,46
 387 136 387 136 387 208 c 2,47,-1
 387 224 l 2,34,35
256 659 m 0,48,49
 202 659 202 659 172.5 633 c 128,-1,50
 143 607 143 607 143 547 c 256,51,52
 143 487 143 487 172.5 460.5 c 128,-1,53
 202 434 202 434 256 434 c 0,54,55
 309 434 309 434 339 460.5 c 128,-1,56
 369 487 369 487 369 547 c 256,57,58
 369 607 369 607 339 633 c 128,-1,59
 309 659 309 659 256 659 c 0,48,49
EndSplineSet
EndChar
StartChar: nine
Encoding: 57 57 285
Width: 526
Flags: W
LayerCount: 2
Back
Fore
SplineSet
241 290 m 0,0,1
 199 290 199 290 162.5 300 c 128,-1,2
 126 310 126 310 99 333.5 c 128,-1,3
 72 357 72 357 56 395.5 c 128,-1,4
 40 434 40 434 40 492 c 2,5,-1
 40 513 l 2,6,7
 40 573 40 573 56.5 614.5 c 128,-1,8
 73 656 73 656 102 682 c 128,-1,9
 131 708 131 708 170.5 719.5 c 128,-1,10
 210 731 210 731 255 731 c 0,11,12
 301 731 301 731 340.5 719.5 c 128,-1,13
 380 708 380 708 409 682 c 128,-1,14
 438 656 438 656 454.5 614.5 c 128,-1,15
 471 573 471 573 471 513 c 2,16,-1
 471 212 l 2,17,18
 471 152 471 152 454 110.5 c 128,-1,19
 437 69 437 69 408 43 c 128,-1,20
 379 17 379 17 338.5 5.5 c 128,-1,21
 298 -6 298 -6 252 -6 c 0,22,23
 199 -6 199 -6 159.5 9 c 128,-1,24
 120 24 120 24 93.5 48.5 c 128,-1,25
 67 73 67 73 53.5 104.5 c 128,-1,26
 40 136 40 136 40 168 c 0,27,28
 40 189 40 189 50 197 c 128,-1,29
 60 205 60 205 80 205 c 0,30,31
 97 205 97 205 110.5 198 c 128,-1,32
 124 191 124 191 124 172 c 0,33,34
 124 148 124 148 134.5 129.5 c 128,-1,35
 145 111 145 111 162.5 97.5 c 128,-1,36
 180 84 180 84 203.5 77 c 128,-1,37
 227 70 227 70 254 70 c 0,38,39
 317 70 317 70 352 104.5 c 128,-1,40
 387 139 387 139 387 212 c 2,41,-1
 387 352 l 1,42,43
 362 319 362 319 324 304.5 c 128,-1,44
 286 290 286 290 241 290 c 0,0,1
387 517 m 2,45,46
 387 591 387 591 352.5 625 c 128,-1,47
 318 659 318 659 255 659 c 0,48,49
 193 659 193 659 158.5 625 c 128,-1,50
 124 591 124 591 124 517 c 2,51,-1
 124 496 l 2,52,53
 124 422 124 422 158.5 391 c 128,-1,54
 193 360 193 360 256 360 c 0,55,56
 316 360 316 360 351.5 389 c 128,-1,57
 387 418 387 418 387 487 c 2,58,-1
 387 517 l 2,45,46
EndSplineSet
EndChar
StartChar: colon
Encoding: 58 58 177
Width: 209
Flags: W
LayerCount: 2
Back
Fore
SplineSet
105 99 m 0,0,1
 126 99 126 99 141 83.5 c 128,-1,2
 156 68 156 68 156 46 c 0,3,4
 156 26 156 26 141 10 c 128,-1,5
 126 -6 126 -6 105 -6 c 0,6,7
 82 -6 82 -6 67.5 10 c 128,-1,8
 53 26 53 26 53 46 c 0,9,10
 53 68 53 68 67.5 83.5 c 128,-1,11
 82 99 82 99 105 99 c 0,0,1
105 422 m 0,12,13
 126 422 126 422 141 406.5 c 128,-1,14
 156 391 156 391 156 369 c 0,15,16
 156 349 156 349 141 333 c 128,-1,17
 126 317 126 317 105 317 c 0,18,19
 82 317 82 317 67.5 333 c 128,-1,20
 53 349 53 349 53 369 c 0,21,22
 53 391 53 391 67.5 406.5 c 128,-1,23
 82 422 82 422 105 422 c 0,12,13
EndSplineSet
EndChar
StartChar: semicolon
Encoding: 59 59 355
Width: 215
Flags: W
LayerCount: 2
Back
Fore
SplineSet
106 99 m 0,0,1
 126 99 126 99 142 84.5 c 128,-1,2
 158 70 158 70 158 46 c 0,3,4
 158 43 158 43 157 38 c 128,-1,5
 156 33 156 33 152 20.5 c 128,-1,6
 148 8 148 8 139.5 -14.5 c 128,-1,7
 131 -37 131 -37 115 -75 c 0,8,9
 109 -89 109 -89 93 -89 c 0,10,11
 83 -89 83 -89 73.5 -82.5 c 128,-1,12
 64 -76 64 -76 64 -65 c 0,13,14
 64 -58 64 -58 66 -54 c 2,15,-1
 87 -2 l 1,16,17
 73 4 73 4 64 17 c 128,-1,18
 55 30 55 30 55 46 c 0,19,20
 55 68 55 68 69.5 83.5 c 128,-1,21
 84 99 84 99 106 99 c 0,0,1
110 422 m 0,22,23
 131 422 131 422 146 406.5 c 128,-1,24
 161 391 161 391 161 369 c 0,25,26
 161 349 161 349 146 333 c 128,-1,27
 131 317 131 317 110 317 c 0,28,29
 87 317 87 317 72.5 333 c 128,-1,30
 58 349 58 349 58 369 c 0,31,32
 58 391 58 391 72.5 406.5 c 128,-1,33
 87 422 87 422 110 422 c 0,22,23
EndSplineSet
EndChar
StartChar: less
Encoding: 60 60 269
Width: 403
Flags: W
LayerCount: 2
Back
Fore
SplineSet
22 277 m 256,0,1
 22 286 22 286 27 295.5 c 128,-1,2
 32 305 32 305 40 311 c 2,3,-1
 307 486 l 2,4,5
 312 490 312 490 320 490 c 0,6,7
 333 490 333 490 346 478.5 c 128,-1,8
 359 467 359 467 359 450 c 256,9,10
 359 433 359 433 346 426 c 2,11,-1
 121 277 l 1,12,-1
 346 129 l 2,13,14
 351 125 351 125 355 118.5 c 128,-1,15
 359 112 359 112 359 104 c 0,16,17
 359 87 359 87 346 76 c 128,-1,18
 333 65 333 65 320 65 c 0,19,20
 312 65 312 65 307 69 c 2,21,-1
 40 244 l 2,22,23
 31 250 31 250 26.5 259 c 128,-1,24
 22 268 22 268 22 277 c 256,0,1
EndSplineSet
EndChar
StartChar: equal
Encoding: 61 61 211
Width: 438
Flags: W
LayerCount: 2
Back
Fore
SplineSet
63 160 m 0,0,1
 63 175 63 175 70.5 185.5 c 128,-1,2
 78 196 78 196 92 196 c 2,3,-1
 346 196 l 2,4,5
 357 196 357 196 366.5 185.5 c 128,-1,6
 376 175 376 175 376 160 c 0,7,8
 376 143 376 143 366.5 133.5 c 128,-1,9
 357 124 357 124 346 124 c 2,10,-1
 92 124 l 2,11,12
 78 124 78 124 70.5 133.5 c 128,-1,13
 63 143 63 143 63 160 c 0,0,1
63 363 m 0,14,15
 63 378 63 378 70.5 388.5 c 128,-1,16
 78 399 78 399 92 399 c 2,17,-1
 346 399 l 2,18,19
 357 399 357 399 366.5 388.5 c 128,-1,20
 376 378 376 378 376 363 c 0,21,22
 376 346 376 346 366.5 336.5 c 128,-1,23
 357 327 357 327 346 327 c 2,24,-1
 92 327 l 2,25,26
 78 327 78 327 70.5 336.5 c 128,-1,27
 63 346 63 346 63 363 c 0,14,15
EndSplineSet
EndChar
StartChar: greater
Encoding: 62 62 236
Width: 403
Flags: W
LayerCount: 2
Back
Fore
SplineSet
381 277 m 256,0,1
 381 268 381 268 376.5 259 c 128,-1,2
 372 250 372 250 363 244 c 2,3,-1
 96 69 l 2,4,5
 91 65 91 65 83 65 c 0,6,7
 70 65 70 65 57 76 c 128,-1,8
 44 87 44 87 44 104 c 0,9,10
 44 112 44 112 48 118.5 c 128,-1,11
 52 125 52 125 57 129 c 2,12,-1
 282 277 l 1,13,-1
 57 426 l 2,14,15
 44 433 44 433 44 450 c 256,16,17
 44 467 44 467 57 478.5 c 128,-1,18
 70 490 70 490 83 490 c 0,19,20
 91 490 91 490 96 486 c 2,21,-1
 363 311 l 2,22,23
 371 305 371 305 376 295.5 c 128,-1,24
 381 286 381 286 381 277 c 256,0,1
EndSplineSet
EndChar
StartChar: question
Encoding: 63 63 329
Width: 408
Flags: W
LayerCount: 2
Back
Fore
SplineSet
378 566 m 0,0,1
 378 521 378 521 362.5 487 c 128,-1,2
 347 453 347 453 326 427 c 128,-1,3
 305 401 305 401 283 382 c 128,-1,4
 261 363 261 363 248 348 c 0,5,6
 234 334 234 334 226.5 319.5 c 128,-1,7
 219 305 219 305 215 287.5 c 128,-1,8
 211 270 211 270 210.5 249 c 128,-1,9
 210 228 210 228 210 202 c 0,10,11
 210 191 210 191 202 183 c 128,-1,12
 194 175 194 175 176 175 c 0,13,14
 160 175 160 175 152 183 c 128,-1,15
 144 191 144 191 144 212 c 0,16,17
 144 252 144 252 148 279.5 c 128,-1,18
 152 307 152 307 158.5 326.5 c 128,-1,19
 165 346 165 346 173.5 358.5 c 128,-1,20
 182 371 182 371 192 381 c 0,21,22
 207 396 207 396 227 412.5 c 128,-1,23
 247 429 247 429 264.5 450 c 128,-1,24
 282 471 282 471 294 497.5 c 128,-1,25
 306 524 306 524 306 559 c 0,26,27
 306 614 306 614 273 644.5 c 128,-1,28
 240 675 240 675 180 675 c 0,29,30
 146 675 146 675 126.5 666.5 c 128,-1,31
 107 658 107 658 94.5 647.5 c 128,-1,32
 82 637 82 637 74 628.5 c 128,-1,33
 66 620 66 620 54 620 c 0,34,35
 43 620 43 620 32.5 628 c 128,-1,36
 22 636 22 636 22 653 c 0,37,38
 22 666 22 666 33.5 681.5 c 128,-1,39
 45 697 45 697 66.5 710.5 c 128,-1,40
 88 724 88 724 118 732.5 c 128,-1,41
 148 741 148 741 184 741 c 0,42,43
 231 741 231 741 267.5 727.5 c 128,-1,44
 304 714 304 714 328.5 690.5 c 128,-1,45
 353 667 353 667 365.5 635 c 128,-1,46
 378 603 378 603 378 566 c 0,0,1
176 99 m 0,47,48
 198 99 198 99 213 83.5 c 128,-1,49
 228 68 228 68 228 46 c 0,50,51
 228 26 228 26 213.5 10 c 128,-1,52
 199 -6 199 -6 176 -6 c 0,53,54
 154 -6 154 -6 139 10 c 128,-1,55
 124 26 124 26 124 46 c 0,56,57
 124 68 124 68 139.5 83.5 c 128,-1,58
 155 99 155 99 176 99 c 0,47,48
EndSplineSet
EndChar
StartChar: at
Encoding: 64 64 153
Width: 722
Flags: W
LayerCount: 2
Back
Fore
SplineSet
233 368 m 0,0,1
 233 379 233 379 245 389 c 128,-1,2
 257 399 257 399 275.5 406 c 128,-1,3
 294 413 294 413 317.5 417 c 128,-1,4
 341 421 341 421 364 421 c 0,5,6
 430 421 430 421 471 388 c 128,-1,7
 512 355 512 355 512 292 c 2,8,-1
 512 125 l 2,9,10
 515 101 515 101 529.5 88.5 c 128,-1,11
 544 76 544 76 562 76 c 0,12,13
 583 76 583 76 595.5 91 c 128,-1,14
 608 106 608 106 615 128.5 c 128,-1,15
 622 151 622 151 624.5 177 c 128,-1,16
 627 203 627 203 627 226 c 0,17,18
 627 358 627 358 564 431.5 c 128,-1,19
 501 505 501 505 370 505 c 0,20,21
 295 505 295 505 244.5 481 c 128,-1,22
 194 457 194 457 164 417 c 128,-1,23
 134 377 134 377 121 324.5 c 128,-1,24
 108 272 108 272 108 215 c 0,25,26
 108 162 108 162 119.5 113 c 128,-1,27
 131 64 131 64 158 26 c 128,-1,28
 185 -12 185 -12 229 -34.5 c 128,-1,29
 273 -57 273 -57 339 -57 c 0,30,31
 371 -57 371 -57 394 -52.5 c 128,-1,32
 417 -48 417 -48 433 -42 c 128,-1,33
 449 -36 449 -36 459.5 -31.5 c 128,-1,34
 470 -27 470 -27 478 -27 c 0,35,36
 489 -27 489 -27 495.5 -36.5 c 128,-1,37
 502 -46 502 -46 502 -53 c 0,38,39
 502 -65 502 -65 485.5 -75.5 c 128,-1,40
 469 -86 469 -86 443.5 -94 c 128,-1,41
 418 -102 418 -102 387.5 -106.5 c 128,-1,42
 357 -111 357 -111 330 -111 c 0,43,44
 275 -111 275 -111 224.5 -91.5 c 128,-1,45
 174 -72 174 -72 135 -32.5 c 128,-1,46
 96 7 96 7 72.5 68.5 c 128,-1,47
 49 130 49 130 49 214 c 0,48,49
 49 286 49 286 67.5 349.5 c 128,-1,50
 86 413 86 413 125.5 460 c 128,-1,51
 165 507 165 507 226 534 c 128,-1,52
 287 561 287 561 371 561 c 0,53,54
 523 561 523 561 604.5 476.5 c 128,-1,55
 686 392 686 392 686 236 c 0,56,57
 686 195 686 195 679 157 c 128,-1,58
 672 119 672 119 656.5 90 c 128,-1,59
 641 61 641 61 616.5 43.5 c 128,-1,60
 592 26 592 26 557 26 c 0,61,62
 518 26 518 26 491 46 c 128,-1,63
 464 66 464 66 458 93 c 1,64,65
 432 65 432 65 405 49.5 c 128,-1,66
 378 34 378 34 335 34 c 0,67,68
 310 34 310 34 287 40 c 128,-1,69
 264 46 264 46 247 59 c 128,-1,70
 230 72 230 72 219.5 93.5 c 128,-1,71
 209 115 209 115 209 145 c 0,72,73
 209 179 209 179 223 201.5 c 128,-1,74
 237 224 237 224 263 237.5 c 128,-1,75
 289 251 289 251 325.5 256 c 128,-1,76
 362 261 362 261 407 261 c 2,77,-1
 447 261 l 1,78,-1
 447 279 l 2,79,80
 447 320 447 320 424.5 339.5 c 128,-1,81
 402 359 402 359 353 359 c 0,82,83
 329 359 329 359 313.5 355 c 128,-1,84
 298 351 298 351 287.5 346.5 c 128,-1,85
 277 342 277 342 270.5 338 c 128,-1,86
 264 334 264 334 258 334 c 0,87,88
 247 334 247 334 240 346.5 c 128,-1,89
 233 359 233 359 233 368 c 0,0,1
449 216 m 1,90,-1
 413 216 l 2,91,92
 383 216 383 216 358.5 213 c 128,-1,93
 334 210 334 210 316.5 202.5 c 128,-1,94
 299 195 299 195 289 181 c 128,-1,95
 279 167 279 167 279 145 c 0,96,97
 279 113 279 113 298 99 c 128,-1,98
 317 85 317 85 346 85 c 0,99,100
 369 85 369 85 388 92.5 c 128,-1,101
 407 100 407 100 420.5 112 c 128,-1,102
 434 124 434 124 441.5 138.5 c 128,-1,103
 449 153 449 153 449 167 c 2,104,-1
 449 216 l 1,90,-1
EndSplineSet
EndChar
StartChar: A
Encoding: 65 65 1
Width: 550
Flags: W
LayerCount: 2
Back
Fore
SplineSet
68 0 m 0,0,1
 51 0 51 0 34 9.5 c 128,-1,2
 17 19 17 19 17 35 c 0,3,4
 17 37 17 37 19 43 c 2,5,-1
 223 708 l 2,6,7
 228 723 228 723 243 730 c 128,-1,8
 258 737 258 737 275 737 c 256,9,10
 292 737 292 737 307 729.5 c 128,-1,11
 322 722 322 722 327 708 c 2,12,-1
 531 43 l 2,13,14
 531 41 531 41 531.5 39.5 c 128,-1,15
 532 38 532 38 532 36 c 0,16,17
 532 21 532 21 515 10.5 c 128,-1,18
 498 0 498 0 480 0 c 0,19,20
 469 0 469 0 461 4.5 c 128,-1,21
 453 9 453 9 450 19 c 2,22,-1
 406 168 l 1,23,-1
 143 168 l 1,24,-1
 99 19 l 2,25,26
 93 0 93 0 68 0 c 0,0,1
386 237 m 1,27,-1
 275 613 l 1,28,-1
 162 237 l 1,29,-1
 386 237 l 1,27,-1
EndSplineSet
EndChar
StartChar: B
Encoding: 66 66 13
Width: 545
Flags: W
LayerCount: 2
Back
Fore
SplineSet
71 701 m 2,0,1
 71 716 71 716 83 723.5 c 128,-1,2
 95 731 95 731 109 731 c 2,3,-1
 281 731 l 2,4,5
 322 731 322 731 359 724 c 128,-1,6
 396 717 396 717 423.5 698 c 128,-1,7
 451 679 451 679 467.5 645.5 c 128,-1,8
 484 612 484 612 484 560 c 0,9,10
 484 497 484 497 461 455 c 128,-1,11
 438 413 438 413 399 396 c 1,12,13
 422 387 422 387 441 373.5 c 128,-1,14
 460 360 460 360 473.5 340 c 128,-1,15
 487 320 487 320 494.5 292 c 128,-1,16
 502 264 502 264 502 226 c 2,17,-1
 502 208 l 2,18,19
 502 151 502 151 486.5 111 c 128,-1,20
 471 71 471 71 444.5 46.5 c 128,-1,21
 418 22 418 22 382 11 c 128,-1,22
 346 0 346 0 304 0 c 2,23,-1
 109 0 l 2,24,25
 92 0 92 0 81.5 9 c 128,-1,26
 71 18 71 18 71 29 c 2,27,-1
 71 701 l 2,0,1
290 76 m 2,28,29
 350 76 350 76 384 108.5 c 128,-1,30
 418 141 418 141 418 213 c 2,31,-1
 418 230 l 2,32,33
 418 302 418 302 384 331.5 c 128,-1,34
 350 361 350 361 290 361 c 2,35,-1
 155 361 l 1,36,-1
 155 76 l 1,37,-1
 290 76 l 2,28,29
155 431 m 1,38,-1
 280 431 l 2,39,40
 341 431 341 431 370.5 458 c 128,-1,41
 400 485 400 485 400 548 c 0,42,43
 400 578 400 578 391 598.5 c 128,-1,44
 382 619 382 619 366 631.5 c 128,-1,45
 350 644 350 644 327 649.5 c 128,-1,46
 304 655 304 655 277 655 c 2,47,-1
 155 655 l 1,48,-1
 155 431 l 1,38,-1
EndSplineSet
EndChar
StartChar: C
Encoding: 67 67 14
Width: 531
Flags: W
LayerCount: 2
Back
Fore
SplineSet
411 540 m 0,0,1
 410 555 410 555 405.5 575 c 128,-1,2
 401 595 401 595 387.5 612.5 c 128,-1,3
 374 630 374 630 348.5 642.5 c 128,-1,4
 323 655 323 655 281 655 c 0,5,6
 216 655 216 655 182 620.5 c 128,-1,7
 148 586 148 586 148 513 c 2,8,-1
 148 212 l 2,9,10
 148 139 148 139 182.5 104.5 c 128,-1,11
 217 70 217 70 284 70 c 0,12,13
 326 70 326 70 350 82 c 128,-1,14
 374 94 374 94 387 112 c 128,-1,15
 400 130 400 130 404.5 150.5 c 128,-1,16
 409 171 409 171 411 189 c 0,17,18
 414 218 414 218 453 218 c 0,19,20
 474 218 474 218 484.5 209 c 128,-1,21
 495 200 495 200 495 171 c 0,22,23
 495 134 495 134 480 101.5 c 128,-1,24
 465 69 465 69 437 45 c 128,-1,25
 409 21 409 21 368.5 7.5 c 128,-1,26
 328 -6 328 -6 278 -6 c 0,27,28
 234 -6 234 -6 195 5.5 c 128,-1,29
 156 17 156 17 127 43 c 128,-1,30
 98 69 98 69 81 110.5 c 128,-1,31
 64 152 64 152 64 212 c 2,32,-1
 64 513 l 2,33,34
 64 573 64 573 81 614.5 c 128,-1,35
 98 656 98 656 127.5 682 c 128,-1,36
 157 708 157 708 196 719.5 c 128,-1,37
 235 731 235 731 279 731 c 0,38,39
 329 731 329 731 369 717.5 c 128,-1,40
 409 704 409 704 437 680.5 c 128,-1,41
 465 657 465 657 480 625.5 c 128,-1,42
 495 594 495 594 495 557 c 0,43,44
 495 528 495 528 484.5 519.5 c 128,-1,45
 474 511 474 511 453 511 c 0,46,47
 413 511 413 511 411 540 c 0,0,1
EndSplineSet
EndChar
StartChar: D
Encoding: 68 68 21
Width: 566
Flags: W
LayerCount: 2
Back
Fore
SplineSet
286 731 m 2,0,1
 331 731 331 731 370.5 719.5 c 128,-1,2
 410 708 410 708 439.5 682 c 128,-1,3
 469 656 469 656 485.5 614.5 c 128,-1,4
 502 573 502 573 502 513 c 2,5,-1
 502 218 l 2,6,7
 502 158 502 158 485.5 116.5 c 128,-1,8
 469 75 469 75 439.5 49 c 128,-1,9
 410 23 410 23 370.5 11.5 c 128,-1,10
 331 0 331 0 286 0 c 2,11,-1
 109 0 l 2,12,13
 92 0 92 0 81.5 9 c 128,-1,14
 71 18 71 18 71 29 c 2,15,-1
 71 702 l 2,16,17
 71 713 71 713 81.5 722 c 128,-1,18
 92 731 92 731 109 731 c 2,19,-1
 286 731 l 2,0,1
155 655 m 1,20,-1
 155 76 l 1,21,-1
 286 76 l 2,22,23
 348 76 348 76 383 110.5 c 128,-1,24
 418 145 418 145 418 218 c 2,25,-1
 418 513 l 2,26,27
 418 586 418 586 383 620.5 c 128,-1,28
 348 655 348 655 286 655 c 2,29,-1
 155 655 l 1,20,-1
EndSplineSet
EndChar
StartChar: E
Encoding: 69 69 25
Width: 514
Flags: W
LayerCount: 2
Back
Fore
SplineSet
155 401 m 1,0,-1
 311 401 l 2,1,2
 325 401 325 401 332.5 390 c 128,-1,3
 340 379 340 379 340 365 c 0,4,5
 340 353 340 353 333 342 c 128,-1,6
 326 331 326 331 311 331 c 2,7,-1
 155 331 l 1,8,-1
 155 76 l 1,9,-1
 465 76 l 2,10,11
 479 76 479 76 486.5 64.5 c 128,-1,12
 494 53 494 53 494 37 c 0,13,14
 494 23 494 23 487 11.5 c 128,-1,15
 480 0 480 0 465 0 c 2,16,-1
 109 0 l 2,17,18
 95 0 95 0 83 7.5 c 128,-1,19
 71 15 71 15 71 30 c 2,20,-1
 71 701 l 2,21,22
 71 716 71 716 83 723.5 c 128,-1,23
 95 731 95 731 109 731 c 2,24,-1
 465 731 l 2,25,26
 480 731 480 731 487 719.5 c 128,-1,27
 494 708 494 708 494 694 c 0,28,29
 494 678 494 678 486.5 666.5 c 128,-1,30
 479 655 479 655 465 655 c 2,31,-1
 155 655 l 1,32,-1
 155 401 l 1,0,-1
EndSplineSet
EndChar
StartChar: F
Encoding: 70 70 38
Width: 497
Flags: W
LayerCount: 2
Back
Fore
SplineSet
71 701 m 2,0,1
 71 716 71 716 83 723.5 c 128,-1,2
 95 731 95 731 109 731 c 2,3,-1
 461 731 l 2,4,5
 476 731 476 731 483 719.5 c 128,-1,6
 490 708 490 708 490 694 c 0,7,8
 490 678 490 678 482.5 666.5 c 128,-1,9
 475 655 475 655 461 655 c 2,10,-1
 155 655 l 1,11,-1
 155 401 l 1,12,-1
 311 401 l 2,13,14
 325 401 325 401 332.5 390 c 128,-1,15
 340 379 340 379 340 365 c 0,16,17
 340 353 340 353 333 342 c 128,-1,18
 326 331 326 331 311 331 c 2,19,-1
 155 331 l 1,20,-1
 155 29 l 2,21,22
 155 14 155 14 142 7 c 128,-1,23
 129 0 129 0 113 0 c 256,24,25
 97 0 97 0 84 7 c 128,-1,26
 71 14 71 14 71 29 c 2,27,-1
 71 701 l 2,0,1
EndSplineSet
EndChar
StartChar: H
Encoding: 72 72 44
Width: 581
Flags: W
LayerCount: 2
Back
Fore
SplineSet
426 344 m 1,0,-1
 155 344 l 1,1,-1
 155 30 l 2,2,3
 155 15 155 15 142 7.5 c 128,-1,4
 129 0 129 0 113 0 c 256,5,6
 97 0 97 0 84 7.5 c 128,-1,7
 71 15 71 15 71 30 c 2,8,-1
 71 702 l 2,9,10
 71 717 71 717 84 724 c 128,-1,11
 97 731 97 731 113 731 c 256,12,13
 129 731 129 731 142 724 c 128,-1,14
 155 717 155 717 155 702 c 2,15,-1
 155 414 l 1,16,-1
 426 414 l 1,17,-1
 426 702 l 2,18,19
 426 717 426 717 439 724 c 128,-1,20
 452 731 452 731 468 731 c 256,21,22
 484 731 484 731 497 724 c 128,-1,23
 510 717 510 717 510 702 c 2,24,-1
 510 30 l 2,25,26
 510 15 510 15 497 7.5 c 128,-1,27
 484 0 484 0 468 0 c 256,28,29
 452 0 452 0 439 7.5 c 128,-1,30
 426 15 426 15 426 30 c 2,31,-1
 426 344 l 1,0,-1
EndSplineSet
EndChar
StartChar: I
Encoding: 73 73 47
Width: 226
Flags: W
LayerCount: 2
Back
Fore
SplineSet
71 702 m 2,0,1
 71 717 71 717 84 724 c 128,-1,2
 97 731 97 731 113 731 c 256,3,4
 129 731 129 731 142 724 c 128,-1,5
 155 717 155 717 155 702 c 2,6,-1
 155 30 l 2,7,8
 155 15 155 15 142 7.5 c 128,-1,9
 129 0 129 0 113 0 c 256,10,11
 97 0 97 0 84 7.5 c 128,-1,12
 71 15 71 15 71 30 c 2,13,-1
 71 702 l 2,0,1
EndSplineSet
EndChar
StartChar: J
Encoding: 74 74 58
Width: 519
Flags: W
LayerCount: 2
Back
Fore
SplineSet
237 655 m 2,0,1
 223 655 223 655 215.5 666.5 c 128,-1,2
 208 678 208 678 208 694 c 0,3,4
 208 708 208 708 214.5 719.5 c 128,-1,5
 221 731 221 731 237 731 c 2,6,-1
 413 731 l 2,7,8
 427 731 427 731 439 723.5 c 128,-1,9
 451 716 451 716 451 701 c 2,10,-1
 451 212 l 2,11,12
 451 152 451 152 434.5 110.5 c 128,-1,13
 418 69 418 69 389 43 c 128,-1,14
 360 17 360 17 321 5.5 c 128,-1,15
 282 -6 282 -6 238 -6 c 0,16,17
 189 -6 189 -6 148.5 7.5 c 128,-1,18
 108 21 108 21 79.5 45 c 128,-1,19
 51 69 51 69 35.5 102.5 c 128,-1,20
 20 136 20 136 20 177 c 0,21,22
 20 201 20 201 31 209.5 c 128,-1,23
 42 218 42 218 62 218 c 0,24,25
 78 218 78 218 91 212 c 128,-1,26
 104 206 104 206 104 189 c 0,27,28
 104 137 104 137 137.5 103.5 c 128,-1,29
 171 70 171 70 235 70 c 0,30,31
 298 70 298 70 332.5 104.5 c 128,-1,32
 367 139 367 139 367 212 c 2,33,-1
 367 655 l 1,34,-1
 237 655 l 2,0,1
EndSplineSet
EndChar
StartChar: K
Encoding: 75 75 60
Width: 529
Flags: W
LayerCount: 2
Back
Fore
SplineSet
71 702 m 2,0,1
 71 717 71 717 84 724 c 128,-1,2
 97 731 97 731 113 731 c 256,3,4
 129 731 129 731 142 724 c 128,-1,5
 155 717 155 717 155 702 c 2,6,-1
 155 371 l 1,7,-1
 423 719 l 2,8,9
 432 731 432 731 448 731 c 256,10,11
 464 731 464 731 480 717.5 c 128,-1,12
 496 704 496 704 496 688 c 0,13,14
 496 678 496 678 489 670 c 2,15,-1
 285 415 l 1,16,-1
 523 55 l 2,17,18
 528 47 528 47 528 40 c 0,19,20
 528 23 528 23 512.5 10.5 c 128,-1,21
 497 -2 497 -2 479 -2 c 0,22,23
 459 -2 459 -2 448 15 c 2,24,-1
 229 344 l 1,25,-1
 155 251 l 1,26,-1
 155 30 l 2,27,28
 155 15 155 15 142 7.5 c 128,-1,29
 129 0 129 0 113 0 c 256,30,31
 97 0 97 0 84 7.5 c 128,-1,32
 71 15 71 15 71 30 c 2,33,-1
 71 702 l 2,0,1
EndSplineSet
EndChar
StartChar: L
Encoding: 76 76 62
Width: 468
Flags: W
LayerCount: 2
Back
Fore
SplineSet
109 0 m 2,0,1
 95 0 95 0 83 7.5 c 128,-1,2
 71 15 71 15 71 30 c 2,3,-1
 71 702 l 2,4,5
 71 717 71 717 84 724 c 128,-1,6
 97 731 97 731 113 731 c 256,7,8
 129 731 129 731 142 724 c 128,-1,9
 155 717 155 717 155 702 c 2,10,-1
 155 76 l 1,11,-1
 428 76 l 2,12,13
 442 76 442 76 448.5 64 c 128,-1,14
 455 52 455 52 455 38 c 256,15,16
 455 24 455 24 448.5 12 c 128,-1,17
 442 0 442 0 428 0 c 2,18,-1
 109 0 l 2,0,1
EndSplineSet
EndChar
StartChar: M
Encoding: 77 77 68
Width: 675
Flags: W
LayerCount: 2
Back
Fore
SplineSet
369 271 m 2,0,1
 362 258 362 258 353.5 253 c 128,-1,2
 345 248 345 248 336 248 c 0,3,4
 328 248 328 248 320 253 c 128,-1,5
 312 258 312 258 305 271 c 2,6,-1
 155 559 l 1,7,-1
 155 30 l 2,8,9
 155 15 155 15 142 7.5 c 128,-1,10
 129 0 129 0 113 0 c 256,11,12
 97 0 97 0 84 7.5 c 128,-1,13
 71 15 71 15 71 30 c 2,14,-1
 71 690 l 2,15,16
 71 713 71 713 83.5 722 c 128,-1,17
 96 731 96 731 113 731 c 0,18,19
 136 731 136 731 151 717.5 c 128,-1,20
 166 704 166 704 180 678 c 2,21,-1
 337 377 l 1,22,-1
 495 678 l 2,23,24
 509 704 509 704 524 717.5 c 128,-1,25
 539 731 539 731 562 731 c 0,26,27
 579 731 579 731 591.5 722 c 128,-1,28
 604 713 604 713 604 690 c 2,29,-1
 604 30 l 2,30,31
 604 15 604 15 591 7.5 c 128,-1,32
 578 0 578 0 562 0 c 256,33,34
 546 0 546 0 533 7.5 c 128,-1,35
 520 15 520 15 520 30 c 2,36,-1
 520 555 l 1,37,-1
 369 271 l 2,0,1
EndSplineSet
EndChar
StartChar: N
Encoding: 78 78 69
Width: 581
Flags: W
LayerCount: 2
Back
Fore
SplineSet
468 0 m 0,0,1
 451 0 451 0 437.5 10.5 c 128,-1,2
 424 21 424 21 415 38 c 2,3,-1
 155 541 l 1,4,-1
 155 30 l 2,5,6
 155 15 155 15 142 7.5 c 128,-1,7
 129 0 129 0 113 0 c 256,8,9
 97 0 97 0 84 7.5 c 128,-1,10
 71 15 71 15 71 30 c 2,11,-1
 71 702 l 2,12,13
 71 718 71 718 83.5 724.5 c 128,-1,14
 96 731 96 731 113 731 c 0,15,16
 136 731 136 731 149.5 717.5 c 128,-1,17
 163 704 163 704 177 678 c 2,18,-1
 426 191 l 1,19,-1
 426 702 l 2,20,21
 426 717 426 717 439 724 c 128,-1,22
 452 731 452 731 468 731 c 256,23,24
 484 731 484 731 497 724 c 128,-1,25
 510 717 510 717 510 702 c 2,26,-1
 510 30 l 2,27,28
 510 15 510 15 497 7.5 c 128,-1,29
 484 0 484 0 468 0 c 0,0,1
EndSplineSet
EndChar
StartChar: P
Encoding: 80 80 87
Width: 535
Flags: W
LayerCount: 2
Back
Fore
SplineSet
71 702 m 2,0,1
 71 713 71 713 80 722 c 128,-1,2
 89 731 89 731 105 731 c 2,3,-1
 294 731 l 2,4,5
 338 731 338 731 377 719.5 c 128,-1,6
 416 708 416 708 444.5 682.5 c 128,-1,7
 473 657 473 657 489.5 615.5 c 128,-1,8
 506 574 506 574 506 515 c 2,9,-1
 506 506 l 2,10,11
 506 447 506 447 489.5 406 c 128,-1,12
 473 365 473 365 443.5 339 c 128,-1,13
 414 313 414 313 374.5 301 c 128,-1,14
 335 289 335 289 290 289 c 2,15,-1
 155 289 l 1,16,-1
 155 30 l 2,17,18
 155 15 155 15 142 7.5 c 128,-1,19
 129 0 129 0 113 0 c 256,20,21
 97 0 97 0 84 7.5 c 128,-1,22
 71 15 71 15 71 30 c 2,23,-1
 71 702 l 2,0,1
155 655 m 1,24,-1
 155 359 l 1,25,-1
 290 359 l 2,26,27
 352 359 352 359 387 394 c 128,-1,28
 422 429 422 429 422 501 c 2,29,-1
 422 513 l 2,30,31
 422 586 422 586 387 620.5 c 128,-1,32
 352 655 352 655 290 655 c 2,33,-1
 155 655 l 1,24,-1
EndSplineSet
EndChar
StartChar: Q
Encoding: 81 81 88
Width: 559
Flags: W
LayerCount: 2
Back
Fore
SplineSet
280 -109 m 256,0,1
 269 -109 269 -109 259.5 -101.5 c 128,-1,2
 250 -94 250 -94 250 -79 c 2,3,-1
 250 -4 l 1,4,5
 210 -1 210 -1 176 12.5 c 128,-1,6
 142 26 142 26 117 52 c 128,-1,7
 92 78 92 78 78 117.5 c 128,-1,8
 64 157 64 157 64 212 c 2,9,-1
 64 513 l 2,10,11
 64 573 64 573 80.5 614.5 c 128,-1,12
 97 656 97 656 126 682 c 128,-1,13
 155 708 155 708 194.5 719.5 c 128,-1,14
 234 731 234 731 279 731 c 256,15,16
 324 731 324 731 363.5 719.5 c 128,-1,17
 403 708 403 708 432.5 682 c 128,-1,18
 462 656 462 656 478.5 614.5 c 128,-1,19
 495 573 495 573 495 513 c 2,20,-1
 495 212 l 2,21,22
 495 157 495 157 481 117.5 c 128,-1,23
 467 78 467 78 442 52 c 128,-1,24
 417 26 417 26 383.5 12.5 c 128,-1,25
 350 -1 350 -1 310 -4 c 1,26,-1
 310 -79 l 2,27,28
 310 -94 310 -94 300.5 -101.5 c 128,-1,29
 291 -109 291 -109 280 -109 c 256,0,1
411 513 m 2,30,31
 411 586 411 586 376 620.5 c 128,-1,32
 341 655 341 655 279 655 c 256,33,34
 217 655 217 655 182.5 620.5 c 128,-1,35
 148 586 148 586 148 513 c 2,36,-1
 148 212 l 2,37,38
 148 149 148 149 174.5 115.5 c 128,-1,39
 201 82 201 82 250 74 c 1,40,-1
 250 142 l 2,41,42
 250 157 250 157 259.5 164 c 128,-1,43
 269 171 269 171 280 171 c 256,44,45
 291 171 291 171 300.5 164 c 128,-1,46
 310 157 310 157 310 142 c 2,47,-1
 310 75 l 1,48,49
 358 82 358 82 384.5 115.5 c 128,-1,50
 411 149 411 149 411 212 c 2,51,-1
 411 513 l 2,30,31
EndSplineSet
EndChar
StartChar: R
Encoding: 82 82 89
Width: 543
Flags: W
LayerCount: 2
Back
Fore
SplineSet
71 702 m 2,0,1
 71 713 71 713 79 721.5 c 128,-1,2
 87 730 87 730 101 731 c 2,3,-1
 284 731 l 2,4,5
 329 731 329 731 369.5 721 c 128,-1,6
 410 711 410 711 440.5 688 c 128,-1,7
 471 665 471 665 488.5 626.5 c 128,-1,8
 506 588 506 588 506 531 c 0,9,10
 506 485 506 485 494.5 451.5 c 128,-1,11
 483 418 483 418 463 394.5 c 128,-1,12
 443 371 443 371 415.5 356.5 c 128,-1,13
 388 342 388 342 357 336 c 1,14,-1
 505 55 l 2,15,16
 509 48 509 48 509 41 c 0,17,18
 509 24 509 24 493 11 c 128,-1,19
 477 -2 477 -2 459 -2 c 0,20,21
 446 -2 446 -2 437 8 c 128,-1,22
 428 18 428 18 421 31 c 2,23,-1
 270 324 l 1,24,-1
 155 324 l 1,25,-1
 155 30 l 2,26,27
 155 15 155 15 142 7.5 c 128,-1,28
 129 0 129 0 113 0 c 256,29,30
 97 0 97 0 84 7.5 c 128,-1,31
 71 15 71 15 71 30 c 2,32,-1
 71 702 l 2,0,1
155 655 m 1,33,-1
 155 394 l 1,34,-1
 284 394 l 2,35,36
 346 394 346 394 384 424 c 128,-1,37
 422 454 422 454 422 525 c 0,38,39
 422 595 422 595 384 625 c 128,-1,40
 346 655 346 655 284 655 c 2,41,-1
 155 655 l 1,33,-1
EndSplineSet
EndChar
StartChar: S
Encoding: 83 83 93
Width: 502
Flags: W
LayerCount: 2
Back
Fore
SplineSet
241 70 m 0,0,1
 304 70 304 70 342 100.5 c 128,-1,2
 380 131 380 131 380 194 c 0,3,4
 380 244 380 244 355.5 273 c 128,-1,5
 331 302 331 302 294.5 321 c 128,-1,6
 258 340 258 340 215.5 355 c 128,-1,7
 173 370 173 370 136.5 392.5 c 128,-1,8
 100 415 100 415 75.5 450.5 c 128,-1,9
 51 486 51 486 51 547 c 0,10,11
 51 602 51 602 71.5 638 c 128,-1,12
 92 674 92 674 124 695 c 128,-1,13
 156 716 156 716 195 724.5 c 128,-1,14
 234 733 234 733 271 733 c 0,15,16
 298 733 298 733 328.5 729 c 128,-1,17
 359 725 359 725 385 717 c 128,-1,18
 411 709 411 709 428.5 696.5 c 128,-1,19
 446 684 446 684 446 667 c 0,20,21
 446 655 446 655 436.5 638 c 128,-1,22
 427 621 427 621 410 621 c 0,23,24
 401 621 401 621 390.5 627 c 128,-1,25
 380 633 380 633 364.5 640 c 128,-1,26
 349 647 349 647 326.5 653 c 128,-1,27
 304 659 304 659 271 659 c 0,28,29
 243 659 243 659 218.5 653.5 c 128,-1,30
 194 648 194 648 175.5 636 c 128,-1,31
 157 624 157 624 146 604 c 128,-1,32
 135 584 135 584 135 555 c 0,33,34
 135 513 135 513 159.5 489 c 128,-1,35
 184 465 184 465 220.5 448.5 c 128,-1,36
 257 432 257 432 299.5 417 c 128,-1,37
 342 402 342 402 378.5 377 c 128,-1,38
 415 352 415 352 439.5 311 c 128,-1,39
 464 270 464 270 464 202 c 0,40,41
 464 148 464 148 447.5 108.5 c 128,-1,42
 431 69 431 69 402 43 c 128,-1,43
 373 17 373 17 333 4.5 c 128,-1,44
 293 -8 293 -8 245 -8 c 256,45,46
 197 -8 197 -8 157.5 3.5 c 128,-1,47
 118 15 118 15 90.5 32.5 c 128,-1,48
 63 50 63 50 48 69.5 c 128,-1,49
 33 89 33 89 33 105 c 0,50,51
 33 120 33 120 44.5 135.5 c 128,-1,52
 56 151 56 151 70 151 c 0,53,54
 81 151 81 151 92.5 138.5 c 128,-1,55
 104 126 104 126 122.5 110.5 c 128,-1,56
 141 95 141 95 169 82.5 c 128,-1,57
 197 70 197 70 241 70 c 0,0,1
EndSplineSet
EndChar
StartChar: T
Encoding: 84 84 99
Width: 494
Flags: W
LayerCount: 2
Back
Fore
SplineSet
450 731 m 2,0,1
 465 731 465 731 472.5 719 c 128,-1,2
 480 707 480 707 480 693 c 0,3,4
 480 678 480 678 472.5 665.5 c 128,-1,5
 465 653 465 653 450 653 c 2,6,-1
 289 653 l 1,7,-1
 289 30 l 2,8,9
 289 15 289 15 276 7.5 c 128,-1,10
 263 0 263 0 247 0 c 256,11,12
 231 0 231 0 218 7.5 c 128,-1,13
 205 15 205 15 205 30 c 2,14,-1
 205 653 l 1,15,-1
 43 653 l 2,16,17
 29 653 29 653 21 665 c 128,-1,18
 13 677 13 677 13 693 c 0,19,20
 13 707 13 707 20.5 719 c 128,-1,21
 28 731 28 731 43 731 c 2,22,-1
 450 731 l 2,0,1
EndSplineSet
EndChar
StartChar: U
Encoding: 85 85 104
Width: 573
Flags: W
LayerCount: 2
Back
Fore
SplineSet
421 702 m 2,0,1
 421 717 421 717 433.5 724 c 128,-1,2
 446 731 446 731 463 731 c 0,3,4
 478 731 478 731 491.5 724 c 128,-1,5
 505 717 505 717 505 702 c 2,6,-1
 505 212 l 2,7,8
 505 152 505 152 488 110.5 c 128,-1,9
 471 69 471 69 441.5 43 c 128,-1,10
 412 17 412 17 372 5.5 c 128,-1,11
 332 -6 332 -6 286 -6 c 256,12,13
 240 -6 240 -6 200 5.5 c 128,-1,14
 160 17 160 17 131 43 c 128,-1,15
 102 69 102 69 85 110.5 c 128,-1,16
 68 152 68 152 68 212 c 2,17,-1
 68 702 l 2,18,19
 68 717 68 717 81 724 c 128,-1,20
 94 731 94 731 110 731 c 256,21,22
 126 731 126 731 139 724 c 128,-1,23
 152 717 152 717 152 702 c 2,24,-1
 152 212 l 2,25,26
 152 139 152 139 187.5 104.5 c 128,-1,27
 223 70 223 70 286 70 c 256,28,29
 349 70 349 70 385 104.5 c 128,-1,30
 421 139 421 139 421 212 c 2,31,-1
 421 702 l 2,0,1
EndSplineSet
EndChar
StartChar: V
Encoding: 86 86 115
Width: 549
Flags: W
LayerCount: 2
Back
Fore
SplineSet
19 688 m 2,0,1
 17 694 17 694 17 696 c 0,2,3
 17 712 17 712 34 721.5 c 128,-1,4
 51 731 51 731 68 731 c 0,5,6
 93 731 93 731 99 712 c 2,7,-1
 275 118 l 1,8,-1
 450 712 l 2,9,10
 457 731 457 731 480 731 c 0,11,12
 498 731 498 731 515 720.5 c 128,-1,13
 532 710 532 710 532 695 c 0,14,15
 532 693 532 693 531.5 691.5 c 128,-1,16
 531 690 531 690 531 688 c 2,17,-1
 328 23 l 2,18,19
 323 9 323 9 308 1.5 c 128,-1,20
 293 -6 293 -6 275 -6 c 0,21,22
 258 -6 258 -6 243.5 1 c 128,-1,23
 229 8 229 8 224 23 c 2,24,-1
 19 688 l 2,0,1
EndSplineSet
EndChar
StartChar: W
Encoding: 87 87 116
Width: 813
Flags: W
LayerCount: 2
Back
Fore
SplineSet
597 23 m 2,0,1
 592 9 592 9 577 1.5 c 128,-1,2
 562 -6 562 -6 545 -6 c 256,3,4
 528 -6 528 -6 512.5 1 c 128,-1,5
 497 8 497 8 493 23 c 2,6,-1
 407 353 l 1,7,-1
 320 23 l 2,8,9
 316 9 316 9 301 1.5 c 128,-1,10
 286 -6 286 -6 269 -6 c 0,11,12
 251 -6 251 -6 236.5 1 c 128,-1,13
 222 8 222 8 217 23 c 2,14,-1
 19 688 l 2,15,16
 18 690 18 690 17.5 692 c 128,-1,17
 17 694 17 694 17 697 c 0,18,19
 17 712 17 712 34 721.5 c 128,-1,20
 51 731 51 731 68 731 c 0,21,22
 79 731 79 731 87.5 726.5 c 128,-1,23
 96 722 96 722 99 712 c 2,24,-1
 268 118 l 1,25,-1
 363 484 l 2,26,27
 367 498 367 498 379.5 504 c 128,-1,28
 392 510 392 510 407 510 c 0,29,30
 421 510 421 510 433 504 c 128,-1,31
 445 498 445 498 449 484 c 2,32,-1
 545 118 l 1,33,-1
 713 712 l 2,34,35
 716 722 716 722 725 726.5 c 128,-1,36
 734 731 734 731 745 731 c 0,37,38
 762 731 762 731 778.5 721.5 c 128,-1,39
 795 712 795 712 795 697 c 0,40,41
 795 691 795 691 794 688 c 2,42,-1
 597 23 l 2,0,1
EndSplineSet
EndChar
StartChar: X
Encoding: 88 88 121
Width: 505
Flags: W
LayerCount: 2
Back
Fore
SplineSet
252 299 m 1,0,-1
 105 26 l 2,1,2
 100 16 100 16 92 7 c 128,-1,3
 84 -2 84 -2 73 -2 c 0,4,5
 56 -2 56 -2 38 10 c 128,-1,6
 20 22 20 22 20 39 c 0,7,8
 20 48 20 48 26 57 c 2,9,-1
 198 366 l 1,10,-1
 30 673 l 2,11,12
 23 684 23 684 23 695 c 0,13,14
 23 712 23 712 39 722.5 c 128,-1,15
 55 733 55 733 74 733 c 0,16,17
 87 733 87 733 96 723 c 128,-1,18
 105 713 105 713 111 701 c 2,19,-1
 252 435 l 1,20,-1
 394 701 l 2,21,22
 400 713 400 713 409 723 c 128,-1,23
 418 733 418 733 431 733 c 0,24,25
 450 733 450 733 466 722.5 c 128,-1,26
 482 712 482 712 482 695 c 0,27,28
 482 684 482 684 475 673 c 2,29,-1
 306 366 l 1,30,-1
 479 57 l 2,31,32
 485 48 485 48 485 39 c 0,33,34
 485 22 485 22 467 10 c 128,-1,35
 449 -2 449 -2 432 -2 c 0,36,37
 421 -2 421 -2 413 7 c 128,-1,38
 405 16 405 16 400 26 c 2,39,-1
 252 299 l 1,0,-1
EndSplineSet
EndChar
StartChar: Y
Encoding: 89 89 122
Width: 545
Flags: W
LayerCount: 2
Back
Fore
SplineSet
231 283 m 2,0,1
 231 288 231 288 228 293 c 2,2,-1
 21 679 l 2,3,4
 17 688 17 688 17 696 c 0,5,6
 17 712 17 712 34 721.5 c 128,-1,7
 51 731 51 731 67 731 c 0,8,9
 78 731 78 731 84.5 725.5 c 128,-1,10
 91 720 91 720 97 709 c 2,11,-1
 273 366 l 1,12,-1
 448 709 l 2,13,14
 460 731 460 731 478 731 c 0,15,16
 495 731 495 731 511.5 721.5 c 128,-1,17
 528 712 528 712 528 696 c 0,18,19
 528 688 528 688 524 679 c 2,20,-1
 317 293 l 2,21,22
 315 290 315 290 315 283 c 2,23,-1
 315 30 l 2,24,25
 315 15 315 15 302 7.5 c 128,-1,26
 289 0 289 0 273 0 c 256,27,28
 257 0 257 0 244 7.5 c 128,-1,29
 231 15 231 15 231 30 c 2,30,-1
 231 283 l 2,0,1
EndSplineSet
EndChar
StartChar: Z
Encoding: 90 90 127
Width: 495
Flags: W
LayerCount: 2
Back
Fore
SplineSet
129 76 m 1,0,-1
 445 76 l 2,1,2
 459 76 459 76 467 64 c 128,-1,3
 475 52 475 52 475 38 c 256,4,5
 475 24 475 24 467 12 c 128,-1,6
 459 0 459 0 445 0 c 2,7,-1
 50 0 l 2,8,9
 36 0 36 0 28.5 7.5 c 128,-1,10
 21 15 21 15 21 27 c 0,11,12
 21 40 21 40 29 56 c 2,13,-1
 352 655 l 1,14,-1
 64 655 l 2,15,16
 50 655 50 655 42.5 666.5 c 128,-1,17
 35 678 35 678 35 693 c 0,18,19
 35 707 35 707 42 719 c 128,-1,20
 49 731 49 731 64 731 c 2,21,-1
 432 731 l 2,22,23
 461 731 461 731 461 706 c 0,24,25
 461 692 461 692 451 674 c 2,26,-1
 129 76 l 1,0,-1
EndSplineSet
EndChar
StartChar: bracketleft
Encoding: 91 91 161
Width: 314
Flags: W
LayerCount: 2
Back
Fore
SplineSet
149 54 m 1,0,-1
 267 54 l 2,1,2
 281 54 281 54 288.5 43 c 128,-1,3
 296 32 296 32 296 16 c 0,4,5
 296 2 296 2 288.5 -9.5 c 128,-1,6
 281 -21 281 -21 267 -21 c 2,7,-1
 103 -21 l 2,8,9
 89 -21 89 -21 77 -13.5 c 128,-1,10
 65 -6 65 -6 65 8 c 2,11,-1
 65 739 l 2,12,13
 65 753 65 753 77 760.5 c 128,-1,14
 89 768 89 768 103 768 c 2,15,-1
 267 768 l 2,16,17
 281 768 281 768 288.5 756.5 c 128,-1,18
 296 745 296 745 296 731 c 0,19,20
 296 715 296 715 288.5 704 c 128,-1,21
 281 693 281 693 267 693 c 2,22,-1
 149 693 l 1,23,-1
 149 54 l 1,0,-1
EndSplineSet
EndChar
StartChar: backslash
Encoding: 92 92 157
Width: 351
Flags: W
LayerCount: 2
Back
Fore
SplineSet
23 712 m 2,0,1
 21 716 21 716 21 723 c 0,2,3
 21 736 21 736 31 745 c 128,-1,4
 41 754 41 754 55 754 c 0,5,6
 63 754 63 754 70.5 750 c 128,-1,7
 78 746 78 746 81 737 c 2,8,-1
 328 39 l 2,9,10
 330 36 330 36 330 30 c 0,11,12
 330 18 330 18 320.5 9 c 128,-1,13
 311 0 311 0 297 0 c 0,14,15
 288 0 288 0 280 5 c 128,-1,16
 272 10 272 10 269 20 c 2,17,-1
 23 712 l 2,0,1
EndSplineSet
EndChar
StartChar: bracketright
Encoding: 93 93 162
Width: 314
Flags: W
LayerCount: 2
Back
Fore
SplineSet
165 693 m 1,0,-1
 47 693 l 2,1,2
 33 693 33 693 25.5 704 c 128,-1,3
 18 715 18 715 18 731 c 0,4,5
 18 745 18 745 25.5 756.5 c 128,-1,6
 33 768 33 768 47 768 c 2,7,-1
 211 768 l 2,8,9
 225 768 225 768 237 760.5 c 128,-1,10
 249 753 249 753 249 739 c 2,11,-1
 249 8 l 2,12,13
 249 -6 249 -6 237 -13.5 c 128,-1,14
 225 -21 225 -21 211 -21 c 2,15,-1
 47 -21 l 2,16,17
 33 -21 33 -21 25.5 -9.5 c 128,-1,18
 18 2 18 2 18 16 c 0,19,20
 18 32 18 32 25.5 43 c 128,-1,21
 33 54 33 54 47 54 c 2,22,-1
 165 54 l 1,23,-1
 165 693 l 1,0,-1
EndSplineSet
EndChar
StartChar: asciicircum
Encoding: 94 94 150
Width: 273
Flags: W
LayerCount: 2
Back
Fore
SplineSet
32 591 m 2,0,1
 27 588 27 588 23 588 c 0,2,3
 14 588 14 588 7 597 c 128,-1,4
 0 606 0 606 0 617 c 0,5,6
 0 625 0 625 3.5 632 c 128,-1,7
 7 639 7 639 15 643 c 2,8,-1
 119 699 l 2,9,10
 129 704 129 704 136 704 c 0,11,12
 145 704 145 704 153 699 c 2,13,-1
 257 644 l 2,14,15
 273 635 273 635 273 616 c 0,16,17
 273 605 273 605 266.5 596.5 c 128,-1,18
 260 588 260 588 250 588 c 0,19,20
 248 588 248 588 245.5 589 c 128,-1,21
 243 590 243 590 240 591 c 2,22,-1
 136 647 l 1,23,-1
 32 591 l 2,0,1
EndSplineSet
EndChar
StartChar: underscore
Encoding: 95 95 392
Width: 330
Flags: W
LayerCount: 2
Back
Fore
SplineSet
-24 -36 m 0,0,1
 -24 -21 -24 -21 -16.5 -10.5 c 128,-1,2
 -9 0 -9 0 5 0 c 2,3,-1
 325 0 l 2,4,5
 336 0 336 0 345.5 -10.5 c 128,-1,6
 355 -21 355 -21 355 -36 c 0,7,8
 355 -52 355 -52 345.5 -61.5 c 128,-1,9
 336 -71 336 -71 325 -71 c 2,10,-1
 5 -71 l 2,11,12
 -9 -71 -9 -71 -16.5 -61.5 c 128,-1,13
 -24 -52 -24 -52 -24 -36 c 0,0,1
EndSplineSet
EndChar
StartChar: grave
Encoding: 96 96 235
Width: 168
Flags: W
LayerCount: 2
Back
Fore
SplineSet
14 646 m 2,0,1
 6 650 6 650 3 656.5 c 128,-1,2
 0 663 0 663 0 670 c 0,3,4
 0 682 0 682 8 693 c 128,-1,5
 16 704 16 704 28 704 c 0,6,7
 32 704 32 704 38 702 c 2,8,-1
 155 640 l 2,9,10
 168 633 168 633 168 618 c 0,11,12
 168 606 168 606 159.5 595 c 128,-1,13
 151 584 151 584 138 584 c 0,14,15
 135 584 135 584 127 588 c 2,16,-1
 14 646 l 2,0,1
EndSplineSet
EndChar
StartChar: b
Encoding: 98 98 155
Width: 494
Flags: W
LayerCount: 2
Back
Fore
SplineSet
101 760 m 0,0,1
 118 760 118 760 130.5 752 c 128,-1,2
 143 744 143 744 143 731 c 2,3,-1
 143 404 l 1,4,5
 160 433 160 433 193 456.5 c 128,-1,6
 226 480 226 480 274 480 c 0,7,8
 311 480 311 480 343.5 465 c 128,-1,9
 376 450 376 450 400.5 423.5 c 128,-1,10
 425 397 425 397 439 362 c 128,-1,11
 453 327 453 327 453 288 c 2,12,-1
 453 186 l 2,13,14
 453 148 453 148 438.5 113 c 128,-1,15
 424 78 424 78 400 51 c 128,-1,16
 376 24 376 24 344 8 c 128,-1,17
 312 -8 312 -8 277 -8 c 0,18,19
 229 -8 229 -8 192 15.5 c 128,-1,20
 155 39 155 39 139 70 c 1,21,-1
 139 30 l 2,22,23
 139 19 139 19 128 9.5 c 128,-1,24
 117 0 117 0 101 0 c 0,25,26
 83 0 83 0 71.5 9.5 c 128,-1,27
 60 19 60 19 60 30 c 2,28,-1
 60 731 l 2,29,30
 60 744 60 744 71.5 752 c 128,-1,31
 83 760 83 760 101 760 c 0,0,1
370 288 m 2,32,33
 370 310 370 310 361 331 c 128,-1,34
 352 352 352 352 336.5 368.5 c 128,-1,35
 321 385 321 385 300.5 395 c 128,-1,36
 280 405 280 405 256 405 c 0,37,38
 235 405 235 405 214.5 397 c 128,-1,39
 194 389 194 389 178.5 374 c 128,-1,40
 163 359 163 359 153 337 c 128,-1,41
 143 315 143 315 143 288 c 2,42,-1
 143 159 l 2,43,44
 143 149 143 149 151.5 133.5 c 128,-1,45
 160 118 160 118 175.5 103 c 128,-1,46
 191 88 191 88 212 77.5 c 128,-1,47
 233 67 233 67 257 67 c 0,48,49
 280 67 280 67 300.5 77 c 128,-1,50
 321 87 321 87 336.5 104 c 128,-1,51
 352 121 352 121 361 142 c 128,-1,52
 370 163 370 163 370 186 c 2,53,-1
 370 288 l 2,32,33
EndSplineSet
Substitution2: "'ss02' Style Set 2 in Latin lookup 4 subtable" b.ss02
Substitution2: "'salt' Stylistic Alternatives in Latin lookup 2 subtable" b.ss02
Substitution2: "'aalt' Access All Alternates in Latin lookup 0 subtable" b.ss02
EndChar
StartChar: d
Encoding: 100 100 182
Width: 494
Flags: W
LayerCount: 2
Back
Fore
SplineSet
393 760 m 0,0,1
 411 760 411 760 422.5 752 c 128,-1,2
 434 744 434 744 434 731 c 2,3,-1
 434 30 l 2,4,5
 434 19 434 19 422.5 9.5 c 128,-1,6
 411 0 411 0 393 0 c 0,7,8
 377 0 377 0 366 9.5 c 128,-1,9
 355 19 355 19 355 30 c 2,10,-1
 355 70 l 1,11,12
 339 39 339 39 302 15.5 c 128,-1,13
 265 -8 265 -8 217 -8 c 0,14,15
 182 -8 182 -8 150 8 c 128,-1,16
 118 24 118 24 94 51 c 128,-1,17
 70 78 70 78 55.5 113 c 128,-1,18
 41 148 41 148 41 186 c 2,19,-1
 41 288 l 2,20,21
 41 327 41 327 55 362 c 128,-1,22
 69 397 69 397 93.5 423.5 c 128,-1,23
 118 450 118 450 150.5 465 c 128,-1,24
 183 480 183 480 220 480 c 0,25,26
 268 480 268 480 301 456.5 c 128,-1,27
 334 433 334 433 351 404 c 1,28,-1
 351 731 l 2,29,30
 351 744 351 744 363.5 752 c 128,-1,31
 376 760 376 760 393 760 c 0,0,1
124 186 m 2,32,33
 124 163 124 163 133 142 c 128,-1,34
 142 121 142 121 157.5 104 c 128,-1,35
 173 87 173 87 193.5 77 c 128,-1,36
 214 67 214 67 237 67 c 0,37,38
 261 67 261 67 282 77.5 c 128,-1,39
 303 88 303 88 318.5 103 c 128,-1,40
 334 118 334 118 342.5 133.5 c 128,-1,41
 351 149 351 149 351 159 c 2,42,-1
 351 288 l 2,43,44
 351 315 351 315 341 337 c 128,-1,45
 331 359 331 359 315.5 374 c 128,-1,46
 300 389 300 389 279.5 397 c 128,-1,47
 259 405 259 405 238 405 c 0,48,49
 214 405 214 405 193.5 395 c 128,-1,50
 173 385 173 385 157.5 368.5 c 128,-1,51
 142 352 142 352 133 331 c 128,-1,52
 124 310 124 310 124 288 c 2,53,-1
 124 186 l 2,32,33
EndSplineSet
EndChar
StartChar: f
Encoding: 102 102 216
Width: 315
Flags: W
LayerCount: 2
Back
Fore
SplineSet
143 474 m 1,0,-1
 280 474 l 2,1,2
 292 474 292 474 299 464 c 128,-1,3
 306 454 306 454 306 441 c 256,4,5
 306 428 306 428 299 418.5 c 128,-1,6
 292 409 292 409 280 409 c 2,7,-1
 143 409 l 1,8,-1
 143 29 l 2,9,10
 143 16 143 16 130 8 c 128,-1,11
 117 0 117 0 100 0 c 256,12,13
 83 0 83 0 71.5 8 c 128,-1,14
 60 16 60 16 60 29 c 2,15,-1
 60 573 l 2,16,17
 60 612 60 612 74 646 c 128,-1,18
 88 680 88 680 112.5 705.5 c 128,-1,19
 137 731 137 731 169 745.5 c 128,-1,20
 201 760 201 760 237 760 c 2,21,-1
 272 760 l 2,22,23
 289 760 289 760 297.5 748.5 c 128,-1,24
 306 737 306 737 306 723 c 256,25,26
 306 709 306 709 297.5 698 c 128,-1,27
 289 687 289 687 272 687 c 2,28,-1
 251 687 l 2,29,30
 228 687 228 687 208 678.5 c 128,-1,31
 188 670 188 670 174 655.5 c 128,-1,32
 160 641 160 641 151.5 621.5 c 128,-1,33
 143 602 143 602 143 580 c 2,34,-1
 143 474 l 1,0,-1
EndSplineSet
EndChar
StartChar: h
Encoding: 104 104 242
Width: 504
Flags: W
LayerCount: 2
Back
Fore
SplineSet
143 30 m 2,0,1
 143 19 143 19 130.5 9.5 c 128,-1,2
 118 0 118 0 101 0 c 0,3,4
 83 0 83 0 71.5 9.5 c 128,-1,5
 60 19 60 19 60 30 c 2,6,-1
 60 731 l 2,7,8
 60 744 60 744 71.5 752 c 128,-1,9
 83 760 83 760 101 760 c 0,10,11
 118 760 118 760 130.5 752 c 128,-1,12
 143 744 143 744 143 731 c 2,13,-1
 143 404 l 1,14,15
 158 433 158 433 191 456.5 c 128,-1,16
 224 480 224 480 273 480 c 0,17,18
 309 480 309 480 341 465 c 128,-1,19
 373 450 373 450 397 423.5 c 128,-1,20
 421 397 421 397 435 362 c 128,-1,21
 449 327 449 327 449 288 c 2,22,-1
 449 30 l 2,23,24
 449 15 449 15 436 7.5 c 128,-1,25
 423 0 423 0 407 0 c 0,26,27
 393 0 393 0 379.5 7.5 c 128,-1,28
 366 15 366 15 366 30 c 2,29,-1
 366 288 l 2,30,31
 366 310 366 310 357 331 c 128,-1,32
 348 352 348 352 332.5 368.5 c 128,-1,33
 317 385 317 385 296 395 c 128,-1,34
 275 405 275 405 252 405 c 0,35,36
 232 405 232 405 212.5 397 c 128,-1,37
 193 389 193 389 177.5 374 c 128,-1,38
 162 359 162 359 152.5 337 c 128,-1,39
 143 315 143 315 143 288 c 2,40,-1
 143 30 l 2,0,1
EndSplineSet
EndChar
StartChar: i
Encoding: 105 105 247
Width: 201
Flags: W
LayerCount: 2
Back
Fore
SplineSet
100 474 m 256,0,1
 117 474 117 474 129.5 466 c 128,-1,2
 142 458 142 458 142 445 c 2,3,-1
 142 30 l 2,4,5
 142 19 142 19 129.5 9.5 c 128,-1,6
 117 0 117 0 100 0 c 256,7,8
 83 0 83 0 71 9.5 c 128,-1,9
 59 19 59 19 59 30 c 2,10,-1
 59 445 l 2,11,12
 59 458 59 458 71 466 c 128,-1,13
 83 474 83 474 100 474 c 256,0,1
100 699 m 0,14,15
 121 699 121 699 136 685 c 128,-1,16
 151 671 151 671 151 652 c 256,17,18
 151 633 151 633 136 618.5 c 128,-1,19
 121 604 121 604 100 604 c 0,20,21
 78 604 78 604 63 618.5 c 128,-1,22
 48 633 48 633 48 652 c 256,23,24
 48 671 48 671 63 685 c 128,-1,25
 78 699 78 699 100 699 c 0,14,15
EndSplineSet
EndChar
StartChar: j
Encoding: 106 106 259
Width: 203
Flags: W
LayerCount: 2
Back
Fore
SplineSet
101 699 m 0,0,1
 122 699 122 699 137 685 c 128,-1,2
 152 671 152 671 152 652 c 256,3,4
 152 633 152 633 137 618.5 c 128,-1,5
 122 604 122 604 101 604 c 0,6,7
 79 604 79 604 64 618.5 c 128,-1,8
 49 633 49 633 49 652 c 256,9,10
 49 671 49 671 64 685 c 128,-1,11
 79 699 79 699 101 699 c 0,0,1
101 474 m 0,12,13
 118 474 118 474 130.5 466 c 128,-1,14
 143 458 143 458 143 445 c 2,15,-1
 143 -40 l 2,16,17
 143 -82 143 -82 135 -116.5 c 128,-1,18
 127 -151 127 -151 110.5 -176 c 128,-1,19
 94 -201 94 -201 68 -215 c 128,-1,20
 42 -229 42 -229 6 -229 c 0,21,22
 -18 -229 -18 -229 -27.5 -218 c 128,-1,23
 -37 -207 -37 -207 -37 -193 c 0,24,25
 -37 -176 -37 -176 -27 -166 c 128,-1,26
 -17 -156 -17 -156 -3 -156 c 0,27,28
 18 -156 18 -156 30.5 -147.5 c 128,-1,29
 43 -139 43 -139 49.5 -123.5 c 128,-1,30
 56 -108 56 -108 58 -86.5 c 128,-1,31
 60 -65 60 -65 60 -40 c 2,32,-1
 60 445 l 2,33,34
 60 458 60 458 71.5 466 c 128,-1,35
 83 474 83 474 101 474 c 0,12,13
EndSplineSet
EndChar
StartChar: k
Encoding: 107 107 261
Width: 467
Flags: W
LayerCount: 2
Back
Fore
SplineSet
283 294 m 1,0,-1
 449 53 l 2,1,2
 454 45 454 45 454 38 c 0,3,4
 454 23 454 23 439 9.5 c 128,-1,5
 424 -4 424 -4 408 -4 c 0,6,7
 394 -4 394 -4 385 9 c 2,8,-1
 226 242 l 1,9,-1
 143 168 l 1,10,-1
 143 30 l 2,11,12
 143 19 143 19 130.5 9.5 c 128,-1,13
 118 0 118 0 101 0 c 0,14,15
 83 0 83 0 71.5 9.5 c 128,-1,16
 60 19 60 19 60 30 c 2,17,-1
 60 731 l 2,18,19
 60 744 60 744 71.5 752 c 128,-1,20
 83 760 83 760 101 760 c 0,21,22
 118 760 118 760 130.5 752 c 128,-1,23
 143 744 143 744 143 731 c 2,24,-1
 143 263 l 1,25,-1
 371 469 l 2,26,27
 380 476 380 476 389 476 c 0,28,29
 403 476 403 476 417 464 c 128,-1,30
 431 452 431 452 431 437 c 0,31,32
 431 425 431 425 422 417 c 2,33,-1
 283 294 l 1,0,-1
EndSplineSet
EndChar
StartChar: l
Encoding: 108 108 264
Width: 219
Flags: W
LayerCount: 2
Back
Fore
SplineSet
109 760 m 0,0,1
 126 760 126 760 138.5 752 c 128,-1,2
 151 744 151 744 151 731 c 2,3,-1
 151 30 l 2,4,5
 151 19 151 19 138.5 9.5 c 128,-1,6
 126 0 126 0 109 0 c 0,7,8
 91 0 91 0 79.5 9.5 c 128,-1,9
 68 19 68 19 68 30 c 2,10,-1
 68 731 l 2,11,12
 68 744 68 744 79.5 752 c 128,-1,13
 91 760 91 760 109 760 c 0,0,1
EndSplineSet
EndChar
StartChar: m
Encoding: 109 109 274
Width: 786
Flags: W
LayerCount: 2
Back
Fore
SplineSet
353 290 m 2,0,1
 353 315 353 315 344.5 336.5 c 128,-1,2
 336 358 336 358 322 373 c 128,-1,3
 308 388 308 388 289 396.5 c 128,-1,4
 270 405 270 405 249 405 c 0,5,6
 229 405 229 405 210 397.5 c 128,-1,7
 191 390 191 390 176 375 c 128,-1,8
 161 360 161 360 151.5 338 c 128,-1,9
 142 316 142 316 142 288 c 2,10,-1
 142 30 l 2,11,12
 142 19 142 19 129.5 9.5 c 128,-1,13
 117 0 117 0 100 0 c 0,14,15
 82 0 82 0 70.5 9.5 c 128,-1,16
 59 19 59 19 59 30 c 2,17,-1
 59 445 l 2,18,19
 59 458 59 458 70.5 466 c 128,-1,20
 82 474 82 474 100 474 c 0,21,22
 116 474 116 474 127 466 c 128,-1,23
 138 458 138 458 138 445 c 2,24,-1
 138 404 l 1,25,26
 155 433 155 433 188 456.5 c 128,-1,27
 221 480 221 480 271 480 c 0,28,29
 319 480 319 480 355 452.5 c 128,-1,30
 391 425 391 425 408 380 c 1,31,32
 434 431 434 431 475 455.5 c 128,-1,33
 516 480 516 480 560 480 c 0,34,35
 593 480 593 480 624 467 c 128,-1,36
 655 454 655 454 678.5 429.5 c 128,-1,37
 702 405 702 405 716.5 369.5 c 128,-1,38
 731 334 731 334 731 288 c 2,39,-1
 731 30 l 2,40,41
 731 19 731 19 718.5 9.5 c 128,-1,42
 706 0 706 0 689 0 c 256,43,44
 672 0 672 0 660 9.5 c 128,-1,45
 648 19 648 19 648 30 c 2,46,-1
 648 288 l 2,47,48
 648 317 648 317 639 339 c 128,-1,49
 630 361 630 361 615 375.5 c 128,-1,50
 600 390 600 390 581 397.5 c 128,-1,51
 562 405 562 405 543 405 c 0,52,53
 523 405 523 405 504 397 c 128,-1,54
 485 389 485 389 470 374 c 128,-1,55
 455 359 455 359 445.5 338 c 128,-1,56
 436 317 436 317 436 291 c 2,57,-1
 436 29 l 2,58,59
 436 14 436 14 423 7 c 128,-1,60
 410 0 410 0 394 0 c 0,61,62
 380 0 380 0 366.5 7 c 128,-1,63
 353 14 353 14 353 29 c 2,64,-1
 353 290 l 2,0,1
EndSplineSet
Substitution2: "'ss04' Style Set 4 in Latin lookup 6 subtable" m.ss04
Substitution2: "'salt' Stylistic Alternatives in Latin lookup 2 subtable" m.ss04
Substitution2: "'aalt' Access All Alternates in Latin lookup 0 subtable" m.ss04
EndChar
StartChar: n
Encoding: 110 110 280
Width: 503
Flags: W
LayerCount: 2
Back
Fore
SplineSet
142 30 m 2,0,1
 142 19 142 19 129.5 9.5 c 128,-1,2
 117 0 117 0 100 0 c 0,3,4
 82 0 82 0 70.5 9.5 c 128,-1,5
 59 19 59 19 59 30 c 2,6,-1
 59 445 l 2,7,8
 59 458 59 458 70.5 466 c 128,-1,9
 82 474 82 474 100 474 c 0,10,11
 115 474 115 474 126.5 466 c 128,-1,12
 138 458 138 458 138 445 c 2,13,-1
 138 404 l 1,14,15
 153 433 153 433 187 456.5 c 128,-1,16
 221 480 221 480 272 480 c 0,17,18
 308 480 308 480 340 465 c 128,-1,19
 372 450 372 450 396 423.5 c 128,-1,20
 420 397 420 397 434 362 c 128,-1,21
 448 327 448 327 448 288 c 2,22,-1
 448 30 l 2,23,24
 448 15 448 15 435 7.5 c 128,-1,25
 422 0 422 0 406 0 c 0,26,27
 391 0 391 0 378 7.5 c 128,-1,28
 365 15 365 15 365 30 c 2,29,-1
 365 288 l 2,30,31
 365 310 365 310 356 331 c 128,-1,32
 347 352 347 352 331.5 368.5 c 128,-1,33
 316 385 316 385 295 395 c 128,-1,34
 274 405 274 405 251 405 c 0,35,36
 231 405 231 405 211.5 397 c 128,-1,37
 192 389 192 389 176.5 374 c 128,-1,38
 161 359 161 359 151.5 337 c 128,-1,39
 142 315 142 315 142 288 c 2,40,-1
 142 30 l 2,0,1
EndSplineSet
Substitution2: "'ss04' Style Set 4 in Latin lookup 6 subtable" n.ss04
Substitution2: "'salt' Stylistic Alternatives in Latin lookup 2 subtable" n.ss04
Substitution2: "'aalt' Access All Alternates in Latin lookup 0 subtable" n.ss04
EndChar
StartChar: o
Encoding: 111 111 291
Width: 477
Flags: W
LayerCount: 2
Back
Fore
SplineSet
238 480 m 0,0,1
 278 480 278 480 314 465 c 128,-1,2
 350 450 350 450 377 423.5 c 128,-1,3
 404 397 404 397 420 362 c 128,-1,4
 436 327 436 327 436 288 c 2,5,-1
 436 186 l 2,6,7
 436 148 436 148 420 113 c 128,-1,8
 404 78 404 78 377 51 c 128,-1,9
 350 24 350 24 314 8 c 128,-1,10
 278 -8 278 -8 238 -8 c 256,11,12
 198 -8 198 -8 162.5 8 c 128,-1,13
 127 24 127 24 100 51 c 128,-1,14
 73 78 73 78 57 113 c 128,-1,15
 41 148 41 148 41 186 c 2,16,-1
 41 288 l 2,17,18
 41 326 41 326 56.5 361 c 128,-1,19
 72 396 72 396 99 422.5 c 128,-1,20
 126 449 126 449 161.5 464.5 c 128,-1,21
 197 480 197 480 238 480 c 0,0,1
353 288 m 2,22,23
 353 310 353 310 344 331 c 128,-1,24
 335 352 335 352 319.5 368.5 c 128,-1,25
 304 385 304 385 283 395 c 128,-1,26
 262 405 262 405 238 405 c 256,27,28
 214 405 214 405 193 395 c 128,-1,29
 172 385 172 385 157 368.5 c 128,-1,30
 142 352 142 352 133 331 c 128,-1,31
 124 310 124 310 124 288 c 2,32,-1
 124 186 l 2,33,34
 124 163 124 163 133 141.5 c 128,-1,35
 142 120 142 120 157.5 103.5 c 128,-1,36
 173 87 173 87 193.5 77 c 128,-1,37
 214 67 214 67 238 67 c 256,38,39
 262 67 262 67 282.5 77 c 128,-1,40
 303 87 303 87 319 103.5 c 128,-1,41
 335 120 335 120 344 141.5 c 128,-1,42
 353 163 353 163 353 186 c 2,43,-1
 353 288 l 2,22,23
EndSplineSet
EndChar
StartChar: p
Encoding: 112 112 314
Width: 494
Flags: W
LayerCount: 2
Back
Fore
SplineSet
100 474 m 256,0,1
 117 474 117 474 128 466 c 128,-1,2
 139 458 139 458 139 445 c 2,3,-1
 139 404 l 1,4,5
 156 433 156 433 190 456.5 c 128,-1,6
 224 480 224 480 273 480 c 0,7,8
 310 480 310 480 343 465 c 128,-1,9
 376 450 376 450 400.5 423.5 c 128,-1,10
 425 397 425 397 439 362 c 128,-1,11
 453 327 453 327 453 288 c 2,12,-1
 453 186 l 2,13,14
 453 148 453 148 438.5 113 c 128,-1,15
 424 78 424 78 400 51 c 128,-1,16
 376 24 376 24 344 8 c 128,-1,17
 312 -8 312 -8 277 -8 c 0,18,19
 231 -8 231 -8 195 15.5 c 128,-1,20
 159 39 159 39 143 70 c 1,21,-1
 143 -199 l 2,22,23
 143 -210 143 -210 130.5 -219.5 c 128,-1,24
 118 -229 118 -229 101 -229 c 0,25,26
 83 -229 83 -229 71.5 -219.5 c 128,-1,27
 60 -210 60 -210 60 -199 c 2,28,-1
 60 445 l 2,29,30
 60 458 60 458 71.5 466 c 128,-1,31
 83 474 83 474 100 474 c 256,0,1
370 288 m 2,32,33
 370 310 370 310 361 331 c 128,-1,34
 352 352 352 352 336 368.5 c 128,-1,35
 320 385 320 385 299 395 c 128,-1,36
 278 405 278 405 254 405 c 0,37,38
 233 405 233 405 213.5 397 c 128,-1,39
 194 389 194 389 178 374 c 128,-1,40
 162 359 162 359 152.5 337 c 128,-1,41
 143 315 143 315 143 288 c 2,42,-1
 143 159 l 2,43,44
 143 149 143 149 151.5 133.5 c 128,-1,45
 160 118 160 118 175 103 c 128,-1,46
 190 88 190 88 211 77.5 c 128,-1,47
 232 67 232 67 256 67 c 0,48,49
 279 67 279 67 299.5 77 c 128,-1,50
 320 87 320 87 336 104 c 128,-1,51
 352 121 352 121 361 142 c 128,-1,52
 370 163 370 163 370 186 c 2,53,-1
 370 288 l 2,32,33
EndSplineSet
EndChar
StartChar: q
Encoding: 113 113 327
Width: 494
Flags: W
LayerCount: 2
Back
Fore
SplineSet
394 474 m 256,0,1
 411 474 411 474 422.5 466 c 128,-1,2
 434 458 434 458 434 445 c 2,3,-1
 434 -199 l 2,4,5
 434 -210 434 -210 422.5 -219.5 c 128,-1,6
 411 -229 411 -229 393 -229 c 0,7,8
 376 -229 376 -229 363.5 -219.5 c 128,-1,9
 351 -210 351 -210 351 -199 c 2,10,-1
 351 70 l 1,11,12
 335 39 335 39 299 15.5 c 128,-1,13
 263 -8 263 -8 217 -8 c 0,14,15
 182 -8 182 -8 150 8 c 128,-1,16
 118 24 118 24 94 51 c 128,-1,17
 70 78 70 78 55.5 113 c 128,-1,18
 41 148 41 148 41 186 c 2,19,-1
 41 288 l 2,20,21
 41 327 41 327 55 362 c 128,-1,22
 69 397 69 397 93.5 423.5 c 128,-1,23
 118 450 118 450 150.5 465 c 128,-1,24
 183 480 183 480 221 480 c 0,25,26
 270 480 270 480 304 456.5 c 128,-1,27
 338 433 338 433 355 404 c 1,28,-1
 355 445 l 2,29,30
 355 458 355 458 366 466 c 128,-1,31
 377 474 377 474 394 474 c 256,0,1
124 186 m 2,32,33
 124 163 124 163 133 142 c 128,-1,34
 142 121 142 121 158 104 c 128,-1,35
 174 87 174 87 194.5 77 c 128,-1,36
 215 67 215 67 238 67 c 0,37,38
 262 67 262 67 283 77.5 c 128,-1,39
 304 88 304 88 319 103 c 128,-1,40
 334 118 334 118 342.5 133.5 c 128,-1,41
 351 149 351 149 351 159 c 2,42,-1
 351 288 l 2,43,44
 351 315 351 315 341.5 337 c 128,-1,45
 332 359 332 359 316 374 c 128,-1,46
 300 389 300 389 280.5 397 c 128,-1,47
 261 405 261 405 240 405 c 0,48,49
 216 405 216 405 195 395 c 128,-1,50
 174 385 174 385 158 368.5 c 128,-1,51
 142 352 142 352 133 331 c 128,-1,52
 124 310 124 310 124 288 c 2,53,-1
 124 186 l 2,32,33
EndSplineSet
Substitution2: "'ss02' Style Set 2 in Latin lookup 4 subtable" q.ss02
Substitution2: "'salt' Stylistic Alternatives in Latin lookup 2 subtable" q.ss02
Substitution2: "'aalt' Access All Alternates in Latin lookup 0 subtable" q.ss02
EndChar
StartChar: r
Encoding: 114 114 339
Width: 344
Flags: W
LayerCount: 2
Back
Fore
SplineSet
269 405 m 2,0,1
 245 405 245 405 222 395 c 128,-1,2
 199 385 199 385 181.5 366 c 128,-1,3
 164 347 164 347 153 319.5 c 128,-1,4
 142 292 142 292 142 258 c 2,5,-1
 142 30 l 2,6,7
 142 19 142 19 129.5 9.5 c 128,-1,8
 117 0 117 0 100 0 c 0,9,10
 82 0 82 0 70.5 9.5 c 128,-1,11
 59 19 59 19 59 30 c 2,12,-1
 59 445 l 2,13,14
 59 458 59 458 70.5 466 c 128,-1,15
 82 474 82 474 100 474 c 0,16,17
 116 474 116 474 127 466 c 128,-1,18
 138 458 138 458 138 445 c 2,19,-1
 138 398 l 1,20,21
 155 429 155 429 188.5 454.5 c 128,-1,22
 222 480 222 480 269 480 c 2,23,-1
 303 480 l 2,24,25
 316 480 316 480 325.5 468.5 c 128,-1,26
 335 457 335 457 335 442 c 256,27,28
 335 427 335 427 325.5 416 c 128,-1,29
 316 405 316 405 303 405 c 2,30,-1
 269 405 l 2,0,1
EndSplineSet
Substitution2: "'ss04' Style Set 4 in Latin lookup 6 subtable" r.ss04
Substitution2: "'salt' Stylistic Alternatives in Latin lookup 2 subtable" r.ss04
Substitution2: "'aalt' Access All Alternates in Latin lookup 0 subtable" r.ss04
EndChar
StartChar: s
Encoding: 115 115 347
Width: 392
Flags: W
LayerCount: 2
Back
Fore
SplineSet
191 59 m 0,0,1
 245 59 245 59 265.5 78.5 c 128,-1,2
 286 98 286 98 286 122 c 0,3,4
 286 152 286 152 268 168.5 c 128,-1,5
 250 185 250 185 223 195.5 c 128,-1,6
 196 206 196 206 164 214 c 128,-1,7
 132 222 132 222 105 236.5 c 128,-1,8
 78 251 78 251 60 274.5 c 128,-1,9
 42 298 42 298 42 340 c 0,10,11
 42 365 42 365 50.5 390 c 128,-1,12
 59 415 59 415 78.5 435 c 128,-1,13
 98 455 98 455 129.5 467.5 c 128,-1,14
 161 480 161 480 206 480 c 0,15,16
 232 480 232 480 257.5 475.5 c 128,-1,17
 283 471 283 471 303 463.5 c 128,-1,18
 323 456 323 456 335 446 c 128,-1,19
 347 436 347 436 347 426 c 0,20,21
 347 421 347 421 344.5 414 c 128,-1,22
 342 407 342 407 338 400 c 128,-1,23
 334 393 334 393 327.5 388.5 c 128,-1,24
 321 384 321 384 314 384 c 256,25,26
 307 384 307 384 297.5 388.5 c 128,-1,27
 288 393 288 393 275.5 398.5 c 128,-1,28
 263 404 263 404 246 408.5 c 128,-1,29
 229 413 229 413 207 413 c 0,30,31
 182 413 182 413 164.5 406.5 c 128,-1,32
 147 400 147 400 136.5 389.5 c 128,-1,33
 126 379 126 379 121 366.5 c 128,-1,34
 116 354 116 354 116 343 c 0,35,36
 116 317 116 317 134 304 c 128,-1,37
 152 291 152 291 179.5 282 c 128,-1,38
 207 273 207 273 238.5 264.5 c 128,-1,39
 270 256 270 256 297.5 240 c 128,-1,40
 325 224 325 224 343 197.5 c 128,-1,41
 361 171 361 171 361 126 c 0,42,43
 361 64 361 64 318 28 c 128,-1,44
 275 -8 275 -8 194 -8 c 0,45,46
 158 -8 158 -8 128 -1 c 128,-1,47
 98 6 98 6 76 17 c 128,-1,48
 54 28 54 28 42 41.5 c 128,-1,49
 30 55 30 55 30 68 c 0,50,51
 30 79 30 79 38 92.5 c 128,-1,52
 46 106 46 106 59 106 c 0,53,54
 68 106 68 106 77 98.5 c 128,-1,55
 86 91 86 91 100.5 82.5 c 128,-1,56
 115 74 115 74 136.5 66.5 c 128,-1,57
 158 59 158 59 191 59 c 0,0,1
EndSplineSet
EndChar
StartChar: t
Encoding: 116 116 367
Width: 310
Flags: W
LayerCount: 2
Back
Fore
SplineSet
140 151 m 2,0,1
 140 108 140 108 158 90.5 c 128,-1,2
 176 73 176 73 223 73 c 2,3,-1
 254 73 l 2,4,5
 271 73 271 73 280.5 62 c 128,-1,6
 290 51 290 51 290 37 c 256,7,8
 290 23 290 23 280.5 11.5 c 128,-1,9
 271 0 271 0 254 0 c 2,10,-1
 223 0 l 2,11,12
 142 0 142 0 99.5 36 c 128,-1,13
 57 72 57 72 57 151 c 2,14,-1
 57 666 l 2,15,16
 57 679 57 679 70.5 687 c 128,-1,17
 84 695 84 695 98 695 c 0,18,19
 114 695 114 695 127 687 c 128,-1,20
 140 679 140 679 140 666 c 2,21,-1
 140 474 l 1,22,-1
 266 474 l 2,23,24
 277 474 277 474 284 464 c 128,-1,25
 291 454 291 454 291 441 c 256,26,27
 291 428 291 428 284 418.5 c 128,-1,28
 277 409 277 409 266 409 c 2,29,-1
 140 409 l 1,30,-1
 140 151 l 2,0,1
EndSplineSet
EndChar
StartChar: u
Encoding: 117 117 383
Width: 505
Flags: W
LayerCount: 2
Back
Fore
SplineSet
253 -8 m 0,0,1
 212 -8 212 -8 176 8 c 128,-1,2
 140 24 140 24 113 50.5 c 128,-1,3
 86 77 86 77 70.5 111.5 c 128,-1,4
 55 146 55 146 55 184 c 2,5,-1
 55 444 l 2,6,7
 55 455 55 455 67 464.5 c 128,-1,8
 79 474 79 474 97 474 c 0,9,10
 113 474 113 474 125.5 464.5 c 128,-1,11
 138 455 138 455 138 444 c 2,12,-1
 138 184 l 2,13,14
 138 162 138 162 147 141 c 128,-1,15
 156 120 156 120 171.5 103.5 c 128,-1,16
 187 87 187 87 208 77 c 128,-1,17
 229 67 229 67 253 67 c 256,18,19
 277 67 277 67 297.5 77 c 128,-1,20
 318 87 318 87 333.5 103 c 128,-1,21
 349 119 349 119 358 140 c 128,-1,22
 367 161 367 161 367 184 c 2,23,-1
 367 445 l 2,24,25
 367 456 367 456 379.5 465 c 128,-1,26
 392 474 392 474 409 474 c 0,27,28
 427 474 427 474 438.5 465 c 128,-1,29
 450 456 450 456 450 445 c 2,30,-1
 450 184 l 2,31,32
 450 146 450 146 434.5 111 c 128,-1,33
 419 76 419 76 392 49.5 c 128,-1,34
 365 23 365 23 329 7.5 c 128,-1,35
 293 -8 293 -8 253 -8 c 0,0,1
EndSplineSet
Substitution2: "'ss05' Style Set 5 in Latin lookup 7 subtable" u.ss04
Substitution2: "'salt' Stylistic Alternatives in Latin lookup 2 subtable" u.ss04
Substitution2: "'aalt' Access All Alternates in Latin lookup 0 subtable" u.ss04
EndChar
StartChar: v
Encoding: 118 118 398
Width: 437
Flags: W
LayerCount: 2
Back
Fore
SplineSet
16 424 m 2,0,1
 15 426 15 426 13.5 431 c 128,-1,2
 12 436 12 436 12 440 c 0,3,4
 12 447 12 447 17 454 c 128,-1,5
 22 461 22 461 30 465.5 c 128,-1,6
 38 470 38 470 47.5 473 c 128,-1,7
 57 476 57 476 65 476 c 0,8,9
 74 476 74 476 81.5 472 c 128,-1,10
 89 468 89 468 92 460 c 2,11,-1
 219 120 l 1,12,-1
 344 456 l 2,13,14
 348 465 348 465 354 470.5 c 128,-1,15
 360 476 360 476 371 476 c 0,16,17
 378 476 378 476 387.5 473 c 128,-1,18
 397 470 397 470 405 465.5 c 128,-1,19
 413 461 413 461 419 454 c 128,-1,20
 425 447 425 447 425 440 c 0,21,22
 425 432 425 432 421 424 c 2,23,-1
 257 9 l 2,24,25
 253 1 253 1 242 -4 c 128,-1,26
 231 -9 231 -9 219 -9 c 0,27,28
 205 -9 205 -9 194.5 -4.5 c 128,-1,29
 184 0 184 0 180 9 c 2,30,-1
 16 424 l 2,0,1
EndSplineSet
EndChar
StartChar: w
Encoding: 119 119 399
Width: 675
Flags: W
LayerCount: 2
Back
Fore
SplineSet
502 9 m 2,0,1
 498 -1 498 -1 489 -5 c 128,-1,2
 480 -9 480 -9 469 -9 c 0,3,4
 442 -9 442 -9 435 9 c 2,5,-1
 338 303 l 1,6,-1
 243 12 l 2,7,8
 235 -9 235 -9 207 -9 c 0,9,10
 195 -9 195 -9 186.5 -4.5 c 128,-1,11
 178 0 178 0 173 12 c 2,12,-1
 18 424 l 2,13,14
 16 429 16 429 15 433 c 128,-1,15
 14 437 14 437 14 440 c 0,16,17
 14 456 14 456 31 466 c 128,-1,18
 48 476 48 476 65 476 c 0,19,20
 74 476 74 476 81.5 472 c 128,-1,21
 89 468 89 468 92 460 c 2,22,-1
 213 124 l 1,23,-1
 307 427 l 2,24,25
 311 438 311 438 319 442.5 c 128,-1,26
 327 447 327 447 338 447 c 0,27,28
 363 447 363 447 370 427 c 2,29,-1
 462 121 l 1,30,-1
 584 460 l 2,31,32
 586 468 586 468 593.5 472 c 128,-1,33
 601 476 601 476 610 476 c 0,34,35
 626 476 626 476 644 466.5 c 128,-1,36
 662 457 662 457 662 440 c 0,37,38
 662 432 662 432 658 424 c 2,39,-1
 502 9 l 2,0,1
EndSplineSet
EndChar
StartChar: x
Encoding: 120 120 404
Width: 426
Flags: W
LayerCount: 2
Back
Fore
SplineSet
24 33 m 0,0,1
 24 42 24 42 29 50 c 2,2,-1
 158 240 l 1,3,-1
 34 422 l 2,4,5
 28 430 28 430 28 438 c 0,6,7
 28 445 28 445 33 452.5 c 128,-1,8
 38 460 38 460 46 466 c 128,-1,9
 54 472 54 472 63.5 476 c 128,-1,10
 73 480 73 480 81 480 c 0,11,12
 86 480 86 480 92 477.5 c 128,-1,13
 98 475 98 475 103 468 c 2,14,-1
 213 296 l 1,15,-1
 325 468 l 2,16,17
 329 474 329 474 335.5 477 c 128,-1,18
 342 480 342 480 347 480 c 0,19,20
 354 480 354 480 363.5 476 c 128,-1,21
 373 472 373 472 380.5 466 c 128,-1,22
 388 460 388 460 393.5 452.5 c 128,-1,23
 399 445 399 445 399 438 c 0,24,25
 399 429 399 429 394 422 c 2,26,-1
 268 240 l 1,27,-1
 398 50 l 2,28,29
 403 43 403 43 403 33 c 0,30,31
 403 19 403 19 386 5.5 c 128,-1,32
 369 -8 369 -8 352 -8 c 0,33,34
 346 -8 346 -8 339.5 -5 c 128,-1,35
 333 -2 333 -2 329 4 c 2,36,-1
 213 181 l 1,37,-1
 98 4 l 2,38,39
 94 -2 94 -2 87.5 -5 c 128,-1,40
 81 -8 81 -8 75 -8 c 0,41,42
 68 -8 68 -8 59 -4.5 c 128,-1,43
 50 -1 50 -1 42.5 5 c 128,-1,44
 35 11 35 11 29.5 18.5 c 128,-1,45
 24 26 24 26 24 33 c 0,0,1
EndSplineSet
EndChar
StartChar: z
Encoding: 122 122 411
Width: 411
Flags: W
LayerCount: 2
Back
Fore
SplineSet
361 71 m 2,0,1
 372 71 372 71 380.5 60.5 c 128,-1,2
 389 50 389 50 389 35 c 0,3,4
 389 21 389 21 381.5 10.5 c 128,-1,5
 374 0 374 0 361 0 c 2,6,-1
 54 0 l 2,7,8
 38 0 38 0 30.5 10 c 128,-1,9
 23 20 23 20 23 31 c 0,10,11
 23 40 23 40 27 48.5 c 128,-1,12
 31 57 31 57 36 64 c 2,13,-1
 267 403 l 1,14,-1
 60 403 l 2,15,16
 49 403 49 403 40.5 413.5 c 128,-1,17
 32 424 32 424 32 438 c 256,18,19
 32 452 32 452 39.5 463 c 128,-1,20
 47 474 47 474 60 474 c 2,21,-1
 346 474 l 2,22,23
 358 474 358 474 367 465.5 c 128,-1,24
 376 457 376 457 376 442 c 0,25,26
 376 425 376 425 364 410 c 2,27,-1
 132 71 l 1,28,-1
 361 71 l 2,0,1
EndSplineSet
EndChar
StartChar: braceleft
Encoding: 123 123 159
Width: 325
Flags: W
LayerCount: 2
Back
Fore
SplineSet
28 385 m 256,0,1
 28 403 28 403 37.5 409 c 128,-1,2
 47 415 47 415 58 417.5 c 128,-1,3
 69 420 69 420 78.5 424 c 128,-1,4
 88 428 88 428 88 441 c 0,5,6
 88 448 88 448 85 469.5 c 128,-1,7
 82 491 82 491 78.5 516.5 c 128,-1,8
 75 542 75 542 72 565.5 c 128,-1,9
 69 589 69 589 69 601 c 0,10,11
 69 634 69 634 85 664 c 128,-1,12
 101 694 101 694 127.5 717.5 c 128,-1,13
 154 741 154 741 189 754.5 c 128,-1,14
 224 768 224 768 262 768 c 0,15,16
 287 768 287 768 297 756.5 c 128,-1,17
 307 745 307 745 307 731 c 256,18,19
 307 717 307 717 299.5 706 c 128,-1,20
 292 695 292 695 278 695 c 0,21,22
 255 695 255 695 232.5 687.5 c 128,-1,23
 210 680 210 680 192.5 666 c 128,-1,24
 175 652 175 652 164 633 c 128,-1,25
 153 614 153 614 153 591 c 0,26,27
 153 580 153 580 156 557 c 128,-1,28
 159 534 159 534 162.5 509 c 128,-1,29
 166 484 166 484 169 462.5 c 128,-1,30
 172 441 172 441 172 433 c 0,31,32
 172 414 172 414 158.5 400 c 128,-1,33
 145 386 145 386 136 384 c 1,34,35
 145 382 145 382 158.5 369 c 128,-1,36
 172 356 172 356 172 336 c 0,37,38
 172 327 172 327 169 300 c 128,-1,39
 166 273 166 273 162.5 241.5 c 128,-1,40
 159 210 159 210 156 182 c 128,-1,41
 153 154 153 154 153 142 c 0,42,43
 153 116 153 116 167 98.5 c 128,-1,44
 181 81 181 81 200.5 71 c 128,-1,45
 220 61 220 61 241.5 57 c 128,-1,46
 263 53 263 53 278 53 c 0,47,48
 295 53 295 53 301 40.5 c 128,-1,49
 307 28 307 28 307 17 c 0,50,51
 307 -1 307 -1 294.5 -10.5 c 128,-1,52
 282 -20 282 -20 261 -20 c 0,53,54
 223 -20 223 -20 188.5 -8.5 c 128,-1,55
 154 3 154 3 127.5 23 c 128,-1,56
 101 43 101 43 85 71.5 c 128,-1,57
 69 100 69 100 69 135 c 0,58,59
 69 148 69 148 72 177 c 128,-1,60
 75 206 75 206 78.5 237 c 128,-1,61
 82 268 82 268 85 294.5 c 128,-1,62
 88 321 88 321 88 329 c 0,63,64
 88 342 88 342 78.5 345.5 c 128,-1,65
 69 349 69 349 58 352 c 128,-1,66
 47 355 47 355 37.5 361 c 128,-1,67
 28 367 28 367 28 385 c 256,0,1
EndSplineSet
EndChar
StartChar: braceright
Encoding: 125 125 160
Width: 325
Flags: W
LayerCount: 2
Back
Fore
SplineSet
297 385 m 256,0,1
 297 367 297 367 287.5 361 c 128,-1,2
 278 355 278 355 267 352 c 128,-1,3
 256 349 256 349 246.5 345.5 c 128,-1,4
 237 342 237 342 237 329 c 0,5,6
 237 321 237 321 240 294.5 c 128,-1,7
 243 268 243 268 246.5 237 c 128,-1,8
 250 206 250 206 253 177 c 128,-1,9
 256 148 256 148 256 135 c 0,10,11
 256 100 256 100 240 71.5 c 128,-1,12
 224 43 224 43 197.5 23 c 128,-1,13
 171 3 171 3 136.5 -8.5 c 128,-1,14
 102 -20 102 -20 64 -20 c 0,15,16
 43 -20 43 -20 30.5 -10.5 c 128,-1,17
 18 -1 18 -1 18 17 c 0,18,19
 18 28 18 28 24 40.5 c 128,-1,20
 30 53 30 53 47 53 c 0,21,22
 62 53 62 53 83.5 57 c 128,-1,23
 105 61 105 61 124.5 71 c 128,-1,24
 144 81 144 81 158 98.5 c 128,-1,25
 172 116 172 116 172 142 c 0,26,27
 172 154 172 154 169 182 c 128,-1,28
 166 210 166 210 162.5 241.5 c 128,-1,29
 159 273 159 273 156 300 c 128,-1,30
 153 327 153 327 153 336 c 0,31,32
 153 356 153 356 166 369 c 128,-1,33
 179 382 179 382 189 384 c 1,34,35
 180 386 180 386 166.5 400 c 128,-1,36
 153 414 153 414 153 433 c 0,37,38
 153 441 153 441 156 462.5 c 128,-1,39
 159 484 159 484 162.5 509 c 128,-1,40
 166 534 166 534 169 557 c 128,-1,41
 172 580 172 580 172 591 c 0,42,43
 172 614 172 614 161 633 c 128,-1,44
 150 652 150 652 132.5 666 c 128,-1,45
 115 680 115 680 92.5 687.5 c 128,-1,46
 70 695 70 695 47 695 c 0,47,48
 33 695 33 695 25.5 706 c 128,-1,49
 18 717 18 717 18 731 c 256,50,51
 18 745 18 745 28 756.5 c 128,-1,52
 38 768 38 768 63 768 c 0,53,54
 101 768 101 768 136 754.5 c 128,-1,55
 171 741 171 741 197.5 717.5 c 128,-1,56
 224 694 224 694 240 664 c 128,-1,57
 256 634 256 634 256 601 c 0,58,59
 256 589 256 589 253 565.5 c 128,-1,60
 250 542 250 542 246.5 516.5 c 128,-1,61
 243 491 243 491 240 469.5 c 128,-1,62
 237 448 237 448 237 441 c 0,63,64
 237 428 237 428 246.5 424 c 128,-1,65
 256 420 256 420 267 417.5 c 128,-1,66
 278 415 278 415 287.5 409 c 128,-1,67
 297 403 297 403 297 385 c 256,0,1
EndSplineSet
EndChar
StartChar: asciitilde
Encoding: 126 126 151
Width: 402
Flags: W
LayerCount: 2
Back
Fore
SplineSet
140 244 m 0,0,1
 124 244 124 244 112.5 239.5 c 128,-1,2
 101 235 101 235 92.5 229.5 c 128,-1,3
 84 224 84 224 77.5 219.5 c 128,-1,4
 71 215 71 215 64 215 c 0,5,6
 51 215 51 215 46 225.5 c 128,-1,7
 41 236 41 236 41 244 c 0,8,9
 41 260 41 260 50.5 272 c 128,-1,10
 60 284 60 284 73.5 291 c 128,-1,11
 87 298 87 298 102 301.5 c 128,-1,12
 117 305 117 305 128 305 c 0,13,14
 148 305 148 305 164.5 300 c 128,-1,15
 181 295 181 295 196 288.5 c 128,-1,16
 211 282 211 282 227 277 c 128,-1,17
 243 272 243 272 263 272 c 0,18,19
 279 272 279 272 290 276 c 128,-1,20
 301 280 301 280 309 285.5 c 128,-1,21
 317 291 317 291 323 295 c 128,-1,22
 329 299 329 299 336 299 c 0,23,24
 349 299 349 299 354.5 288.5 c 128,-1,25
 360 278 360 278 360 271 c 0,26,27
 360 253 360 253 350.5 241.5 c 128,-1,28
 341 230 341 230 327.5 223.5 c 128,-1,29
 314 217 314 217 300 214 c 128,-1,30
 286 211 286 211 276 211 c 0,31,32
 254 211 254 211 237.5 216 c 128,-1,33
 221 221 221 221 206 227.5 c 128,-1,34
 191 234 191 234 175.5 239 c 128,-1,35
 160 244 160 244 140 244 c 0,0,1
EndSplineSet
EndChar
StartChar: exclamdown
Encoding: 161 161 215
Width: 206
Flags: W
LayerCount: 2
Back
Fore
SplineSet
58 37 m 0,0,1
 58 95 58 95 60 158 c 128,-1,2
 62 221 62 221 64 285 c 128,-1,3
 66 349 66 349 68 411.5 c 128,-1,4
 70 474 70 474 70 533 c 0,5,6
 70 547 70 547 80.5 553.5 c 128,-1,7
 91 560 91 560 102 560 c 0,8,9
 115 560 115 560 125 553.5 c 128,-1,10
 135 547 135 547 135 533 c 0,11,12
 135 474 135 474 137 411.5 c 128,-1,13
 139 349 139 349 141.5 285 c 128,-1,14
 144 221 144 221 146 158 c 128,-1,15
 148 95 148 95 148 37 c 0,16,17
 148 16 148 16 135 5 c 128,-1,18
 122 -6 122 -6 102 -6 c 0,19,20
 84 -6 84 -6 71 5 c 128,-1,21
 58 16 58 16 58 37 c 0,0,1
102 636 m 256,22,23
 80 636 80 636 65 651.5 c 128,-1,24
 50 667 50 667 50 689 c 0,25,26
 50 710 50 710 65 725.5 c 128,-1,27
 80 741 80 741 102 741 c 256,28,29
 124 741 124 741 139 725.5 c 128,-1,30
 154 710 154 710 154 689 c 0,31,32
 154 667 154 667 139 651.5 c 128,-1,33
 124 636 124 636 102 636 c 256,22,23
EndSplineSet
EndChar
StartChar: cent
Encoding: 162 162 175
Width: 418
Flags: W
LayerCount: 2
Back
Fore
SplineSet
222 694 m 256,0,1
 233 694 233 694 242 686.5 c 128,-1,2
 251 679 251 679 251 668 c 2,3,-1
 251 570 l 1,4,5
 278 568 278 568 302 562 c 128,-1,6
 326 556 326 556 343.5 547 c 128,-1,7
 361 538 361 538 371 527 c 128,-1,8
 381 516 381 516 381 504 c 0,9,10
 381 490 381 490 371 477 c 128,-1,11
 361 464 361 464 346 464 c 0,12,13
 340 464 340 464 333 468.5 c 128,-1,14
 326 473 326 473 315.5 479 c 128,-1,15
 305 485 305 485 289.5 490.5 c 128,-1,16
 274 496 274 496 251 498 c 1,17,-1
 251 239 l 1,18,19
 274 240 274 240 289 245.5 c 128,-1,20
 304 251 304 251 314.5 257 c 128,-1,21
 325 263 325 263 332 268 c 128,-1,22
 339 273 339 273 346 273 c 0,23,24
 363 273 363 273 373.5 260.5 c 128,-1,25
 384 248 384 248 384 234 c 0,26,27
 384 222 384 222 373 210.5 c 128,-1,28
 362 199 362 199 343.5 189.5 c 128,-1,29
 325 180 325 180 301 174 c 128,-1,30
 277 168 277 168 251 166 c 1,31,-1
 251 67 l 2,32,33
 251 56 251 56 242 48 c 128,-1,34
 233 40 233 40 222 40 c 256,35,36
 211 40 211 40 202.5 48 c 128,-1,37
 194 56 194 56 194 67 c 2,38,-1
 194 167 l 1,39,40
 152 172 152 172 121.5 188.5 c 128,-1,41
 91 205 91 205 71 230 c 128,-1,42
 51 255 51 255 41.5 287.5 c 128,-1,43
 32 320 32 320 32 358 c 2,44,-1
 32 378 l 2,45,46
 32 415 32 415 41.5 447.5 c 128,-1,47
 51 480 51 480 71 505 c 128,-1,48
 91 530 91 530 121.5 547 c 128,-1,49
 152 564 152 564 194 569 c 1,50,-1
 194 668 l 2,51,52
 194 679 194 679 202.5 686.5 c 128,-1,53
 211 694 211 694 222 694 c 256,0,1
107 358 m 2,54,55
 107 310 107 310 128 280 c 128,-1,56
 149 250 149 250 194 240 c 1,57,-1
 194 496 l 1,58,59
 149 486 149 486 128 455.5 c 128,-1,60
 107 425 107 425 107 378 c 2,61,-1
 107 358 l 2,54,55
EndSplineSet
EndChar
StartChar: sterling
Encoding: 163 163 365
Width: 502
Flags: W
LayerCount: 2
Back
Fore
SplineSet
437 76 m 2,0,1
 451 76 451 76 458 64 c 128,-1,2
 465 52 465 52 465 38 c 256,3,4
 465 24 465 24 458 12 c 128,-1,5
 451 0 451 0 437 0 c 2,6,-1
 52 0 l 2,7,8
 37 0 37 0 30 12 c 128,-1,9
 23 24 23 24 23 38 c 256,10,11
 23 52 23 52 30 64 c 128,-1,12
 37 76 37 76 52 76 c 2,13,-1
 109 76 l 1,14,-1
 150 367 l 1,15,-1
 79 367 l 2,16,17
 67 367 67 367 60.5 376.5 c 128,-1,18
 54 386 54 386 54 399 c 256,19,20
 54 412 54 412 60.5 422 c 128,-1,21
 67 432 67 432 79 432 c 2,22,-1
 159 432 l 1,23,-1
 179 572 l 2,24,25
 185 613 185 613 206 649 c 128,-1,26
 227 685 227 685 258 711.5 c 128,-1,27
 289 738 289 738 328 753 c 128,-1,28
 367 768 367 768 409 768 c 2,29,-1
 433 768 l 2,30,31
 448 768 448 768 456.5 756 c 128,-1,32
 465 744 465 744 465 730 c 256,33,34
 465 716 465 716 456.5 704.5 c 128,-1,35
 448 693 448 693 433 693 c 2,36,-1
 404 693 l 2,37,38
 375 693 375 693 350.5 683 c 128,-1,39
 326 673 326 673 308 656.5 c 128,-1,40
 290 640 290 640 278 618 c 128,-1,41
 266 596 266 596 262 572 c 2,42,-1
 242 432 l 1,43,-1
 383 432 l 2,44,45
 395 432 395 432 401.5 421.5 c 128,-1,46
 408 411 408 411 408 399 c 256,47,48
 408 387 408 387 401.5 377 c 128,-1,49
 395 367 395 367 383 367 c 2,50,-1
 233 367 l 1,51,-1
 191 76 l 1,52,-1
 437 76 l 2,0,1
EndSplineSet
EndChar
StartChar: currency
Encoding: 164 164 181
Width: 470
Flags: W
LayerCount: 2
Back
Fore
SplineSet
236 652 m 0,0,1
 267 652 267 652 295 641.5 c 128,-1,2
 323 631 323 631 346 612 c 1,3,-1
 372 638 l 2,4,5
 379 643 379 643 385 643 c 0,6,7
 394 643 394 643 401 636 c 128,-1,8
 408 629 408 629 408 620 c 0,9,10
 408 614 408 614 403 607 c 2,11,-1
 375 581 l 1,12,13
 414 534 414 534 414 472 c 0,14,15
 414 442 414 442 403.5 414 c 128,-1,16
 393 386 393 386 375 363 c 1,17,-1
 403 336 l 2,18,19
 408 329 408 329 408 324 c 0,20,21
 408 316 408 316 401 308.5 c 128,-1,22
 394 301 394 301 385 301 c 0,23,24
 377 301 377 301 373 306 c 2,25,-1
 346 332 l 1,26,27
 323 312 323 312 295 301 c 128,-1,28
 267 290 267 290 236 290 c 0,29,30
 204 290 204 290 175 302 c 128,-1,31
 146 314 146 314 123 334 c 1,32,-1
 93 306 l 2,33,34
 88 301 88 301 81 301 c 0,35,36
 72 301 72 301 65 308 c 128,-1,37
 58 315 58 315 58 324 c 0,38,39
 58 331 58 331 63 336 c 2,40,-1
 94 366 l 1,41,42
 77 389 77 389 68 416 c 128,-1,43
 59 443 59 443 59 472 c 256,44,45
 59 501 59 501 68 528 c 128,-1,46
 77 555 77 555 94 577 c 1,47,-1
 68 603 l 2,48,49
 62 609 62 609 62 616 c 0,50,51
 62 625 62 625 69.5 632 c 128,-1,52
 77 639 77 639 85 639 c 0,53,54
 91 639 91 639 98 634 c 2,55,-1
 123 609 l 1,56,57
 146 629 146 629 175 640.5 c 128,-1,58
 204 652 204 652 236 652 c 0,0,1
359 472 m 256,59,60
 359 496 359 496 349.5 518.5 c 128,-1,61
 340 541 340 541 323.5 558.5 c 128,-1,62
 307 576 307 576 284.5 586.5 c 128,-1,63
 262 597 262 597 236 597 c 256,64,65
 210 597 210 597 188 586.5 c 128,-1,66
 166 576 166 576 149.5 558.5 c 128,-1,67
 133 541 133 541 123.5 518.5 c 128,-1,68
 114 496 114 496 114 472 c 256,69,70
 114 448 114 448 123.5 425 c 128,-1,71
 133 402 133 402 149.5 384 c 128,-1,72
 166 366 166 366 188 355.5 c 128,-1,73
 210 345 210 345 236 345 c 0,74,75
 261 345 261 345 283.5 355.5 c 128,-1,76
 306 366 306 366 323 384 c 128,-1,77
 340 402 340 402 349.5 425 c 128,-1,78
 359 448 359 448 359 472 c 256,59,60
EndSplineSet
EndChar
StartChar: yen
Encoding: 165 165 409
Width: 520
Flags: W
LayerCount: 2
Back
Fore
SplineSet
80 341 m 256,0,1
 80 355 80 355 88 364.5 c 128,-1,2
 96 374 96 374 109 374 c 2,3,-1
 197 374 l 1,4,-1
 26 687 l 2,5,6
 23 691 23 691 23 698 c 0,7,8
 23 711 23 711 38.5 722.5 c 128,-1,9
 54 734 54 734 71 734 c 256,10,11
 88 734 88 734 98 713 c 2,12,-1
 258 405 l 1,13,-1
 423 713 l 2,14,15
 428 723 428 723 434 728.5 c 128,-1,16
 440 734 440 734 450 734 c 0,17,18
 467 734 467 734 482 723 c 128,-1,19
 497 712 497 712 497 698 c 0,20,21
 497 690 497 690 495 687 c 2,22,-1
 318 374 l 1,23,-1
 411 374 l 2,24,25
 422 374 422 374 431.5 364.5 c 128,-1,26
 441 355 441 355 441 341 c 256,27,28
 441 327 441 327 431.5 318.5 c 128,-1,29
 422 310 422 310 411 310 c 2,30,-1
 299 310 l 1,31,-1
 299 239 l 1,32,-1
 411 239 l 2,33,34
 422 239 422 239 431.5 230 c 128,-1,35
 441 221 441 221 441 207 c 256,36,37
 441 193 441 193 431.5 184 c 128,-1,38
 422 175 422 175 411 175 c 2,39,-1
 299 175 l 1,40,-1
 299 29 l 2,41,42
 299 15 299 15 287 7.5 c 128,-1,43
 275 0 275 0 258 0 c 256,44,45
 241 0 241 0 228.5 7.5 c 128,-1,46
 216 15 216 15 216 29 c 2,47,-1
 216 175 l 1,48,-1
 109 175 l 2,49,50
 96 175 96 175 88 183.5 c 128,-1,51
 80 192 80 192 80 206 c 256,52,53
 80 220 80 220 88 229.5 c 128,-1,54
 96 239 96 239 109 239 c 2,55,-1
 216 239 l 1,56,-1
 216 310 l 1,57,-1
 109 310 l 2,58,59
 96 310 96 310 88 318.5 c 128,-1,60
 80 327 80 327 80 341 c 256,0,1
EndSplineSet
EndChar
StartChar: brokenbar
Encoding: 166 166 164
Width: 213
Flags: W
LayerCount: 2
Back
Fore
SplineSet
106 768 m 0,0,1
 123 768 123 768 135.5 760 c 128,-1,2
 148 752 148 752 148 739 c 2,3,-1
 148 473 l 2,4,5
 148 462 148 462 135.5 453 c 128,-1,6
 123 444 123 444 106 444 c 0,7,8
 88 444 88 444 76.5 453 c 128,-1,9
 65 462 65 462 65 473 c 2,10,-1
 65 739 l 2,11,12
 65 752 65 752 76.5 760 c 128,-1,13
 88 768 88 768 106 768 c 0,0,1
106 303 m 0,14,15
 123 303 123 303 135.5 295 c 128,-1,16
 148 287 148 287 148 274 c 2,17,-1
 148 8 l 2,18,19
 148 -3 148 -3 135.5 -12 c 128,-1,20
 123 -21 123 -21 106 -21 c 0,21,22
 88 -21 88 -21 76.5 -12 c 128,-1,23
 65 -3 65 -3 65 8 c 2,24,-1
 65 274 l 2,25,26
 65 287 65 287 76.5 295 c 128,-1,27
 88 303 88 303 106 303 c 0,14,15
EndSplineSet
EndChar
StartChar: section
Encoding: 167 167 354
Width: 469
Flags: W
LayerCount: 2
Back
Fore
SplineSet
57 535 m 2,0,1
 57 595 57 595 74.5 633 c 128,-1,2
 92 671 92 671 118 692.5 c 128,-1,3
 144 714 144 714 175.5 722.5 c 128,-1,4
 207 731 207 731 236 731 c 0,5,6
 278 731 278 731 309 718 c 128,-1,7
 340 705 340 705 361 683 c 128,-1,8
 382 661 382 661 392.5 631.5 c 128,-1,9
 403 602 403 602 403 569 c 0,10,11
 403 546 403 546 393 539 c 128,-1,12
 383 532 383 532 369 532 c 0,13,14
 331 532 331 532 331 566 c 0,15,16
 331 579 331 579 327 595.5 c 128,-1,17
 323 612 323 612 313 626 c 128,-1,18
 303 640 303 640 285 650 c 128,-1,19
 267 660 267 660 239 660 c 0,20,21
 219 660 219 660 200 654 c 128,-1,22
 181 648 181 648 166.5 634.5 c 128,-1,23
 152 621 152 621 143.5 600 c 128,-1,24
 135 579 135 579 135 549 c 0,25,26
 135 511 135 511 156.5 489.5 c 128,-1,27
 178 468 178 468 209.5 453.5 c 128,-1,28
 241 439 241 439 278.5 426.5 c 128,-1,29
 316 414 316 414 347.5 393 c 128,-1,30
 379 372 379 372 400.5 337.5 c 128,-1,31
 422 303 422 303 422 245 c 2,32,-1
 422 127 l 2,33,34
 422 73 422 73 405.5 35.5 c 128,-1,35
 389 -2 389 -2 362.5 -24.5 c 128,-1,36
 336 -47 336 -47 302 -57 c 128,-1,37
 268 -67 268 -67 232 -67 c 0,38,39
 188 -67 188 -67 153.5 -53 c 128,-1,40
 119 -39 119 -39 95 -16 c 128,-1,41
 71 7 71 7 58.5 37 c 128,-1,42
 46 67 46 67 46 99 c 0,43,44
 46 119 46 119 56 127 c 128,-1,45
 66 135 66 135 83 135 c 0,46,47
 103 135 103 135 111.5 127 c 128,-1,48
 120 119 120 119 120 108 c 0,49,50
 120 94 120 94 124 76 c 128,-1,51
 128 58 128 58 139.5 42.5 c 128,-1,52
 151 27 151 27 171.5 16 c 128,-1,53
 192 5 192 5 225 5 c 0,54,55
 281 5 281 5 309.5 33.5 c 128,-1,56
 338 62 338 62 338 112 c 0,57,58
 338 150 338 150 317 171.5 c 128,-1,59
 296 193 296 193 265 207 c 128,-1,60
 234 221 234 221 197.5 234 c 128,-1,61
 161 247 161 247 130 268 c 128,-1,62
 99 289 99 289 78 323.5 c 128,-1,63
 57 358 57 358 57 416 c 2,64,-1
 57 535 l 2,0,1
350 252 m 2,65,66
 350 285 350 285 338 306.5 c 128,-1,67
 326 328 326 328 307 342 c 128,-1,68
 288 356 288 356 264 365 c 128,-1,69
 240 374 240 374 215.5 383 c 128,-1,70
 191 392 191 392 168 402.5 c 128,-1,71
 145 413 145 413 129 430 c 1,72,-1
 129 404 l 2,73,74
 129 371 129 371 141 349.5 c 128,-1,75
 153 328 153 328 172 314 c 128,-1,76
 191 300 191 300 215 291 c 128,-1,77
 239 282 239 282 263.5 273 c 128,-1,78
 288 264 288 264 311 253 c 128,-1,79
 334 242 334 242 350 225 c 1,80,-1
 350 252 l 2,65,66
EndSplineSet
EndChar
StartChar: dieresis
Encoding: 168 168 188
Width: 211
Flags: W
LayerCount: 2
Back
Fore
SplineSet
41 671 m 256,0,1
 58 671 58 671 69.5 659 c 128,-1,2
 81 647 81 647 81 630 c 256,3,4
 81 613 81 613 69.5 600.5 c 128,-1,5
 58 588 58 588 41 588 c 256,6,7
 24 588 24 588 12 600.5 c 128,-1,8
 0 613 0 613 0 630 c 256,9,10
 0 647 0 647 12 659 c 128,-1,11
 24 671 24 671 41 671 c 256,0,1
171 671 m 256,12,13
 188 671 188 671 199.5 659 c 128,-1,14
 211 647 211 647 211 630 c 256,15,16
 211 613 211 613 199.5 600.5 c 128,-1,17
 188 588 188 588 171 588 c 256,18,19
 154 588 154 588 142.5 600.5 c 128,-1,20
 131 613 131 613 131 630 c 256,21,22
 131 647 131 647 142.5 659 c 128,-1,23
 154 671 154 671 171 671 c 256,12,13
EndSplineSet
EndChar
StartChar: copyright
Encoding: 169 169 180
Width: 710
Flags: W
LayerCount: 2
Back
Fore
SplineSet
48 358 m 0,0,1
 48 442 48 442 77 503.5 c 128,-1,2
 106 565 106 565 151 605.5 c 128,-1,3
 196 646 196 646 251 665.5 c 128,-1,4
 306 685 306 685 358 685 c 0,5,6
 411 685 411 685 465 665 c 128,-1,7
 519 645 519 645 563 605 c 128,-1,8
 607 565 607 565 634.5 504 c 128,-1,9
 662 443 662 443 662 362 c 0,10,11
 662 278 662 278 633 216.5 c 128,-1,12
 604 155 604 155 559 114.5 c 128,-1,13
 514 74 514 74 459 54.5 c 128,-1,14
 404 35 404 35 352 35 c 0,15,16
 299 35 299 35 245 55 c 128,-1,17
 191 75 191 75 147 115 c 128,-1,18
 103 155 103 155 75.5 216 c 128,-1,19
 48 277 48 277 48 358 c 0,0,1
613 362 m 0,20,21
 613 422 613 422 595 472 c 128,-1,22
 577 522 577 522 543.5 558.5 c 128,-1,23
 510 595 510 595 463 615.5 c 128,-1,24
 416 636 416 636 358 636 c 0,25,26
 301 636 301 636 253 616 c 128,-1,27
 205 596 205 596 170.5 559 c 128,-1,28
 136 522 136 522 116.5 471 c 128,-1,29
 97 420 97 420 97 358 c 0,30,31
 97 298 97 298 115 248 c 128,-1,32
 133 198 133 198 166.5 161.5 c 128,-1,33
 200 125 200 125 247 104.5 c 128,-1,34
 294 84 294 84 352 84 c 0,35,36
 409 84 409 84 457 104 c 128,-1,37
 505 124 505 124 539.5 161 c 128,-1,38
 574 198 574 198 593.5 249 c 128,-1,39
 613 300 613 300 613 362 c 0,20,21
413 456 m 0,40,41
 413 463 413 463 411 473.5 c 128,-1,42
 409 484 409 484 403.5 493 c 128,-1,43
 398 502 398 502 387 508.5 c 128,-1,44
 376 515 376 515 358 515 c 0,45,46
 331 515 331 515 316 497.5 c 128,-1,47
 301 480 301 480 301 443 c 2,48,-1
 301 291 l 2,49,50
 301 253 301 253 316 235.5 c 128,-1,51
 331 218 331 218 358 218 c 0,52,53
 376 218 376 218 386.5 224.5 c 128,-1,54
 397 231 397 231 402.5 240.5 c 128,-1,55
 408 250 408 250 410 261 c 128,-1,56
 412 272 412 272 413 281 c 0,57,58
 414 292 414 292 421.5 296 c 128,-1,59
 429 300 429 300 440 300 c 0,60,61
 454 300 454 300 460.5 293.5 c 128,-1,62
 467 287 467 287 467 270 c 0,63,64
 467 225 467 225 436.5 197 c 128,-1,65
 406 169 406 169 355 169 c 0,66,67
 333 169 333 169 313.5 175.5 c 128,-1,68
 294 182 294 182 279 196.5 c 128,-1,69
 264 211 264 211 255.5 234.5 c 128,-1,70
 247 258 247 258 247 291 c 2,71,-1
 247 443 l 2,72,73
 247 476 247 476 255.5 499.5 c 128,-1,74
 264 523 264 523 279 537.5 c 128,-1,75
 294 552 294 552 314 558.5 c 128,-1,76
 334 565 334 565 356 565 c 0,77,78
 407 565 407 565 437 537.5 c 128,-1,79
 467 510 467 510 467 466 c 0,80,81
 467 449 467 449 460.5 443 c 128,-1,82
 454 437 454 437 440 437 c 0,83,84
 428 437 428 437 420.5 441.5 c 128,-1,85
 413 446 413 446 413 456 c 0,40,41
EndSplineSet
EndChar
StartChar: ordfeminine
Encoding: 170 170 309
Width: 319
Flags: W
LayerCount: 2
Back
Fore
SplineSet
147 746 m 0,0,1
 181 746 181 746 205 735.5 c 128,-1,2
 229 725 229 725 244 707.5 c 128,-1,3
 259 690 259 690 266 667 c 128,-1,4
 273 644 273 644 273 620 c 2,5,-1
 273 458 l 2,6,7
 273 449 273 449 265 442.5 c 128,-1,8
 257 436 257 436 243 436 c 0,9,10
 232 436 232 436 223.5 442.5 c 128,-1,11
 215 449 215 449 215 458 c 2,12,-1
 215 481 l 1,13,14
 198 461 198 461 173.5 446.5 c 128,-1,15
 149 432 149 432 114 432 c 0,16,17
 80 432 80 432 56 453 c 128,-1,18
 32 474 32 474 32 517 c 0,19,20
 32 544 32 544 43 561.5 c 128,-1,21
 54 579 54 579 74 589.5 c 128,-1,22
 94 600 94 600 121.5 604 c 128,-1,23
 149 608 149 608 183 608 c 2,24,-1
 212 608 l 1,25,-1
 212 620 l 2,26,27
 212 633 212 633 208.5 646.5 c 128,-1,28
 205 660 205 660 197 670.5 c 128,-1,29
 189 681 189 681 176.5 687.5 c 128,-1,30
 164 694 164 694 146 694 c 256,31,32
 128 694 128 694 116.5 691 c 128,-1,33
 105 688 105 688 97 684.5 c 128,-1,34
 89 681 89 681 84 678 c 128,-1,35
 79 675 79 675 74 675 c 0,36,37
 63 675 63 675 57.5 685 c 128,-1,38
 52 695 52 695 52 706 c 0,39,40
 52 714 52 714 61 721 c 128,-1,41
 70 728 70 728 83.5 733.5 c 128,-1,42
 97 739 97 739 114 742.5 c 128,-1,43
 131 746 131 746 147 746 c 0,0,1
212 572 m 1,44,-1
 186 572 l 2,45,46
 168 572 168 572 151.5 570.5 c 128,-1,47
 135 569 135 569 122 563.5 c 128,-1,48
 109 558 109 558 101.5 548.5 c 128,-1,49
 94 539 94 539 94 524 c 0,50,51
 94 501 94 501 107 490 c 128,-1,52
 120 479 120 479 139 479 c 0,53,54
 152 479 152 479 165 485 c 128,-1,55
 178 491 178 491 188.5 500 c 128,-1,56
 199 509 199 509 205.5 520.5 c 128,-1,57
 212 532 212 532 212 544 c 2,58,-1
 212 572 l 1,44,-1
EndSplineSet
EndChar
StartChar: guillemotleft
Encoding: 171 171 238
Width: 434
Flags: W
LayerCount: 2
Back
Fore
SplineSet
203 126 m 2,0,1
 206 121 206 121 206 115 c 0,2,3
 206 101 206 101 191 87.5 c 128,-1,4
 176 74 176 74 156 74 c 0,5,6
 137 74 137 74 130 87 c 2,7,-1
 46 243 l 2,8,9
 40 254 40 254 36 261.5 c 128,-1,10
 32 269 32 269 32 277 c 256,11,12
 32 285 32 285 36 292.5 c 128,-1,13
 40 300 40 300 46 311 c 2,14,-1
 130 468 l 2,15,16
 138 481 138 481 157 481 c 0,17,18
 177 481 177 481 191.5 467 c 128,-1,19
 206 453 206 453 206 439 c 0,20,21
 206 434 206 434 203 428 c 2,22,-1
 122 277 l 1,23,-1
 203 126 l 2,0,1
391 126 m 2,24,25
 394 121 394 121 394 115 c 0,26,27
 394 101 394 101 379 87.5 c 128,-1,28
 364 74 364 74 344 74 c 0,29,30
 325 74 325 74 318 87 c 2,31,-1
 234 243 l 2,32,33
 227 255 227 255 223.5 262 c 128,-1,34
 220 269 220 269 220 277 c 256,35,36
 220 285 220 285 224 292.5 c 128,-1,37
 228 300 228 300 234 311 c 2,38,-1
 318 468 l 2,39,40
 321 474 321 474 328.5 477.5 c 128,-1,41
 336 481 336 481 345 481 c 0,42,43
 365 481 365 481 379.5 467 c 128,-1,44
 394 453 394 453 394 439 c 0,45,46
 394 434 394 434 391 428 c 2,47,-1
 310 277 l 1,48,-1
 391 126 l 2,24,25
EndSplineSet
EndChar
StartChar: logicalnot
Encoding: 172 172 271
Width: 486
Flags: W
LayerCount: 2
Back
Fore
SplineSet
44 240 m 0,0,1
 44 255 44 255 51.5 265.5 c 128,-1,2
 59 276 59 276 73 276 c 2,3,-1
 395 276 l 2,4,5
 406 276 406 276 415.5 265.5 c 128,-1,6
 425 255 425 255 425 240 c 2,7,-1
 425 92 l 2,8,9
 425 81 425 81 413 72 c 128,-1,10
 401 63 401 63 384 63 c 0,11,12
 366 63 366 63 354 72 c 128,-1,13
 342 81 342 81 342 92 c 2,14,-1
 342 205 l 1,15,-1
 73 205 l 2,16,17
 59 205 59 205 51.5 214.5 c 128,-1,18
 44 224 44 224 44 240 c 0,0,1
EndSplineSet
EndChar
StartChar: uni00AD
Encoding: 173 173 394
Width: 473
Flags: W
LayerCount: 2
Back
Fore
SplineSet
47 240 m 0,0,1
 47 255 47 255 54.5 265.5 c 128,-1,2
 62 276 62 276 76 276 c 2,3,-1
 396 276 l 2,4,5
 407 276 407 276 416.5 265.5 c 128,-1,6
 426 255 426 255 426 240 c 0,7,8
 426 224 426 224 416.5 214.5 c 128,-1,9
 407 205 407 205 396 205 c 2,10,-1
 76 205 l 2,11,12
 62 205 62 205 54.5 214.5 c 128,-1,13
 47 224 47 224 47 240 c 0,0,1
EndSplineSet
EndChar
StartChar: registered
Encoding: 174 174 345
Width: 710
Flags: W
LayerCount: 2
Back
Fore
SplineSet
48 358 m 0,0,1
 48 442 48 442 77 503.5 c 128,-1,2
 106 565 106 565 151 605.5 c 128,-1,3
 196 646 196 646 251 665.5 c 128,-1,4
 306 685 306 685 358 685 c 0,5,6
 411 685 411 685 465 665 c 128,-1,7
 519 645 519 645 563 605 c 128,-1,8
 607 565 607 565 634.5 504 c 128,-1,9
 662 443 662 443 662 362 c 0,10,11
 662 278 662 278 633 216.5 c 128,-1,12
 604 155 604 155 559 114.5 c 128,-1,13
 514 74 514 74 459 54.5 c 128,-1,14
 404 35 404 35 352 35 c 0,15,16
 299 35 299 35 245 55 c 128,-1,17
 191 75 191 75 147 115 c 128,-1,18
 103 155 103 155 75.5 216 c 128,-1,19
 48 277 48 277 48 358 c 0,0,1
257 539 m 2,20,21
 257 546 257 546 262 551.5 c 128,-1,22
 267 557 267 557 275 557 c 2,23,-1
 365 557 l 2,24,25
 387 557 387 557 407 551.5 c 128,-1,26
 427 546 427 546 442 533.5 c 128,-1,27
 457 521 457 521 466 500.5 c 128,-1,28
 475 480 475 480 475 450 c 0,29,30
 475 403 475 403 456 379 c 128,-1,31
 437 355 437 355 408 347 c 1,32,-1
 473 208 l 2,33,34
 474 205 474 205 474 201 c 0,35,36
 474 190 474 190 465 181.5 c 128,-1,37
 456 173 456 173 445 173 c 0,38,39
 438 173 438 173 434 178 c 128,-1,40
 430 183 430 183 426 191 c 2,41,-1
 357 339 l 1,42,-1
 309 339 l 1,43,-1
 309 193 l 2,44,45
 309 184 309 184 301.5 179 c 128,-1,46
 294 174 294 174 284 174 c 0,47,48
 273 174 273 174 265 179 c 128,-1,49
 257 184 257 184 257 193 c 2,50,-1
 257 539 l 2,20,21
309 510 m 1,51,-1
 309 383 l 1,52,-1
 365 383 l 2,53,54
 391 383 391 383 407 397.5 c 128,-1,55
 423 412 423 412 423 445 c 0,56,57
 423 481 423 481 407 495.5 c 128,-1,58
 391 510 391 510 365 510 c 2,59,-1
 309 510 l 1,51,-1
613 362 m 0,60,61
 613 422 613 422 595 472 c 128,-1,62
 577 522 577 522 543.5 558.5 c 128,-1,63
 510 595 510 595 463 615.5 c 128,-1,64
 416 636 416 636 358 636 c 0,65,66
 301 636 301 636 253 616 c 128,-1,67
 205 596 205 596 170.5 559 c 128,-1,68
 136 522 136 522 116.5 471 c 128,-1,69
 97 420 97 420 97 358 c 0,70,71
 97 298 97 298 115 248 c 128,-1,72
 133 198 133 198 166.5 161.5 c 128,-1,73
 200 125 200 125 247 104.5 c 128,-1,74
 294 84 294 84 352 84 c 0,75,76
 409 84 409 84 457 104 c 128,-1,77
 505 124 505 124 539.5 161 c 128,-1,78
 574 198 574 198 593.5 249 c 128,-1,79
 613 300 613 300 613 362 c 0,60,61
EndSplineSet
EndChar
StartChar: macron
Encoding: 175 175 276
Width: 271
Flags: W
LayerCount: 2
Back
Fore
SplineSet
0 658 m 0,0,1
 0 671 0 671 8 680 c 128,-1,2
 16 689 16 689 29 689 c 2,3,-1
 241 689 l 2,4,5
 252 689 252 689 261.5 680 c 128,-1,6
 271 671 271 671 271 658 c 0,7,8
 271 644 271 644 261.5 636 c 128,-1,9
 252 628 252 628 241 628 c 2,10,-1
 29 628 l 2,11,12
 16 628 16 628 8 636 c 128,-1,13
 0 644 0 644 0 658 c 0,0,1
EndSplineSet
EndChar
StartChar: degree
Encoding: 176 176 187
Width: 413
Flags: W
LayerCount: 2
Back
Fore
SplineSet
206 768 m 256,0,1
 242 768 242 768 274 754 c 128,-1,2
 306 740 306 740 330.5 715.5 c 128,-1,3
 355 691 355 691 369.5 658 c 128,-1,4
 384 625 384 625 384 588 c 0,5,6
 384 552 384 552 369.5 519.5 c 128,-1,7
 355 487 355 487 330.5 461.5 c 128,-1,8
 306 436 306 436 274 421 c 128,-1,9
 242 406 242 406 206 406 c 256,10,11
 170 406 170 406 138 421 c 128,-1,12
 106 436 106 436 82 461 c 128,-1,13
 58 486 58 486 43.5 519 c 128,-1,14
 29 552 29 552 29 588 c 256,15,16
 29 624 29 624 43 656.5 c 128,-1,17
 57 689 57 689 81 714 c 128,-1,18
 105 739 105 739 137.5 753.5 c 128,-1,19
 170 768 170 768 206 768 c 256,0,1
329 588 m 256,20,21
 329 612 329 612 319.5 634.5 c 128,-1,22
 310 657 310 657 293.5 674.5 c 128,-1,23
 277 692 277 692 254.5 702.5 c 128,-1,24
 232 713 232 713 206 713 c 256,25,26
 180 713 180 713 158 702.5 c 128,-1,27
 136 692 136 692 119.5 674.5 c 128,-1,28
 103 657 103 657 93.5 634.5 c 128,-1,29
 84 612 84 612 84 588 c 256,30,31
 84 564 84 564 93.5 541 c 128,-1,32
 103 518 103 518 119.5 500 c 128,-1,33
 136 482 136 482 158 471.5 c 128,-1,34
 180 461 180 461 206 461 c 0,35,36
 231 461 231 461 253.5 471.5 c 128,-1,37
 276 482 276 482 293 500 c 128,-1,38
 310 518 310 518 319.5 541 c 128,-1,39
 329 564 329 564 329 588 c 256,20,21
EndSplineSet
EndChar
StartChar: plusminus
Encoding: 177 177 325
Width: 470
Flags: W
LayerCount: 2
Back
Fore
SplineSet
236 172 m 0,0,1
 221 172 221 172 210.5 180 c 128,-1,2
 200 188 200 188 200 201 c 2,3,-1
 200 322 l 1,4,-1
 75 322 l 2,5,6
 62 322 62 322 54 331.5 c 128,-1,7
 46 341 46 341 46 357 c 0,8,9
 46 372 46 372 54 382.5 c 128,-1,10
 62 393 62 393 75 393 c 2,11,-1
 200 393 l 1,12,-1
 200 513 l 2,13,14
 200 524 200 524 210.5 533.5 c 128,-1,15
 221 543 221 543 236 543 c 0,16,17
 252 543 252 543 261.5 533.5 c 128,-1,18
 271 524 271 524 271 513 c 2,19,-1
 271 393 l 1,20,-1
 395 393 l 2,21,22
 406 393 406 393 415.5 382.5 c 128,-1,23
 425 372 425 372 425 357 c 0,24,25
 425 341 425 341 415.5 331.5 c 128,-1,26
 406 322 406 322 395 322 c 2,27,-1
 271 322 l 1,28,-1
 271 201 l 2,29,30
 271 188 271 188 261.5 180 c 128,-1,31
 252 172 252 172 236 172 c 0,0,1
46 85 m 0,32,33
 46 100 46 100 54 110.5 c 128,-1,34
 62 121 62 121 75 121 c 2,35,-1
 395 121 l 2,36,37
 406 121 406 121 415.5 110.5 c 128,-1,38
 425 100 425 100 425 85 c 0,39,40
 425 69 425 69 415.5 59.5 c 128,-1,41
 406 50 406 50 395 50 c 2,42,-1
 75 50 l 2,43,44
 62 50 62 50 54 59.5 c 128,-1,45
 46 69 46 69 46 85 c 0,32,33
EndSplineSet
EndChar
StartChar: twosuperior
Encoding: 178 178 381
Width: 310
Flags: W
LayerCount: 2
Back
Fore
SplineSet
39 636 m 0,0,1
 39 658 39 658 48.5 675.5 c 128,-1,2
 58 693 58 693 74 705.5 c 128,-1,3
 90 718 90 718 111 724.5 c 128,-1,4
 132 731 132 731 156 731 c 0,5,6
 181 731 181 731 203.5 723.5 c 128,-1,7
 226 716 226 716 242.5 702.5 c 128,-1,8
 259 689 259 689 269 669.5 c 128,-1,9
 279 650 279 650 279 626 c 0,10,11
 279 598 279 598 265 576 c 128,-1,12
 251 554 251 554 230.5 536 c 128,-1,13
 210 518 210 518 186 503 c 128,-1,14
 162 488 162 488 141.5 474.5 c 128,-1,15
 121 461 121 461 107 448 c 128,-1,16
 93 435 93 435 93 421 c 2,17,-1
 93 401 l 1,18,-1
 262 401 l 2,19,20
 270 401 270 401 276 393.5 c 128,-1,21
 282 386 282 386 282 375 c 256,22,23
 282 364 282 364 276 356 c 128,-1,24
 270 348 270 348 262 348 c 2,25,-1
 58 348 l 2,26,27
 49 348 49 348 39.5 353.5 c 128,-1,28
 30 359 30 359 30 368 c 2,29,-1
 30 418 l 2,30,31
 30 439 30 439 44 457 c 128,-1,32
 58 475 58 475 79 491.5 c 128,-1,33
 100 508 100 508 124.5 523.5 c 128,-1,34
 149 539 149 539 170 555 c 128,-1,35
 191 571 191 571 205 587.5 c 128,-1,36
 219 604 219 604 219 624 c 0,37,38
 219 642 219 642 204 659 c 128,-1,39
 189 676 189 676 156 676 c 0,40,41
 131 676 131 676 114.5 664 c 128,-1,42
 98 652 98 652 98 626 c 0,43,44
 98 618 98 618 89.5 611 c 128,-1,45
 81 604 81 604 66 604 c 0,46,47
 54 604 54 604 46.5 610.5 c 128,-1,48
 39 617 39 617 39 636 c 0,0,1
EndSplineSet
EndChar
StartChar: threesuperior
Encoding: 179 179 376
Width: 317
Flags: W
LayerCount: 2
Back
Fore
SplineSet
154 398 m 0,0,1
 190 398 190 398 207 412.5 c 128,-1,2
 224 427 224 427 224 460 c 2,3,-1
 224 469 l 2,4,5
 224 501 224 501 205 512.5 c 128,-1,6
 186 524 186 524 154 524 c 0,7,8
 143 524 143 524 138.5 531.5 c 128,-1,9
 134 539 134 539 134 547 c 0,10,11
 134 557 134 557 138.5 564.5 c 128,-1,12
 143 572 143 572 154 572 c 0,13,14
 180 572 180 572 196.5 582 c 128,-1,15
 213 592 213 592 213 627 c 0,16,17
 213 655 213 655 198.5 666.5 c 128,-1,18
 184 678 184 678 156 678 c 0,19,20
 121 678 121 678 108 666 c 128,-1,21
 95 654 95 654 95 638 c 0,22,23
 95 627 95 627 89.5 621 c 128,-1,24
 84 615 84 615 67 615 c 0,25,26
 47 615 47 615 41.5 620.5 c 128,-1,27
 36 626 36 626 36 641 c 0,28,29
 36 654 36 654 41.5 670 c 128,-1,30
 47 686 47 686 60.5 699.5 c 128,-1,31
 74 713 74 713 97 722 c 128,-1,32
 120 731 120 731 156 731 c 0,33,34
 206 731 206 731 239 710 c 128,-1,35
 272 689 272 689 272 637 c 0,36,37
 272 605 272 605 259.5 582 c 128,-1,38
 247 559 247 559 226 550 c 1,39,40
 252 541 252 541 268 521.5 c 128,-1,41
 284 502 284 502 284 469 c 2,42,-1
 284 460 l 2,43,44
 284 428 284 428 274 406.5 c 128,-1,45
 264 385 264 385 246 371 c 128,-1,46
 228 357 228 357 204 351 c 128,-1,47
 180 345 180 345 153 345 c 0,48,49
 120 345 120 345 96 353.5 c 128,-1,50
 72 362 72 362 56.5 375.5 c 128,-1,51
 41 389 41 389 33.5 405.5 c 128,-1,52
 26 422 26 422 26 438 c 0,53,54
 26 453 26 453 32.5 457.5 c 128,-1,55
 39 462 39 462 54 462 c 0,56,57
 73 462 73 462 79.5 457 c 128,-1,58
 86 452 86 452 86 441 c 0,59,60
 86 424 86 424 102.5 411 c 128,-1,61
 119 398 119 398 154 398 c 0,0,1
EndSplineSet
EndChar
StartChar: acute
Encoding: 180 180 136
Width: 168
Flags: W
LayerCount: 2
Back
Fore
SplineSet
41 588 m 2,0,1
 38 586 38 586 35.5 585 c 128,-1,2
 33 584 33 584 30 584 c 0,3,4
 17 584 17 584 8.5 595 c 128,-1,5
 0 606 0 606 0 618 c 0,6,7
 0 633 0 633 13 640 c 2,8,-1
 130 702 l 2,9,10
 136 704 136 704 140 704 c 0,11,12
 153 704 153 704 160.5 693 c 128,-1,13
 168 682 168 682 168 670 c 0,14,15
 168 663 168 663 165 656.5 c 128,-1,16
 162 650 162 650 154 646 c 2,17,-1
 41 588 l 2,0,1
EndSplineSet
EndChar
StartChar: mu
Encoding: 181 181 278
Width: 497
Flags: W
LayerCount: 2
Back
Fore
SplineSet
263 -8 m 256,0,1
 223 -8 223 -8 191 9.5 c 128,-1,2
 159 27 159 27 141 50 c 1,3,-1
 141 -200 l 2,4,5
 141 -211 141 -211 130.5 -220 c 128,-1,6
 120 -229 120 -229 106 -229 c 0,7,8
 89 -229 89 -229 77.5 -220 c 128,-1,9
 66 -211 66 -211 66 -200 c 2,10,-1
 66 444 l 2,11,12
 66 455 66 455 78 464.5 c 128,-1,13
 90 474 90 474 107 474 c 256,14,15
 124 474 124 474 136.5 464.5 c 128,-1,16
 149 455 149 455 149 444 c 2,17,-1
 149 170 l 2,18,19
 149 154 149 154 158.5 136 c 128,-1,20
 168 118 168 118 184 102.5 c 128,-1,21
 200 87 200 87 220.5 77 c 128,-1,22
 241 67 241 67 264 67 c 0,23,24
 286 67 286 67 306 77 c 128,-1,25
 326 87 326 87 341 103.5 c 128,-1,26
 356 120 356 120 365 141 c 128,-1,27
 374 162 374 162 374 184 c 2,28,-1
 374 444 l 2,29,30
 374 457 374 457 386.5 465.5 c 128,-1,31
 399 474 399 474 415 474 c 0,32,33
 433 474 433 474 445 465.5 c 128,-1,34
 457 457 457 457 457 444 c 2,35,-1
 457 184 l 2,36,37
 457 145 457 145 442 110 c 128,-1,38
 427 75 427 75 400.5 49 c 128,-1,39
 374 23 374 23 338.5 7.5 c 128,-1,40
 303 -8 303 -8 263 -8 c 256,0,1
EndSplineSet
EndChar
StartChar: paragraph
Encoding: 182 182 315
Width: 531
Flags: W
LayerCount: 2
Back
Fore
SplineSet
430 731 m 2,0,1
 441 731 441 731 450.5 723.5 c 128,-1,2
 460 716 460 716 460 701 c 2,3,-1
 460 29 l 2,4,5
 460 14 460 14 450.5 7 c 128,-1,6
 441 0 441 0 430 0 c 256,7,8
 419 0 419 0 409.5 7 c 128,-1,9
 400 14 400 14 400 29 c 2,10,-1
 400 683 l 1,11,-1
 321 683 l 1,12,-1
 321 30 l 2,13,14
 321 15 321 15 311.5 7.5 c 128,-1,15
 302 0 302 0 291 0 c 256,16,17
 280 0 280 0 270.5 7.5 c 128,-1,18
 261 15 261 15 261 30 c 2,19,-1
 261 306 l 1,20,-1
 225 306 l 2,21,22
 184 306 184 306 148 317 c 128,-1,23
 112 328 112 328 85.5 353 c 128,-1,24
 59 378 59 378 44 417.5 c 128,-1,25
 29 457 29 457 29 513 c 2,26,-1
 29 525 l 2,27,28
 29 581 29 581 44 620.5 c 128,-1,29
 59 660 59 660 85.5 684.5 c 128,-1,30
 112 709 112 709 148 720 c 128,-1,31
 184 731 184 731 225 731 c 2,32,-1
 430 731 l 2,0,1
EndSplineSet
EndChar
StartChar: periodcentered
Encoding: 183 183 321
Width: 188
Flags: W
LayerCount: 2
Back
Fore
SplineSet
95 350 m 0,0,1
 117 350 117 350 132.5 335 c 128,-1,2
 148 320 148 320 148 300 c 256,3,4
 148 280 148 280 132.5 265 c 128,-1,5
 117 250 117 250 95 250 c 0,6,7
 72 250 72 250 56 265 c 128,-1,8
 40 280 40 280 40 300 c 256,9,10
 40 320 40 320 56 335 c 128,-1,11
 72 350 72 350 95 350 c 0,0,1
EndSplineSet
EndChar
StartChar: cedilla
Encoding: 184 184 174
Width: 173
Flags: W
LayerCount: 2
Back
Fore
SplineSet
77 -58 m 1,0,1
 128 -60 128 -60 150.5 -81.5 c 128,-1,2
 173 -103 173 -103 173 -131 c 0,3,4
 173 -145 173 -145 167.5 -159.5 c 128,-1,5
 162 -174 162 -174 151 -185.5 c 128,-1,6
 140 -197 140 -197 122.5 -204.5 c 128,-1,7
 105 -212 105 -212 80 -212 c 0,8,9
 69 -212 69 -212 55 -210.5 c 128,-1,10
 41 -209 41 -209 29 -205.5 c 128,-1,11
 17 -202 17 -202 8.5 -197 c 128,-1,12
 0 -192 0 -192 0 -185 c 0,13,14
 0 -180 0 -180 4.5 -168.5 c 128,-1,15
 9 -157 9 -157 18 -157 c 0,16,17
 25 -157 25 -157 37.5 -164 c 128,-1,18
 50 -171 50 -171 74 -171 c 0,19,20
 101 -171 101 -171 113.5 -160.5 c 128,-1,21
 126 -150 126 -150 126 -134 c 0,22,23
 126 -114 126 -114 110.5 -104.5 c 128,-1,24
 95 -95 95 -95 67 -93 c 2,25,-1
 24 -90 l 1,26,-1
 50 9 l 1,27,-1
 95 9 l 1,28,-1
 77 -58 l 1,0,1
EndSplineSet
EndChar
StartChar: onesuperior
Encoding: 185 185 307
Width: 175
Flags: W
LayerCount: 2
Back
Fore
SplineSet
68 654 m 1,0,-1
 48 634 l 2,1,2
 42 629 42 629 35 629 c 0,3,4
 26 629 26 629 20 636.5 c 128,-1,5
 14 644 14 644 14 653 c 0,6,7
 14 659 14 659 17.5 665.5 c 128,-1,8
 21 672 21 672 26 675 c 2,9,-1
 86 726 l 2,10,11
 92 732 92 732 102 732 c 0,12,13
 111 732 111 732 119.5 726.5 c 128,-1,14
 128 721 128 721 128 712 c 2,15,-1
 128 368 l 2,16,17
 128 357 128 357 118.5 352.5 c 128,-1,18
 109 348 109 348 98 348 c 256,19,20
 87 348 87 348 77.5 352.5 c 128,-1,21
 68 357 68 357 68 368 c 2,22,-1
 68 654 l 1,0,-1
EndSplineSet
EndChar
StartChar: ordmasculine
Encoding: 186 186 310
Width: 331
Flags: W
LayerCount: 2
Back
Fore
SplineSet
165 746 m 0,0,1
 191 746 191 746 215 736 c 128,-1,2
 239 726 239 726 257 709 c 128,-1,3
 275 692 275 692 285.5 669 c 128,-1,4
 296 646 296 646 296 620 c 2,5,-1
 296 558 l 2,6,7
 296 533 296 533 285.5 510 c 128,-1,8
 275 487 275 487 257 469.5 c 128,-1,9
 239 452 239 452 215 441.5 c 128,-1,10
 191 431 191 431 165 431 c 256,11,12
 139 431 139 431 115.5 441.5 c 128,-1,13
 92 452 92 452 74 469.5 c 128,-1,14
 56 487 56 487 45.5 510 c 128,-1,15
 35 533 35 533 35 558 c 2,16,-1
 35 620 l 2,17,18
 35 645 35 645 45 668 c 128,-1,19
 55 691 55 691 73 708 c 128,-1,20
 91 725 91 725 114.5 735.5 c 128,-1,21
 138 746 138 746 165 746 c 0,0,1
235 620 m 2,22,23
 235 647 235 647 214.5 668.5 c 128,-1,24
 194 690 194 690 165 690 c 256,25,26
 136 690 136 690 116.5 668.5 c 128,-1,27
 97 647 97 647 97 620 c 2,28,-1
 97 558 l 2,29,30
 97 530 97 530 116.5 508 c 128,-1,31
 136 486 136 486 165 486 c 256,32,33
 194 486 194 486 214.5 508 c 128,-1,34
 235 530 235 530 235 558 c 2,35,-1
 235 620 l 2,22,23
EndSplineSet
EndChar
StartChar: guillemotright
Encoding: 187 187 239
Width: 434
Flags: W
LayerCount: 2
Back
Fore
SplineSet
312 277 m 1,0,-1
 230 428 l 2,1,2
 227 434 227 434 227 439 c 0,3,4
 227 453 227 453 241.5 467 c 128,-1,5
 256 481 256 481 276 481 c 256,6,7
 296 481 296 481 303 468 c 2,8,-1
 388 311 l 2,9,10
 394 300 394 300 398 292.5 c 128,-1,11
 402 285 402 285 402 277 c 256,12,13
 402 269 402 269 398 261.5 c 128,-1,14
 394 254 394 254 388 243 c 2,15,-1
 303 87 l 2,16,17
 296 74 296 74 277 74 c 0,18,19
 257 74 257 74 242 87.5 c 128,-1,20
 227 101 227 101 227 115 c 0,21,22
 227 121 227 121 230 126 c 2,23,-1
 312 277 l 1,0,-1
124 277 m 1,24,-1
 43 428 l 2,25,26
 40 434 40 434 40 439 c 0,27,28
 40 453 40 453 54.5 467 c 128,-1,29
 69 481 69 481 89 481 c 0,30,31
 108 481 108 481 116 468 c 2,32,-1
 200 311 l 2,33,34
 206 300 206 300 210 292.5 c 128,-1,35
 214 285 214 285 214 277 c 256,36,37
 214 269 214 269 210 261.5 c 128,-1,38
 206 254 206 254 200 243 c 2,39,-1
 116 87 l 2,40,41
 109 74 109 74 90 74 c 0,42,43
 70 74 70 74 55 87.5 c 128,-1,44
 40 101 40 101 40 115 c 0,45,46
 40 121 40 121 43 126 c 2,47,-1
 124 277 l 1,24,-1
EndSplineSet
EndChar
StartChar: onequarter
Encoding: 188 188 306
Width: 619
Flags: W
LayerCount: 2
Back
Fore
SplineSet
81 654 m 1,0,-1
 61 634 l 2,1,2
 55 629 55 629 48 629 c 0,3,4
 39 629 39 629 33 636.5 c 128,-1,5
 27 644 27 644 27 653 c 0,6,7
 27 659 27 659 30.5 665.5 c 128,-1,8
 34 672 34 672 39 675 c 2,9,-1
 99 726 l 2,10,11
 105 732 105 732 115 732 c 0,12,13
 124 732 124 732 132.5 726.5 c 128,-1,14
 141 721 141 721 141 712 c 2,15,-1
 141 368 l 2,16,17
 141 357 141 357 131.5 352.5 c 128,-1,18
 122 348 122 348 111 348 c 256,19,20
 100 348 100 348 90.5 352.5 c 128,-1,21
 81 357 81 357 81 368 c 2,22,-1
 81 654 l 1,0,-1
474 770 m 0,23,24
 486 770 486 770 497 760.5 c 128,-1,25
 508 751 508 751 508 737 c 0,26,27
 508 730 508 730 505 723 c 2,28,-1
 131 -14 l 2,29,30
 127 -22 127 -22 119.5 -26 c 128,-1,31
 112 -30 112 -30 103 -30 c 0,32,33
 89 -30 89 -30 80 -21 c 128,-1,34
 71 -12 71 -12 71 0 c 0,35,36
 71 7 71 7 74 13 c 2,37,-1
 449 755 l 2,38,39
 453 763 453 763 459.5 766.5 c 128,-1,40
 466 770 466 770 474 770 c 0,23,24
488 85 m 1,41,-1
 346 85 l 2,42,43
 337 85 337 85 331 90.5 c 128,-1,44
 325 96 325 96 325 107 c 0,45,46
 325 113 325 113 328 119 c 2,47,-1
 467 367 l 2,48,49
 477 383 477 383 494 383 c 0,50,51
 502 383 502 383 513 377 c 128,-1,52
 524 371 524 371 524 360 c 0,53,54
 524 357 524 357 522 351 c 2,55,-1
 402 141 l 1,56,-1
 488 141 l 1,57,-1
 488 207 l 2,58,59
 488 217 488 217 497 221.5 c 128,-1,60
 506 226 506 226 517 226 c 0,61,62
 529 226 529 226 538.5 221.5 c 128,-1,63
 548 217 548 217 548 207 c 2,64,-1
 548 141 l 1,65,-1
 577 141 l 2,66,67
 587 141 587 141 592 132.5 c 128,-1,68
 597 124 597 124 597 113 c 256,69,70
 597 102 597 102 591 93.5 c 128,-1,71
 585 85 585 85 577 85 c 2,72,-1
 548 85 l 1,73,-1
 548 20 l 2,74,75
 548 9 548 9 538.5 4.5 c 128,-1,76
 529 0 529 0 517 0 c 0,77,78
 506 0 506 0 497 4.5 c 128,-1,79
 488 9 488 9 488 20 c 2,80,-1
 488 85 l 1,41,-1
EndSplineSet
Ligature2: "'frac' Diagonal Fractions in Latin lookup 9 subtable" one slash four
EndChar
StartChar: onehalf
Encoding: 189 189 304
Width: 625
Flags: W
LayerCount: 2
Back
Fore
SplineSet
353 288 m 0,0,1
 353 310 353 310 362.5 327.5 c 128,-1,2
 372 345 372 345 388 357.5 c 128,-1,3
 404 370 404 370 425 376.5 c 128,-1,4
 446 383 446 383 470 383 c 0,5,6
 495 383 495 383 517.5 375.5 c 128,-1,7
 540 368 540 368 556.5 354.5 c 128,-1,8
 573 341 573 341 583 321.5 c 128,-1,9
 593 302 593 302 593 278 c 0,10,11
 593 250 593 250 579 228 c 128,-1,12
 565 206 565 206 544.5 188 c 128,-1,13
 524 170 524 170 500 155 c 128,-1,14
 476 140 476 140 455.5 126.5 c 128,-1,15
 435 113 435 113 421 100 c 128,-1,16
 407 87 407 87 407 73 c 2,17,-1
 407 53 l 1,18,-1
 576 53 l 2,19,20
 584 53 584 53 590 45.5 c 128,-1,21
 596 38 596 38 596 27 c 256,22,23
 596 16 596 16 590 8 c 128,-1,24
 584 0 584 0 576 0 c 2,25,-1
 372 0 l 2,26,27
 363 0 363 0 353.5 5.5 c 128,-1,28
 344 11 344 11 344 20 c 2,29,-1
 344 71 l 2,30,31
 344 92 344 92 358 110 c 128,-1,32
 372 128 372 128 393 144 c 128,-1,33
 414 160 414 160 438.5 175.5 c 128,-1,34
 463 191 463 191 484 207 c 128,-1,35
 505 223 505 223 519 239.5 c 128,-1,36
 533 256 533 256 533 276 c 0,37,38
 533 294 533 294 518 311 c 128,-1,39
 503 328 503 328 470 328 c 0,40,41
 445 328 445 328 428.5 316 c 128,-1,42
 412 304 412 304 412 278 c 0,43,44
 412 270 412 270 403.5 263 c 128,-1,45
 395 256 395 256 380 256 c 0,46,47
 368 256 368 256 360.5 262.5 c 128,-1,48
 353 269 353 269 353 288 c 0,0,1
80 654 m 1,49,-1
 60 634 l 2,50,51
 54 629 54 629 47 629 c 0,52,53
 38 629 38 629 32 636.5 c 128,-1,54
 26 644 26 644 26 653 c 0,55,56
 26 659 26 659 29.5 665.5 c 128,-1,57
 33 672 33 672 38 675 c 2,58,-1
 98 726 l 2,59,60
 104 732 104 732 114 732 c 0,61,62
 123 732 123 732 131.5 726.5 c 128,-1,63
 140 721 140 721 140 712 c 2,64,-1
 140 368 l 2,65,66
 140 357 140 357 130.5 352.5 c 128,-1,67
 121 348 121 348 110 348 c 256,68,69
 99 348 99 348 89.5 352.5 c 128,-1,70
 80 357 80 357 80 368 c 2,71,-1
 80 654 l 1,49,-1
457 770 m 0,72,73
 469 770 469 770 480 760.5 c 128,-1,74
 491 751 491 751 491 737 c 0,75,76
 491 730 491 730 488 723 c 2,77,-1
 114 -14 l 2,78,79
 110 -22 110 -22 102.5 -26 c 128,-1,80
 95 -30 95 -30 86 -30 c 0,81,82
 72 -30 72 -30 63 -21 c 128,-1,83
 54 -12 54 -12 54 0 c 0,84,85
 54 7 54 7 57 13 c 2,86,-1
 432 755 l 2,87,88
 436 763 436 763 442.5 766.5 c 128,-1,89
 449 770 449 770 457 770 c 0,72,73
EndSplineSet
Ligature2: "'frac' Diagonal Fractions in Latin lookup 9 subtable" one slash two
EndChar
StartChar: threequarters
Encoding: 190 190 375
Width: 751
Flags: W
LayerCount: 2
Back
Fore
SplineSet
158 398 m 0,0,1
 194 398 194 398 211 412.5 c 128,-1,2
 228 427 228 427 228 460 c 2,3,-1
 228 469 l 2,4,5
 228 501 228 501 209 512.5 c 128,-1,6
 190 524 190 524 158 524 c 0,7,8
 147 524 147 524 142.5 531.5 c 128,-1,9
 138 539 138 539 138 547 c 0,10,11
 138 557 138 557 142.5 564.5 c 128,-1,12
 147 572 147 572 158 572 c 0,13,14
 184 572 184 572 200.5 582 c 128,-1,15
 217 592 217 592 217 627 c 0,16,17
 217 655 217 655 202.5 666.5 c 128,-1,18
 188 678 188 678 160 678 c 0,19,20
 125 678 125 678 112 666 c 128,-1,21
 99 654 99 654 99 638 c 0,22,23
 99 627 99 627 93.5 621 c 128,-1,24
 88 615 88 615 71 615 c 0,25,26
 51 615 51 615 45.5 620.5 c 128,-1,27
 40 626 40 626 40 641 c 0,28,29
 40 654 40 654 45.5 670 c 128,-1,30
 51 686 51 686 64.5 699.5 c 128,-1,31
 78 713 78 713 101 722 c 128,-1,32
 124 731 124 731 160 731 c 0,33,34
 210 731 210 731 243 710 c 128,-1,35
 276 689 276 689 276 637 c 0,36,37
 276 605 276 605 263.5 582 c 128,-1,38
 251 559 251 559 230 550 c 1,39,40
 256 541 256 541 272 521.5 c 128,-1,41
 288 502 288 502 288 469 c 2,42,-1
 288 460 l 2,43,44
 288 428 288 428 278 406.5 c 128,-1,45
 268 385 268 385 250 371 c 128,-1,46
 232 357 232 357 208 351 c 128,-1,47
 184 345 184 345 157 345 c 0,48,49
 124 345 124 345 100 353.5 c 128,-1,50
 76 362 76 362 60.5 375.5 c 128,-1,51
 45 389 45 389 37.5 405.5 c 128,-1,52
 30 422 30 422 30 438 c 0,53,54
 30 453 30 453 36.5 457.5 c 128,-1,55
 43 462 43 462 58 462 c 0,56,57
 77 462 77 462 83.5 457 c 128,-1,58
 90 452 90 452 90 441 c 0,59,60
 90 424 90 424 106.5 411 c 128,-1,61
 123 398 123 398 158 398 c 0,0,1
620 85 m 1,62,-1
 478 85 l 2,63,64
 469 85 469 85 463 90.5 c 128,-1,65
 457 96 457 96 457 107 c 0,66,67
 457 113 457 113 460 119 c 2,68,-1
 599 367 l 2,69,70
 609 383 609 383 626 383 c 0,71,72
 634 383 634 383 645 377 c 128,-1,73
 656 371 656 371 656 360 c 0,74,75
 656 357 656 357 654 351 c 2,76,-1
 534 141 l 1,77,-1
 620 141 l 1,78,-1
 620 207 l 2,79,80
 620 217 620 217 629 221.5 c 128,-1,81
 638 226 638 226 649 226 c 0,82,83
 661 226 661 226 670.5 221.5 c 128,-1,84
 680 217 680 217 680 207 c 2,85,-1
 680 141 l 1,86,-1
 709 141 l 2,87,88
 719 141 719 141 724 132.5 c 128,-1,89
 729 124 729 124 729 113 c 256,90,91
 729 102 729 102 723 93.5 c 128,-1,92
 717 85 717 85 709 85 c 2,93,-1
 680 85 l 1,94,-1
 680 20 l 2,95,96
 680 9 680 9 670.5 4.5 c 128,-1,97
 661 0 661 0 649 0 c 0,98,99
 638 0 638 0 629 4.5 c 128,-1,100
 620 9 620 9 620 20 c 2,101,-1
 620 85 l 1,62,-1
600 770 m 0,102,103
 612 770 612 770 623 760.5 c 128,-1,104
 634 751 634 751 634 737 c 0,105,106
 634 730 634 730 631 723 c 2,107,-1
 257 -14 l 2,108,109
 253 -22 253 -22 245.5 -26 c 128,-1,110
 238 -30 238 -30 229 -30 c 0,111,112
 215 -30 215 -30 206 -21 c 128,-1,113
 197 -12 197 -12 197 0 c 0,114,115
 197 7 197 7 200 13 c 2,116,-1
 575 755 l 2,117,118
 579 763 579 763 585.5 766.5 c 128,-1,119
 592 770 592 770 600 770 c 0,102,103
EndSplineSet
Ligature2: "'frac' Diagonal Fractions in Latin lookup 9 subtable" three slash four
EndChar
StartChar: questiondown
Encoding: 191 191 330
Width: 408
Flags: W
LayerCount: 2
Back
Fore
SplineSet
30 169 m 0,0,1
 30 214 30 214 45 248 c 128,-1,2
 60 282 60 282 81 308 c 128,-1,3
 102 334 102 334 124 353 c 128,-1,4
 146 372 146 372 159 387 c 0,5,6
 173 401 173 401 181 415.5 c 128,-1,7
 189 430 189 430 192.5 447.5 c 128,-1,8
 196 465 196 465 197 486 c 128,-1,9
 198 507 198 507 198 534 c 0,10,11
 198 545 198 545 205.5 552.5 c 128,-1,12
 213 560 213 560 232 560 c 0,13,14
 248 560 248 560 256 552 c 128,-1,15
 264 544 264 544 264 523 c 0,16,17
 264 483 264 483 260 455.5 c 128,-1,18
 256 428 256 428 249.5 409 c 128,-1,19
 243 390 243 390 234 377 c 128,-1,20
 225 364 225 364 216 354 c 0,21,22
 201 338 201 338 181 321.5 c 128,-1,23
 161 305 161 305 143.5 284.5 c 128,-1,24
 126 264 126 264 113.5 238 c 128,-1,25
 101 212 101 212 101 177 c 0,26,27
 101 122 101 122 134 91.5 c 128,-1,28
 167 61 167 61 227 61 c 0,29,30
 261 61 261 61 280.5 69.5 c 128,-1,31
 300 78 300 78 312.5 88 c 128,-1,32
 325 98 325 98 333 106.5 c 128,-1,33
 341 115 341 115 353 115 c 0,34,35
 364 115 364 115 375 107 c 128,-1,36
 386 99 386 99 386 82 c 0,37,38
 386 68 386 68 374.5 53 c 128,-1,39
 363 38 363 38 341.5 24.5 c 128,-1,40
 320 11 320 11 290 2.5 c 128,-1,41
 260 -6 260 -6 224 -6 c 0,42,43
 177 -6 177 -6 140.5 7.5 c 128,-1,44
 104 21 104 21 79.5 44.5 c 128,-1,45
 55 68 55 68 42.5 100 c 128,-1,46
 30 132 30 132 30 169 c 0,0,1
231 636 m 0,47,48
 210 636 210 636 194.5 651.5 c 128,-1,49
 179 667 179 667 179 689 c 0,50,51
 179 710 179 710 194 725.5 c 128,-1,52
 209 741 209 741 231 741 c 0,53,54
 254 741 254 741 268.5 725.5 c 128,-1,55
 283 710 283 710 283 689 c 0,56,57
 283 667 283 667 268 651.5 c 128,-1,58
 253 636 253 636 231 636 c 0,47,48
EndSplineSet
EndChar
StartChar: Aacute
Encoding: 193 193 4
Width: 550
Flags: W
LayerCount: 2
Back
Fore
SplineSet
68 0 m 0,0,1
 51 0 51 0 34 9.5 c 128,-1,2
 17 19 17 19 17 35 c 0,3,4
 17 37 17 37 19 43 c 2,5,-1
 223 708 l 2,6,7
 228 723 228 723 243 730 c 128,-1,8
 258 737 258 737 275 737 c 256,9,10
 292 737 292 737 307 729.5 c 128,-1,11
 322 722 322 722 327 708 c 2,12,-1
 531 43 l 2,13,14
 531 41 531 41 531.5 39.5 c 128,-1,15
 532 38 532 38 532 36 c 0,16,17
 532 21 532 21 515 10.5 c 128,-1,18
 498 0 498 0 480 0 c 0,19,20
 469 0 469 0 461 4.5 c 128,-1,21
 453 9 453 9 450 19 c 2,22,-1
 406 168 l 1,23,-1
 143 168 l 1,24,-1
 99 19 l 2,25,26
 93 0 93 0 68 0 c 0,0,1
386 237 m 1,27,-1
 275 613 l 1,28,-1
 162 237 l 1,29,-1
 386 237 l 1,27,-1
247 839 m 2,30,31
 244 837 244 837 241.5 836 c 128,-1,32
 239 835 239 835 236 835 c 0,33,34
 223 835 223 835 214.5 846 c 128,-1,35
 206 857 206 857 206 869 c 0,36,37
 206 884 206 884 219 891 c 2,38,-1
 336 953 l 2,39,40
 342 955 342 955 346 955 c 0,41,42
 359 955 359 955 366.5 944 c 128,-1,43
 374 933 374 933 374 921 c 0,44,45
 374 914 374 914 371 907.5 c 128,-1,46
 368 901 368 901 360 897 c 2,47,-1
 247 839 l 2,30,31
EndSplineSet
EndChar
StartChar: Acircumflex
Encoding: 194 194 6
Width: 550
Flags: W
LayerCount: 2
Back
Fore
SplineSet
68 0 m 0,0,1
 51 0 51 0 34 9.5 c 128,-1,2
 17 19 17 19 17 35 c 0,3,4
 17 37 17 37 19 43 c 2,5,-1
 223 708 l 2,6,7
 228 723 228 723 243 730 c 128,-1,8
 258 737 258 737 275 737 c 256,9,10
 292 737 292 737 307 729.5 c 128,-1,11
 322 722 322 722 327 708 c 2,12,-1
 531 43 l 2,13,14
 531 41 531 41 531.5 39.5 c 128,-1,15
 532 38 532 38 532 36 c 0,16,17
 532 21 532 21 515 10.5 c 128,-1,18
 498 0 498 0 480 0 c 0,19,20
 469 0 469 0 461 4.5 c 128,-1,21
 453 9 453 9 450 19 c 2,22,-1
 406 168 l 1,23,-1
 143 168 l 1,24,-1
 99 19 l 2,25,26
 93 0 93 0 68 0 c 0,0,1
386 237 m 1,27,-1
 275 613 l 1,28,-1
 162 237 l 1,29,-1
 386 237 l 1,27,-1
170 842 m 2,30,31
 165 839 165 839 161 839 c 0,32,33
 152 839 152 839 145 848 c 128,-1,34
 138 857 138 857 138 868 c 0,35,36
 138 876 138 876 141.5 883 c 128,-1,37
 145 890 145 890 153 894 c 2,38,-1
 257 950 l 2,39,40
 267 955 267 955 274 955 c 0,41,42
 283 955 283 955 291 950 c 2,43,-1
 395 895 l 2,44,45
 411 886 411 886 411 867 c 0,46,47
 411 856 411 856 404.5 847.5 c 128,-1,48
 398 839 398 839 388 839 c 0,49,50
 386 839 386 839 383.5 840 c 128,-1,51
 381 841 381 841 378 842 c 2,52,-1
 274 898 l 1,53,-1
 170 842 l 2,30,31
EndSplineSet
EndChar
StartChar: Atilde
Encoding: 195 195 12
Width: 550
Flags: W
LayerCount: 2
Back
Fore
SplineSet
68 0 m 0,0,1
 51 0 51 0 34 9.5 c 128,-1,2
 17 19 17 19 17 35 c 0,3,4
 17 37 17 37 19 43 c 2,5,-1
 223 708 l 2,6,7
 228 723 228 723 243 730 c 128,-1,8
 258 737 258 737 275 737 c 256,9,10
 292 737 292 737 307 729.5 c 128,-1,11
 322 722 322 722 327 708 c 2,12,-1
 531 43 l 2,13,14
 531 41 531 41 531.5 39.5 c 128,-1,15
 532 38 532 38 532 36 c 0,16,17
 532 21 532 21 515 10.5 c 128,-1,18
 498 0 498 0 480 0 c 0,19,20
 469 0 469 0 461 4.5 c 128,-1,21
 453 9 453 9 450 19 c 2,22,-1
 406 168 l 1,23,-1
 143 168 l 1,24,-1
 99 19 l 2,25,26
 93 0 93 0 68 0 c 0,0,1
386 237 m 1,27,-1
 275 613 l 1,28,-1
 162 237 l 1,29,-1
 386 237 l 1,27,-1
214 887 m 0,30,31
 198 887 198 887 186.5 882.5 c 128,-1,32
 175 878 175 878 166.5 872.5 c 128,-1,33
 158 867 158 867 151.5 862.5 c 128,-1,34
 145 858 145 858 138 858 c 0,35,36
 125 858 125 858 120 868.5 c 128,-1,37
 115 879 115 879 115 887 c 0,38,39
 115 903 115 903 124.5 915 c 128,-1,40
 134 927 134 927 147.5 934 c 128,-1,41
 161 941 161 941 176 944.5 c 128,-1,42
 191 948 191 948 202 948 c 0,43,44
 222 948 222 948 238.5 943 c 128,-1,45
 255 938 255 938 270 931.5 c 128,-1,46
 285 925 285 925 301 920 c 128,-1,47
 317 915 317 915 337 915 c 0,48,49
 353 915 353 915 364 919 c 128,-1,50
 375 923 375 923 383 928.5 c 128,-1,51
 391 934 391 934 397 938 c 128,-1,52
 403 942 403 942 410 942 c 0,53,54
 423 942 423 942 428.5 931.5 c 128,-1,55
 434 921 434 921 434 914 c 0,56,57
 434 896 434 896 424.5 884.5 c 128,-1,58
 415 873 415 873 401.5 866.5 c 128,-1,59
 388 860 388 860 374 857 c 128,-1,60
 360 854 360 854 350 854 c 0,61,62
 328 854 328 854 311.5 859 c 128,-1,63
 295 864 295 864 280 870.5 c 128,-1,64
 265 877 265 877 249.5 882 c 128,-1,65
 234 887 234 887 214 887 c 0,30,31
EndSplineSet
EndChar
StartChar: Adieresis
Encoding: 196 196 7
Width: 550
Flags: W
LayerCount: 2
Back
Fore
SplineSet
68 0 m 0,0,1
 51 0 51 0 34 9.5 c 128,-1,2
 17 19 17 19 17 35 c 0,3,4
 17 37 17 37 19 43 c 2,5,-1
 223 708 l 2,6,7
 228 723 228 723 243 730 c 128,-1,8
 258 737 258 737 275 737 c 256,9,10
 292 737 292 737 307 729.5 c 128,-1,11
 322 722 322 722 327 708 c 2,12,-1
 531 43 l 2,13,14
 531 41 531 41 531.5 39.5 c 128,-1,15
 532 38 532 38 532 36 c 0,16,17
 532 21 532 21 515 10.5 c 128,-1,18
 498 0 498 0 480 0 c 0,19,20
 469 0 469 0 461 4.5 c 128,-1,21
 453 9 453 9 450 19 c 2,22,-1
 406 168 l 1,23,-1
 143 168 l 1,24,-1
 99 19 l 2,25,26
 93 0 93 0 68 0 c 0,0,1
386 237 m 1,27,-1
 275 613 l 1,28,-1
 162 237 l 1,29,-1
 386 237 l 1,27,-1
210 922 m 256,30,31
 227 922 227 922 238.5 910 c 128,-1,32
 250 898 250 898 250 881 c 256,33,34
 250 864 250 864 238.5 851.5 c 128,-1,35
 227 839 227 839 210 839 c 256,36,37
 193 839 193 839 181 851.5 c 128,-1,38
 169 864 169 864 169 881 c 256,39,40
 169 898 169 898 181 910 c 128,-1,41
 193 922 193 922 210 922 c 256,30,31
340 922 m 256,42,43
 357 922 357 922 368.5 910 c 128,-1,44
 380 898 380 898 380 881 c 256,45,46
 380 864 380 864 368.5 851.5 c 128,-1,47
 357 839 357 839 340 839 c 256,48,49
 323 839 323 839 311.5 851.5 c 128,-1,50
 300 864 300 864 300 881 c 256,51,52
 300 898 300 898 311.5 910 c 128,-1,53
 323 922 323 922 340 922 c 256,42,43
EndSplineSet
EndChar
StartChar: Aring
Encoding: 197 197 11
Width: 550
Flags: W
LayerCount: 2
Back
Fore
SplineSet
68 0 m 0,0,1
 51 0 51 0 34 9.5 c 128,-1,2
 17 19 17 19 17 35 c 0,3,4
 17 37 17 37 19 43 c 2,5,-1
 223 708 l 2,6,7
 228 723 228 723 243 730 c 128,-1,8
 258 737 258 737 275 737 c 256,9,10
 292 737 292 737 307 729.5 c 128,-1,11
 322 722 322 722 327 708 c 2,12,-1
 531 43 l 2,13,14
 531 41 531 41 531.5 39.5 c 128,-1,15
 532 38 532 38 532 36 c 0,16,17
 532 21 532 21 515 10.5 c 128,-1,18
 498 0 498 0 480 0 c 0,19,20
 469 0 469 0 461 4.5 c 128,-1,21
 453 9 453 9 450 19 c 2,22,-1
 406 168 l 1,23,-1
 143 168 l 1,24,-1
 99 19 l 2,25,26
 93 0 93 0 68 0 c 0,0,1
386 237 m 1,27,-1
 275 613 l 1,28,-1
 162 237 l 1,29,-1
 386 237 l 1,27,-1
274 1019 m 0,30,31
 292 1019 292 1019 309 1011 c 128,-1,32
 326 1003 326 1003 339 990 c 128,-1,33
 352 977 352 977 360 960 c 128,-1,34
 368 943 368 943 368 924 c 256,35,36
 368 905 368 905 360 887.5 c 128,-1,37
 352 870 352 870 339 856.5 c 128,-1,38
 326 843 326 843 309 835 c 128,-1,39
 292 827 292 827 274 827 c 0,40,41
 254 827 254 827 237 835 c 128,-1,42
 220 843 220 843 207.5 856.5 c 128,-1,43
 195 870 195 870 187.5 887.5 c 128,-1,44
 180 905 180 905 180 924 c 0,45,46
 180 942 180 942 187 959.5 c 128,-1,47
 194 977 194 977 207 990 c 128,-1,48
 220 1003 220 1003 237 1011 c 128,-1,49
 254 1019 254 1019 274 1019 c 0,30,31
329 924 m 0,50,51
 329 944 329 944 313 961.5 c 128,-1,52
 297 979 297 979 274 979 c 256,53,54
 251 979 251 979 234.5 961.5 c 128,-1,55
 218 944 218 944 218 924 c 0,56,57
 218 902 218 902 234.5 883.5 c 128,-1,58
 251 865 251 865 274 865 c 256,59,60
 297 865 297 865 313 883.5 c 128,-1,61
 329 902 329 902 329 924 c 0,50,51
EndSplineSet
EndChar
StartChar: AE
Encoding: 198 198 2
Width: 735
Flags: W
LayerCount: 2
Back
Fore
SplineSet
451 401 m 1,0,-1
 591 401 l 2,1,2
 605 401 605 401 612.5 390 c 128,-1,3
 620 379 620 379 620 365 c 0,4,5
 620 353 620 353 613 342 c 128,-1,6
 606 331 606 331 591 331 c 2,7,-1
 451 331 l 1,8,-1
 451 76 l 1,9,-1
 684 76 l 2,10,11
 698 76 698 76 705.5 64.5 c 128,-1,12
 713 53 713 53 713 37 c 0,13,14
 713 23 713 23 706 11.5 c 128,-1,15
 699 0 699 0 684 0 c 2,16,-1
 405 0 l 2,17,18
 391 0 391 0 379 7.5 c 128,-1,19
 367 15 367 15 367 30 c 2,20,-1
 367 331 l 1,21,-1
 148 331 l 1,22,-1
 148 35 l 2,23,24
 148 20 148 20 141.5 10 c 128,-1,25
 135 0 135 0 106 0 c 0,26,27
 86 0 86 0 77 10 c 128,-1,28
 68 20 68 20 68 35 c 2,29,-1
 68 513 l 2,30,31
 68 573 68 573 84.5 614.5 c 128,-1,32
 101 656 101 656 129.5 682 c 128,-1,33
 158 708 158 708 197 719.5 c 128,-1,34
 236 731 236 731 280 731 c 2,35,-1
 684 731 l 2,36,37
 699 731 699 731 706 719.5 c 128,-1,38
 713 708 713 708 713 694 c 0,39,40
 713 678 713 678 705.5 666.5 c 128,-1,41
 698 655 698 655 684 655 c 2,42,-1
 451 655 l 1,43,-1
 451 401 l 1,0,-1
148 401 m 1,44,-1
 367 401 l 1,45,-1
 367 655 l 1,46,-1
 280 655 l 2,47,48
 218 655 218 655 183 620.5 c 128,-1,49
 148 586 148 586 148 513 c 2,50,-1
 148 401 l 1,44,-1
EndSplineSet
EndChar
StartChar: Ccedilla
Encoding: 199 199 18
Width: 531
Flags: W
LayerCount: 2
Back
Fore
SplineSet
411 540 m 0,0,1
 410 555 410 555 405.5 575 c 128,-1,2
 401 595 401 595 387.5 612.5 c 128,-1,3
 374 630 374 630 348.5 642.5 c 128,-1,4
 323 655 323 655 281 655 c 0,5,6
 216 655 216 655 182 620.5 c 128,-1,7
 148 586 148 586 148 513 c 2,8,-1
 148 212 l 2,9,10
 148 139 148 139 182.5 104.5 c 128,-1,11
 217 70 217 70 284 70 c 0,12,13
 326 70 326 70 350 82 c 128,-1,14
 374 94 374 94 387 112 c 128,-1,15
 400 130 400 130 404.5 150.5 c 128,-1,16
 409 171 409 171 411 189 c 0,17,18
 414 218 414 218 453 218 c 0,19,20
 474 218 474 218 484.5 209 c 128,-1,21
 495 200 495 200 495 171 c 0,22,23
 495 137 495 137 482.5 107 c 128,-1,24
 470 77 470 77 446.5 54 c 128,-1,25
 423 31 423 31 389 15.5 c 128,-1,26
 355 0 355 0 313 -4 c 1,27,-1
 299 -58 l 1,28,29
 350 -60 350 -60 372.5 -81.5 c 128,-1,30
 395 -103 395 -103 395 -131 c 0,31,32
 395 -145 395 -145 389.5 -159.5 c 128,-1,33
 384 -174 384 -174 373 -185.5 c 128,-1,34
 362 -197 362 -197 344.5 -204.5 c 128,-1,35
 327 -212 327 -212 302 -212 c 0,36,37
 291 -212 291 -212 277 -210.5 c 128,-1,38
 263 -209 263 -209 251 -205.5 c 128,-1,39
 239 -202 239 -202 230.5 -197 c 128,-1,40
 222 -192 222 -192 222 -185 c 0,41,42
 222 -180 222 -180 226.5 -168.5 c 128,-1,43
 231 -157 231 -157 240 -157 c 0,44,45
 247 -157 247 -157 259.5 -164 c 128,-1,46
 272 -171 272 -171 296 -171 c 0,47,48
 323 -171 323 -171 335.5 -160.5 c 128,-1,49
 348 -150 348 -150 348 -134 c 0,50,51
 348 -114 348 -114 332.5 -104.5 c 128,-1,52
 317 -95 317 -95 289 -93 c 2,53,-1
 246 -90 l 1,54,-1
 268 -6 l 1,55,56
 226 -5 226 -5 188.5 7.5 c 128,-1,57
 151 20 151 20 123.5 46 c 128,-1,58
 96 72 96 72 80 113 c 128,-1,59
 64 154 64 154 64 212 c 2,60,-1
 64 513 l 2,61,62
 64 573 64 573 81 614.5 c 128,-1,63
 98 656 98 656 127.5 682 c 128,-1,64
 157 708 157 708 196 719.5 c 128,-1,65
 235 731 235 731 279 731 c 0,66,67
 329 731 329 731 369 717.5 c 128,-1,68
 409 704 409 704 437 680.5 c 128,-1,69
 465 657 465 657 480 625.5 c 128,-1,70
 495 594 495 594 495 557 c 0,71,72
 495 528 495 528 484.5 519.5 c 128,-1,73
 474 511 474 511 453 511 c 0,74,75
 413 511 413 511 411 540 c 0,0,1
EndSplineSet
EndChar
StartChar: Egrave
Encoding: 200 200 32
Width: 514
Flags: W
LayerCount: 2
Back
Fore
SplineSet
155 401 m 1,0,-1
 311 401 l 2,1,2
 325 401 325 401 332.5 390 c 128,-1,3
 340 379 340 379 340 365 c 0,4,5
 340 353 340 353 333 342 c 128,-1,6
 326 331 326 331 311 331 c 2,7,-1
 155 331 l 1,8,-1
 155 76 l 1,9,-1
 465 76 l 2,10,11
 479 76 479 76 486.5 64.5 c 128,-1,12
 494 53 494 53 494 37 c 0,13,14
 494 23 494 23 487 11.5 c 128,-1,15
 480 0 480 0 465 0 c 2,16,-1
 109 0 l 2,17,18
 95 0 95 0 83 7.5 c 128,-1,19
 71 15 71 15 71 30 c 2,20,-1
 71 701 l 2,21,22
 71 716 71 716 83 723.5 c 128,-1,23
 95 731 95 731 109 731 c 2,24,-1
 465 731 l 2,25,26
 480 731 480 731 487 719.5 c 128,-1,27
 494 708 494 708 494 694 c 0,28,29
 494 678 494 678 486.5 666.5 c 128,-1,30
 479 655 479 655 465 655 c 2,31,-1
 155 655 l 1,32,-1
 155 401 l 1,0,-1
210 897 m 2,33,34
 202 901 202 901 199 907.5 c 128,-1,35
 196 914 196 914 196 921 c 0,36,37
 196 933 196 933 204 944 c 128,-1,38
 212 955 212 955 224 955 c 0,39,40
 228 955 228 955 234 953 c 2,41,-1
 351 891 l 2,42,43
 364 884 364 884 364 869 c 0,44,45
 364 857 364 857 355.5 846 c 128,-1,46
 347 835 347 835 334 835 c 0,47,48
 331 835 331 835 323 839 c 2,49,-1
 210 897 l 2,33,34
EndSplineSet
EndChar
StartChar: Eacute
Encoding: 201 201 26
Width: 514
Flags: W
LayerCount: 2
Back
Fore
SplineSet
249 839 m 2,0,1
 246 837 246 837 243.5 836 c 128,-1,2
 241 835 241 835 238 835 c 0,3,4
 225 835 225 835 216.5 846 c 128,-1,5
 208 857 208 857 208 869 c 0,6,7
 208 884 208 884 221 891 c 2,8,-1
 338 953 l 2,9,10
 344 955 344 955 348 955 c 0,11,12
 361 955 361 955 368.5 944 c 128,-1,13
 376 933 376 933 376 921 c 0,14,15
 376 914 376 914 373 907.5 c 128,-1,16
 370 901 370 901 362 897 c 2,17,-1
 249 839 l 2,0,1
155 401 m 1,18,-1
 311 401 l 2,19,20
 325 401 325 401 332.5 390 c 128,-1,21
 340 379 340 379 340 365 c 0,22,23
 340 353 340 353 333 342 c 128,-1,24
 326 331 326 331 311 331 c 2,25,-1
 155 331 l 1,26,-1
 155 76 l 1,27,-1
 465 76 l 2,28,29
 479 76 479 76 486.5 64.5 c 128,-1,30
 494 53 494 53 494 37 c 0,31,32
 494 23 494 23 487 11.5 c 128,-1,33
 480 0 480 0 465 0 c 2,34,-1
 109 0 l 2,35,36
 95 0 95 0 83 7.5 c 128,-1,37
 71 15 71 15 71 30 c 2,38,-1
 71 701 l 2,39,40
 71 716 71 716 83 723.5 c 128,-1,41
 95 731 95 731 109 731 c 2,42,-1
 465 731 l 2,43,44
 480 731 480 731 487 719.5 c 128,-1,45
 494 708 494 708 494 694 c 0,46,47
 494 678 494 678 486.5 666.5 c 128,-1,48
 479 655 479 655 465 655 c 2,49,-1
 155 655 l 1,50,-1
 155 401 l 1,18,-1
EndSplineSet
EndChar
StartChar: Ecircumflex
Encoding: 202 202 29
Width: 514
Flags: W
LayerCount: 2
Back
Fore
SplineSet
181 842 m 2,0,1
 176 839 176 839 172 839 c 0,2,3
 163 839 163 839 156 848 c 128,-1,4
 149 857 149 857 149 868 c 0,5,6
 149 876 149 876 152.5 883 c 128,-1,7
 156 890 156 890 164 894 c 2,8,-1
 268 950 l 2,9,10
 278 955 278 955 285 955 c 0,11,12
 294 955 294 955 302 950 c 2,13,-1
 406 895 l 2,14,15
 422 886 422 886 422 867 c 0,16,17
 422 856 422 856 415.5 847.5 c 128,-1,18
 409 839 409 839 399 839 c 0,19,20
 397 839 397 839 394.5 840 c 128,-1,21
 392 841 392 841 389 842 c 2,22,-1
 285 898 l 1,23,-1
 181 842 l 2,0,1
155 401 m 1,24,-1
 311 401 l 2,25,26
 325 401 325 401 332.5 390 c 128,-1,27
 340 379 340 379 340 365 c 0,28,29
 340 353 340 353 333 342 c 128,-1,30
 326 331 326 331 311 331 c 2,31,-1
 155 331 l 1,32,-1
 155 76 l 1,33,-1
 465 76 l 2,34,35
 479 76 479 76 486.5 64.5 c 128,-1,36
 494 53 494 53 494 37 c 0,37,38
 494 23 494 23 487 11.5 c 128,-1,39
 480 0 480 0 465 0 c 2,40,-1
 109 0 l 2,41,42
 95 0 95 0 83 7.5 c 128,-1,43
 71 15 71 15 71 30 c 2,44,-1
 71 701 l 2,45,46
 71 716 71 716 83 723.5 c 128,-1,47
 95 731 95 731 109 731 c 2,48,-1
 465 731 l 2,49,50
 480 731 480 731 487 719.5 c 128,-1,51
 494 708 494 708 494 694 c 0,52,53
 494 678 494 678 486.5 666.5 c 128,-1,54
 479 655 479 655 465 655 c 2,55,-1
 155 655 l 1,56,-1
 155 401 l 1,24,-1
EndSplineSet
EndChar
StartChar: Edieresis
Encoding: 203 203 30
Width: 514
Flags: W
LayerCount: 2
Back
Fore
SplineSet
218 922 m 256,0,1
 235 922 235 922 246.5 910 c 128,-1,2
 258 898 258 898 258 881 c 256,3,4
 258 864 258 864 246.5 851.5 c 128,-1,5
 235 839 235 839 218 839 c 256,6,7
 201 839 201 839 189 851.5 c 128,-1,8
 177 864 177 864 177 881 c 256,9,10
 177 898 177 898 189 910 c 128,-1,11
 201 922 201 922 218 922 c 256,0,1
348 922 m 256,12,13
 365 922 365 922 376.5 910 c 128,-1,14
 388 898 388 898 388 881 c 256,15,16
 388 864 388 864 376.5 851.5 c 128,-1,17
 365 839 365 839 348 839 c 256,18,19
 331 839 331 839 319.5 851.5 c 128,-1,20
 308 864 308 864 308 881 c 256,21,22
 308 898 308 898 319.5 910 c 128,-1,23
 331 922 331 922 348 922 c 256,12,13
155 401 m 1,24,-1
 311 401 l 2,25,26
 325 401 325 401 332.5 390 c 128,-1,27
 340 379 340 379 340 365 c 0,28,29
 340 353 340 353 333 342 c 128,-1,30
 326 331 326 331 311 331 c 2,31,-1
 155 331 l 1,32,-1
 155 76 l 1,33,-1
 465 76 l 2,34,35
 479 76 479 76 486.5 64.5 c 128,-1,36
 494 53 494 53 494 37 c 0,37,38
 494 23 494 23 487 11.5 c 128,-1,39
 480 0 480 0 465 0 c 2,40,-1
 109 0 l 2,41,42
 95 0 95 0 83 7.5 c 128,-1,43
 71 15 71 15 71 30 c 2,44,-1
 71 701 l 2,45,46
 71 716 71 716 83 723.5 c 128,-1,47
 95 731 95 731 109 731 c 2,48,-1
 465 731 l 2,49,50
 480 731 480 731 487 719.5 c 128,-1,51
 494 708 494 708 494 694 c 0,52,53
 494 678 494 678 486.5 666.5 c 128,-1,54
 479 655 479 655 465 655 c 2,55,-1
 155 655 l 1,56,-1
 155 401 l 1,24,-1
EndSplineSet
EndChar
StartChar: Igrave
Encoding: 204 204 54
Width: 226
Flags: W
LayerCount: 2
Back
Fore
SplineSet
71 702 m 2,0,1
 71 717 71 717 84 724 c 128,-1,2
 97 731 97 731 113 731 c 256,3,4
 129 731 129 731 142 724 c 128,-1,5
 155 717 155 717 155 702 c 2,6,-1
 155 30 l 2,7,8
 155 15 155 15 142 7.5 c 128,-1,9
 129 0 129 0 113 0 c 256,10,11
 97 0 97 0 84 7.5 c 128,-1,12
 71 15 71 15 71 30 c 2,13,-1
 71 702 l 2,0,1
39 897 m 2,14,15
 31 901 31 901 28 907.5 c 128,-1,16
 25 914 25 914 25 921 c 0,17,18
 25 933 25 933 33 944 c 128,-1,19
 41 955 41 955 53 955 c 0,20,21
 57 955 57 955 63 953 c 2,22,-1
 180 891 l 2,23,24
 193 884 193 884 193 869 c 0,25,26
 193 857 193 857 184.5 846 c 128,-1,27
 176 835 176 835 163 835 c 0,28,29
 160 835 160 835 152 839 c 2,30,-1
 39 897 l 2,14,15
EndSplineSet
EndChar
StartChar: Iacute
Encoding: 205 205 49
Width: 226
Flags: W
LayerCount: 2
Back
Fore
SplineSet
71 702 m 2,0,1
 71 717 71 717 84 724 c 128,-1,2
 97 731 97 731 113 731 c 256,3,4
 129 731 129 731 142 724 c 128,-1,5
 155 717 155 717 155 702 c 2,6,-1
 155 30 l 2,7,8
 155 15 155 15 142 7.5 c 128,-1,9
 129 0 129 0 113 0 c 256,10,11
 97 0 97 0 84 7.5 c 128,-1,12
 71 15 71 15 71 30 c 2,13,-1
 71 702 l 2,0,1
73 839 m 2,14,15
 70 837 70 837 67.5 836 c 128,-1,16
 65 835 65 835 62 835 c 0,17,18
 49 835 49 835 40.5 846 c 128,-1,19
 32 857 32 857 32 869 c 0,20,21
 32 884 32 884 45 891 c 2,22,-1
 162 953 l 2,23,24
 168 955 168 955 172 955 c 0,25,26
 185 955 185 955 192.5 944 c 128,-1,27
 200 933 200 933 200 921 c 0,28,29
 200 914 200 914 197 907.5 c 128,-1,30
 194 901 194 901 186 897 c 2,31,-1
 73 839 l 2,14,15
EndSplineSet
EndChar
StartChar: Icircumflex
Encoding: 206 206 51
Width: 226
Flags: W
LayerCount: 2
Back
Fore
SplineSet
71 702 m 2,0,1
 71 717 71 717 84 724 c 128,-1,2
 97 731 97 731 113 731 c 256,3,4
 129 731 129 731 142 724 c 128,-1,5
 155 717 155 717 155 702 c 2,6,-1
 155 30 l 2,7,8
 155 15 155 15 142 7.5 c 128,-1,9
 129 0 129 0 113 0 c 256,10,11
 97 0 97 0 84 7.5 c 128,-1,12
 71 15 71 15 71 30 c 2,13,-1
 71 702 l 2,0,1
9 842 m 2,14,15
 4 839 4 839 0 839 c 0,16,17
 -9 839 -9 839 -16 848 c 128,-1,18
 -23 857 -23 857 -23 868 c 0,19,20
 -23 876 -23 876 -19.5 883 c 128,-1,21
 -16 890 -16 890 -8 894 c 2,22,-1
 96 950 l 2,23,24
 106 955 106 955 113 955 c 0,25,26
 122 955 122 955 130 950 c 2,27,-1
 234 895 l 2,28,29
 250 886 250 886 250 867 c 0,30,31
 250 856 250 856 243.5 847.5 c 128,-1,32
 237 839 237 839 227 839 c 0,33,34
 225 839 225 839 222.5 840 c 128,-1,35
 220 841 220 841 217 842 c 2,36,-1
 113 898 l 1,37,-1
 9 842 l 2,14,15
EndSplineSet
EndChar
StartChar: Idieresis
Encoding: 207 207 52
Width: 226
Flags: W
LayerCount: 2
Back
Fore
SplineSet
71 702 m 2,0,1
 71 717 71 717 84 724 c 128,-1,2
 97 731 97 731 113 731 c 256,3,4
 129 731 129 731 142 724 c 128,-1,5
 155 717 155 717 155 702 c 2,6,-1
 155 30 l 2,7,8
 155 15 155 15 142 7.5 c 128,-1,9
 129 0 129 0 113 0 c 256,10,11
 97 0 97 0 84 7.5 c 128,-1,12
 71 15 71 15 71 30 c 2,13,-1
 71 702 l 2,0,1
49 922 m 256,14,15
 66 922 66 922 77.5 910 c 128,-1,16
 89 898 89 898 89 881 c 256,17,18
 89 864 89 864 77.5 851.5 c 128,-1,19
 66 839 66 839 49 839 c 256,20,21
 32 839 32 839 20 851.5 c 128,-1,22
 8 864 8 864 8 881 c 256,23,24
 8 898 8 898 20 910 c 128,-1,25
 32 922 32 922 49 922 c 256,14,15
179 922 m 256,26,27
 196 922 196 922 207.5 910 c 128,-1,28
 219 898 219 898 219 881 c 256,29,30
 219 864 219 864 207.5 851.5 c 128,-1,31
 196 839 196 839 179 839 c 256,32,33
 162 839 162 839 150.5 851.5 c 128,-1,34
 139 864 139 864 139 881 c 256,35,36
 139 898 139 898 150.5 910 c 128,-1,37
 162 922 162 922 179 922 c 256,26,27
EndSplineSet
EndChar
StartChar: Ntilde
Encoding: 209 209 73
Width: 581
Flags: W
LayerCount: 2
Back
Fore
SplineSet
468 0 m 0,0,1
 451 0 451 0 437.5 10.5 c 128,-1,2
 424 21 424 21 415 38 c 2,3,-1
 155 541 l 1,4,-1
 155 30 l 2,5,6
 155 15 155 15 142 7.5 c 128,-1,7
 129 0 129 0 113 0 c 256,8,9
 97 0 97 0 84 7.5 c 128,-1,10
 71 15 71 15 71 30 c 2,11,-1
 71 702 l 2,12,13
 71 718 71 718 83.5 724.5 c 128,-1,14
 96 731 96 731 113 731 c 0,15,16
 136 731 136 731 149.5 717.5 c 128,-1,17
 163 704 163 704 177 678 c 2,18,-1
 426 191 l 1,19,-1
 426 702 l 2,20,21
 426 717 426 717 439 724 c 128,-1,22
 452 731 452 731 468 731 c 256,23,24
 484 731 484 731 497 724 c 128,-1,25
 510 717 510 717 510 702 c 2,26,-1
 510 30 l 2,27,28
 510 15 510 15 497 7.5 c 128,-1,29
 484 0 484 0 468 0 c 0,0,1
226 887 m 0,30,31
 210 887 210 887 198.5 882.5 c 128,-1,32
 187 878 187 878 178.5 872.5 c 128,-1,33
 170 867 170 867 163.5 862.5 c 128,-1,34
 157 858 157 858 150 858 c 0,35,36
 137 858 137 858 132 868.5 c 128,-1,37
 127 879 127 879 127 887 c 0,38,39
 127 903 127 903 136.5 915 c 128,-1,40
 146 927 146 927 159.5 934 c 128,-1,41
 173 941 173 941 188 944.5 c 128,-1,42
 203 948 203 948 214 948 c 0,43,44
 234 948 234 948 250.5 943 c 128,-1,45
 267 938 267 938 282 931.5 c 128,-1,46
 297 925 297 925 313 920 c 128,-1,47
 329 915 329 915 349 915 c 0,48,49
 365 915 365 915 376 919 c 128,-1,50
 387 923 387 923 395 928.5 c 128,-1,51
 403 934 403 934 409 938 c 128,-1,52
 415 942 415 942 422 942 c 0,53,54
 435 942 435 942 440.5 931.5 c 128,-1,55
 446 921 446 921 446 914 c 0,56,57
 446 896 446 896 436.5 884.5 c 128,-1,58
 427 873 427 873 413.5 866.5 c 128,-1,59
 400 860 400 860 386 857 c 128,-1,60
 372 854 372 854 362 854 c 0,61,62
 340 854 340 854 323.5 859 c 128,-1,63
 307 864 307 864 292 870.5 c 128,-1,64
 277 877 277 877 261.5 882 c 128,-1,65
 246 887 246 887 226 887 c 0,30,31
EndSplineSet
EndChar
StartChar: Ograve
Encoding: 210 210 80
Width: 559
Flags: W
LayerCount: 2
Back
Fore
SplineSet
279 -6 m 256,0,1
 234 -6 234 -6 194.5 5.5 c 128,-1,2
 155 17 155 17 126 43 c 128,-1,3
 97 69 97 69 80.5 110.5 c 128,-1,4
 64 152 64 152 64 212 c 2,5,-1
 64 513 l 2,6,7
 64 573 64 573 80.5 614.5 c 128,-1,8
 97 656 97 656 126 682 c 128,-1,9
 155 708 155 708 194.5 719.5 c 128,-1,10
 234 731 234 731 279 731 c 256,11,12
 324 731 324 731 363.5 719.5 c 128,-1,13
 403 708 403 708 432.5 682 c 128,-1,14
 462 656 462 656 478.5 614.5 c 128,-1,15
 495 573 495 573 495 513 c 2,16,-1
 495 212 l 2,17,18
 495 152 495 152 478.5 110.5 c 128,-1,19
 462 69 462 69 432.5 43 c 128,-1,20
 403 17 403 17 363.5 5.5 c 128,-1,21
 324 -6 324 -6 279 -6 c 256,0,1
411 513 m 2,22,23
 411 586 411 586 376 620.5 c 128,-1,24
 341 655 341 655 279 655 c 256,25,26
 217 655 217 655 182.5 620.5 c 128,-1,27
 148 586 148 586 148 513 c 2,28,-1
 148 212 l 2,29,30
 148 139 148 139 182.5 104.5 c 128,-1,31
 217 70 217 70 279 70 c 256,32,33
 341 70 341 70 376 104.5 c 128,-1,34
 411 139 411 139 411 212 c 2,35,-1
 411 513 l 2,22,23
203 897 m 2,36,37
 195 901 195 901 192 907.5 c 128,-1,38
 189 914 189 914 189 921 c 0,39,40
 189 933 189 933 197 944 c 128,-1,41
 205 955 205 955 217 955 c 0,42,43
 221 955 221 955 227 953 c 2,44,-1
 344 891 l 2,45,46
 357 884 357 884 357 869 c 0,47,48
 357 857 357 857 348.5 846 c 128,-1,49
 340 835 340 835 327 835 c 0,50,51
 324 835 324 835 316 839 c 2,52,-1
 203 897 l 2,36,37
EndSplineSet
EndChar
StartChar: Oacute
Encoding: 211 211 76
Width: 559
Flags: W
LayerCount: 2
Back
Fore
SplineSet
254 839 m 2,0,1
 251 837 251 837 248.5 836 c 128,-1,2
 246 835 246 835 243 835 c 0,3,4
 230 835 230 835 221.5 846 c 128,-1,5
 213 857 213 857 213 869 c 0,6,7
 213 884 213 884 226 891 c 2,8,-1
 343 953 l 2,9,10
 349 955 349 955 353 955 c 0,11,12
 366 955 366 955 373.5 944 c 128,-1,13
 381 933 381 933 381 921 c 0,14,15
 381 914 381 914 378 907.5 c 128,-1,16
 375 901 375 901 367 897 c 2,17,-1
 254 839 l 2,0,1
279 -6 m 256,18,19
 234 -6 234 -6 194.5 5.5 c 128,-1,20
 155 17 155 17 126 43 c 128,-1,21
 97 69 97 69 80.5 110.5 c 128,-1,22
 64 152 64 152 64 212 c 2,23,-1
 64 513 l 2,24,25
 64 573 64 573 80.5 614.5 c 128,-1,26
 97 656 97 656 126 682 c 128,-1,27
 155 708 155 708 194.5 719.5 c 128,-1,28
 234 731 234 731 279 731 c 256,29,30
 324 731 324 731 363.5 719.5 c 128,-1,31
 403 708 403 708 432.5 682 c 128,-1,32
 462 656 462 656 478.5 614.5 c 128,-1,33
 495 573 495 573 495 513 c 2,34,-1
 495 212 l 2,35,36
 495 152 495 152 478.5 110.5 c 128,-1,37
 462 69 462 69 432.5 43 c 128,-1,38
 403 17 403 17 363.5 5.5 c 128,-1,39
 324 -6 324 -6 279 -6 c 256,18,19
411 513 m 2,40,41
 411 586 411 586 376 620.5 c 128,-1,42
 341 655 341 655 279 655 c 256,43,44
 217 655 217 655 182.5 620.5 c 128,-1,45
 148 586 148 586 148 513 c 2,46,-1
 148 212 l 2,47,48
 148 139 148 139 182.5 104.5 c 128,-1,49
 217 70 217 70 279 70 c 256,50,51
 341 70 341 70 376 104.5 c 128,-1,52
 411 139 411 139 411 212 c 2,53,-1
 411 513 l 2,40,41
EndSplineSet
EndChar
StartChar: Ocircumflex
Encoding: 212 212 78
Width: 559
Flags: W
LayerCount: 2
Back
Fore
SplineSet
175 842 m 2,0,1
 170 839 170 839 166 839 c 0,2,3
 157 839 157 839 150 848 c 128,-1,4
 143 857 143 857 143 868 c 0,5,6
 143 876 143 876 146.5 883 c 128,-1,7
 150 890 150 890 158 894 c 2,8,-1
 262 950 l 2,9,10
 272 955 272 955 279 955 c 0,11,12
 288 955 288 955 296 950 c 2,13,-1
 400 895 l 2,14,15
 416 886 416 886 416 867 c 0,16,17
 416 856 416 856 409.5 847.5 c 128,-1,18
 403 839 403 839 393 839 c 0,19,20
 391 839 391 839 388.5 840 c 128,-1,21
 386 841 386 841 383 842 c 2,22,-1
 279 898 l 1,23,-1
 175 842 l 2,0,1
279 -6 m 256,24,25
 234 -6 234 -6 194.5 5.5 c 128,-1,26
 155 17 155 17 126 43 c 128,-1,27
 97 69 97 69 80.5 110.5 c 128,-1,28
 64 152 64 152 64 212 c 2,29,-1
 64 513 l 2,30,31
 64 573 64 573 80.5 614.5 c 128,-1,32
 97 656 97 656 126 682 c 128,-1,33
 155 708 155 708 194.5 719.5 c 128,-1,34
 234 731 234 731 279 731 c 256,35,36
 324 731 324 731 363.5 719.5 c 128,-1,37
 403 708 403 708 432.5 682 c 128,-1,38
 462 656 462 656 478.5 614.5 c 128,-1,39
 495 573 495 573 495 513 c 2,40,-1
 495 212 l 2,41,42
 495 152 495 152 478.5 110.5 c 128,-1,43
 462 69 462 69 432.5 43 c 128,-1,44
 403 17 403 17 363.5 5.5 c 128,-1,45
 324 -6 324 -6 279 -6 c 256,24,25
411 513 m 2,46,47
 411 586 411 586 376 620.5 c 128,-1,48
 341 655 341 655 279 655 c 256,49,50
 217 655 217 655 182.5 620.5 c 128,-1,51
 148 586 148 586 148 513 c 2,52,-1
 148 212 l 2,53,54
 148 139 148 139 182.5 104.5 c 128,-1,55
 217 70 217 70 279 70 c 256,56,57
 341 70 341 70 376 104.5 c 128,-1,58
 411 139 411 139 411 212 c 2,59,-1
 411 513 l 2,46,47
EndSplineSet
EndChar
StartChar: Otilde
Encoding: 213 213 86
Width: 559
Flags: W
LayerCount: 2
Back
Fore
SplineSet
279 -6 m 256,0,1
 234 -6 234 -6 194.5 5.5 c 128,-1,2
 155 17 155 17 126 43 c 128,-1,3
 97 69 97 69 80.5 110.5 c 128,-1,4
 64 152 64 152 64 212 c 2,5,-1
 64 513 l 2,6,7
 64 573 64 573 80.5 614.5 c 128,-1,8
 97 656 97 656 126 682 c 128,-1,9
 155 708 155 708 194.5 719.5 c 128,-1,10
 234 731 234 731 279 731 c 256,11,12
 324 731 324 731 363.5 719.5 c 128,-1,13
 403 708 403 708 432.5 682 c 128,-1,14
 462 656 462 656 478.5 614.5 c 128,-1,15
 495 573 495 573 495 513 c 2,16,-1
 495 212 l 2,17,18
 495 152 495 152 478.5 110.5 c 128,-1,19
 462 69 462 69 432.5 43 c 128,-1,20
 403 17 403 17 363.5 5.5 c 128,-1,21
 324 -6 324 -6 279 -6 c 256,0,1
411 513 m 2,22,23
 411 586 411 586 376 620.5 c 128,-1,24
 341 655 341 655 279 655 c 256,25,26
 217 655 217 655 182.5 620.5 c 128,-1,27
 148 586 148 586 148 513 c 2,28,-1
 148 212 l 2,29,30
 148 139 148 139 182.5 104.5 c 128,-1,31
 217 70 217 70 279 70 c 256,32,33
 341 70 341 70 376 104.5 c 128,-1,34
 411 139 411 139 411 212 c 2,35,-1
 411 513 l 2,22,23
219 887 m 0,36,37
 203 887 203 887 191.5 882.5 c 128,-1,38
 180 878 180 878 171.5 872.5 c 128,-1,39
 163 867 163 867 156.5 862.5 c 128,-1,40
 150 858 150 858 143 858 c 0,41,42
 130 858 130 858 125 868.5 c 128,-1,43
 120 879 120 879 120 887 c 0,44,45
 120 903 120 903 129.5 915 c 128,-1,46
 139 927 139 927 152.5 934 c 128,-1,47
 166 941 166 941 181 944.5 c 128,-1,48
 196 948 196 948 207 948 c 0,49,50
 227 948 227 948 243.5 943 c 128,-1,51
 260 938 260 938 275 931.5 c 128,-1,52
 290 925 290 925 306 920 c 128,-1,53
 322 915 322 915 342 915 c 0,54,55
 358 915 358 915 369 919 c 128,-1,56
 380 923 380 923 388 928.5 c 128,-1,57
 396 934 396 934 402 938 c 128,-1,58
 408 942 408 942 415 942 c 0,59,60
 428 942 428 942 433.5 931.5 c 128,-1,61
 439 921 439 921 439 914 c 0,62,63
 439 896 439 896 429.5 884.5 c 128,-1,64
 420 873 420 873 406.5 866.5 c 128,-1,65
 393 860 393 860 379 857 c 128,-1,66
 365 854 365 854 355 854 c 0,67,68
 333 854 333 854 316.5 859 c 128,-1,69
 300 864 300 864 285 870.5 c 128,-1,70
 270 877 270 877 254.5 882 c 128,-1,71
 239 887 239 887 219 887 c 0,36,37
EndSplineSet
EndChar
StartChar: Odieresis
Encoding: 214 214 79
Width: 559
Flags: W
LayerCount: 2
Back
Fore
SplineSet
215 922 m 256,0,1
 232 922 232 922 243.5 910 c 128,-1,2
 255 898 255 898 255 881 c 256,3,4
 255 864 255 864 243.5 851.5 c 128,-1,5
 232 839 232 839 215 839 c 256,6,7
 198 839 198 839 186 851.5 c 128,-1,8
 174 864 174 864 174 881 c 256,9,10
 174 898 174 898 186 910 c 128,-1,11
 198 922 198 922 215 922 c 256,0,1
345 922 m 256,12,13
 362 922 362 922 373.5 910 c 128,-1,14
 385 898 385 898 385 881 c 256,15,16
 385 864 385 864 373.5 851.5 c 128,-1,17
 362 839 362 839 345 839 c 256,18,19
 328 839 328 839 316.5 851.5 c 128,-1,20
 305 864 305 864 305 881 c 256,21,22
 305 898 305 898 316.5 910 c 128,-1,23
 328 922 328 922 345 922 c 256,12,13
279 -6 m 256,24,25
 234 -6 234 -6 194.5 5.5 c 128,-1,26
 155 17 155 17 126 43 c 128,-1,27
 97 69 97 69 80.5 110.5 c 128,-1,28
 64 152 64 152 64 212 c 2,29,-1
 64 513 l 2,30,31
 64 573 64 573 80.5 614.5 c 128,-1,32
 97 656 97 656 126 682 c 128,-1,33
 155 708 155 708 194.5 719.5 c 128,-1,34
 234 731 234 731 279 731 c 256,35,36
 324 731 324 731 363.5 719.5 c 128,-1,37
 403 708 403 708 432.5 682 c 128,-1,38
 462 656 462 656 478.5 614.5 c 128,-1,39
 495 573 495 573 495 513 c 2,40,-1
 495 212 l 2,41,42
 495 152 495 152 478.5 110.5 c 128,-1,43
 462 69 462 69 432.5 43 c 128,-1,44
 403 17 403 17 363.5 5.5 c 128,-1,45
 324 -6 324 -6 279 -6 c 256,24,25
411 513 m 2,46,47
 411 586 411 586 376 620.5 c 128,-1,48
 341 655 341 655 279 655 c 256,49,50
 217 655 217 655 182.5 620.5 c 128,-1,51
 148 586 148 586 148 513 c 2,52,-1
 148 212 l 2,53,54
 148 139 148 139 182.5 104.5 c 128,-1,55
 217 70 217 70 279 70 c 256,56,57
 341 70 341 70 376 104.5 c 128,-1,58
 411 139 411 139 411 212 c 2,59,-1
 411 513 l 2,46,47
EndSplineSet
EndChar
StartChar: multiply
Encoding: 215 215 279
Width: 400
Flags: W
LayerCount: 2
Back
Fore
SplineSet
347 168 m 0,0,1
 347 154 347 154 334.5 141.5 c 128,-1,2
 322 129 322 129 307 129 c 0,3,4
 296 129 296 129 288 136 c 2,5,-1
 200 225 l 1,6,-1
 112 136 l 2,7,8
 104 129 104 129 93 129 c 0,9,10
 79 129 79 129 66.5 141.5 c 128,-1,11
 54 154 54 154 54 168 c 0,12,13
 54 179 54 179 61 187 c 2,14,-1
 154 275 l 1,15,-1
 62 362 l 2,16,17
 54 370 54 370 54 382 c 0,18,19
 54 397 54 397 66.5 409 c 128,-1,20
 79 421 79 421 93 421 c 0,21,22
 105 421 105 421 113 413 c 2,23,-1
 200 326 l 1,24,-1
 287 413 l 2,25,26
 295 421 295 421 307 421 c 0,27,28
 322 421 322 421 334 409 c 128,-1,29
 346 397 346 397 346 382 c 0,30,31
 346 370 346 370 338 362 c 2,32,-1
 247 275 l 1,33,-1
 339 187 l 2,34,35
 347 177 347 177 347 168 c 0,0,1
EndSplineSet
EndChar
StartChar: Oslash
Encoding: 216 216 84
Width: 559
Flags: W
LayerCount: 2
Back
Fore
SplineSet
464 770 m 0,0,1
 476 770 476 770 487.5 760.5 c 128,-1,2
 499 751 499 751 499 737 c 0,3,4
 499 730 499 730 495 723 c 2,5,-1
 459 651 l 1,6,7
 476 626 476 626 485.5 592 c 128,-1,8
 495 558 495 558 495 513 c 2,9,-1
 495 212 l 2,10,11
 495 152 495 152 478.5 110.5 c 128,-1,12
 462 69 462 69 432.5 43 c 128,-1,13
 403 17 403 17 363.5 5.5 c 128,-1,14
 324 -6 324 -6 279 -6 c 0,15,16
 240 -6 240 -6 205.5 2.5 c 128,-1,17
 171 11 171 11 144 29 c 1,18,-1
 122 -14 l 2,19,20
 118 -22 118 -22 110 -26 c 128,-1,21
 102 -30 102 -30 94 -30 c 0,22,23
 80 -30 80 -30 71 -21 c 128,-1,24
 62 -12 62 -12 62 0 c 0,25,26
 62 3 62 3 62.5 6.5 c 128,-1,27
 63 10 63 10 65 13 c 2,28,-1
 97 77 l 1,29,30
 81 102 81 102 72.5 135 c 128,-1,31
 64 168 64 168 64 212 c 2,32,-1
 64 513 l 2,33,34
 64 573 64 573 80.5 614.5 c 128,-1,35
 97 656 97 656 126 682 c 128,-1,36
 155 708 155 708 194.5 719.5 c 128,-1,37
 234 731 234 731 279 731 c 0,38,39
 356 731 356 731 411 697 c 1,40,-1
 440 755 l 2,41,42
 447 770 447 770 464 770 c 0,0,1
411 513 m 2,43,44
 411 533 411 533 408 551 c 1,45,-1
 182 105 l 1,46,47
 214 70 214 70 279 70 c 0,48,49
 341 70 341 70 376 104.5 c 128,-1,50
 411 139 411 139 411 212 c 2,51,-1
 411 513 l 2,43,44
148 212 m 2,52,53
 148 204 148 204 148.5 196 c 128,-1,54
 149 188 149 188 150 181 c 1,55,-1
 373 623 l 1,56,57
 339 655 339 655 279 655 c 0,58,59
 217 655 217 655 182.5 620.5 c 128,-1,60
 148 586 148 586 148 513 c 2,61,-1
 148 212 l 2,52,53
EndSplineSet
EndChar
StartChar: Uacute
Encoding: 218 218 105
Width: 573
Flags: W
LayerCount: 2
Back
Fore
SplineSet
254 839 m 2,0,1
 251 837 251 837 248.5 836 c 128,-1,2
 246 835 246 835 243 835 c 0,3,4
 230 835 230 835 221.5 846 c 128,-1,5
 213 857 213 857 213 869 c 0,6,7
 213 884 213 884 226 891 c 2,8,-1
 343 953 l 2,9,10
 349 955 349 955 353 955 c 0,11,12
 366 955 366 955 373.5 944 c 128,-1,13
 381 933 381 933 381 921 c 0,14,15
 381 914 381 914 378 907.5 c 128,-1,16
 375 901 375 901 367 897 c 2,17,-1
 254 839 l 2,0,1
421 702 m 2,18,19
 421 717 421 717 433.5 724 c 128,-1,20
 446 731 446 731 463 731 c 0,21,22
 478 731 478 731 491.5 724 c 128,-1,23
 505 717 505 717 505 702 c 2,24,-1
 505 212 l 2,25,26
 505 152 505 152 488 110.5 c 128,-1,27
 471 69 471 69 441.5 43 c 128,-1,28
 412 17 412 17 372 5.5 c 128,-1,29
 332 -6 332 -6 286 -6 c 256,30,31
 240 -6 240 -6 200 5.5 c 128,-1,32
 160 17 160 17 131 43 c 128,-1,33
 102 69 102 69 85 110.5 c 128,-1,34
 68 152 68 152 68 212 c 2,35,-1
 68 702 l 2,36,37
 68 717 68 717 81 724 c 128,-1,38
 94 731 94 731 110 731 c 256,39,40
 126 731 126 731 139 724 c 128,-1,41
 152 717 152 717 152 702 c 2,42,-1
 152 212 l 2,43,44
 152 139 152 139 187.5 104.5 c 128,-1,45
 223 70 223 70 286 70 c 256,46,47
 349 70 349 70 385 104.5 c 128,-1,48
 421 139 421 139 421 212 c 2,49,-1
 421 702 l 2,18,19
EndSplineSet
EndChar
StartChar: Ucircumflex
Encoding: 219 219 107
Width: 573
Flags: W
LayerCount: 2
Back
Fore
SplineSet
179 842 m 2,0,1
 174 839 174 839 170 839 c 0,2,3
 161 839 161 839 154 848 c 128,-1,4
 147 857 147 857 147 868 c 0,5,6
 147 876 147 876 150.5 883 c 128,-1,7
 154 890 154 890 162 894 c 2,8,-1
 266 950 l 2,9,10
 276 955 276 955 283 955 c 0,11,12
 292 955 292 955 300 950 c 2,13,-1
 404 895 l 2,14,15
 420 886 420 886 420 867 c 0,16,17
 420 856 420 856 413.5 847.5 c 128,-1,18
 407 839 407 839 397 839 c 0,19,20
 395 839 395 839 392.5 840 c 128,-1,21
 390 841 390 841 387 842 c 2,22,-1
 283 898 l 1,23,-1
 179 842 l 2,0,1
421 702 m 2,24,25
 421 717 421 717 433.5 724 c 128,-1,26
 446 731 446 731 463 731 c 0,27,28
 478 731 478 731 491.5 724 c 128,-1,29
 505 717 505 717 505 702 c 2,30,-1
 505 212 l 2,31,32
 505 152 505 152 488 110.5 c 128,-1,33
 471 69 471 69 441.5 43 c 128,-1,34
 412 17 412 17 372 5.5 c 128,-1,35
 332 -6 332 -6 286 -6 c 256,36,37
 240 -6 240 -6 200 5.5 c 128,-1,38
 160 17 160 17 131 43 c 128,-1,39
 102 69 102 69 85 110.5 c 128,-1,40
 68 152 68 152 68 212 c 2,41,-1
 68 702 l 2,42,43
 68 717 68 717 81 724 c 128,-1,44
 94 731 94 731 110 731 c 256,45,46
 126 731 126 731 139 724 c 128,-1,47
 152 717 152 717 152 702 c 2,48,-1
 152 212 l 2,49,50
 152 139 152 139 187.5 104.5 c 128,-1,51
 223 70 223 70 286 70 c 256,52,53
 349 70 349 70 385 104.5 c 128,-1,54
 421 139 421 139 421 212 c 2,55,-1
 421 702 l 2,24,25
EndSplineSet
EndChar
StartChar: Udieresis
Encoding: 220 220 108
Width: 573
Flags: W
LayerCount: 2
Back
Fore
SplineSet
221 922 m 256,0,1
 238 922 238 922 249.5 910 c 128,-1,2
 261 898 261 898 261 881 c 256,3,4
 261 864 261 864 249.5 851.5 c 128,-1,5
 238 839 238 839 221 839 c 256,6,7
 204 839 204 839 192 851.5 c 128,-1,8
 180 864 180 864 180 881 c 256,9,10
 180 898 180 898 192 910 c 128,-1,11
 204 922 204 922 221 922 c 256,0,1
351 922 m 256,12,13
 368 922 368 922 379.5 910 c 128,-1,14
 391 898 391 898 391 881 c 256,15,16
 391 864 391 864 379.5 851.5 c 128,-1,17
 368 839 368 839 351 839 c 256,18,19
 334 839 334 839 322.5 851.5 c 128,-1,20
 311 864 311 864 311 881 c 256,21,22
 311 898 311 898 322.5 910 c 128,-1,23
 334 922 334 922 351 922 c 256,12,13
421 702 m 2,24,25
 421 717 421 717 433.5 724 c 128,-1,26
 446 731 446 731 463 731 c 0,27,28
 478 731 478 731 491.5 724 c 128,-1,29
 505 717 505 717 505 702 c 2,30,-1
 505 212 l 2,31,32
 505 152 505 152 488 110.5 c 128,-1,33
 471 69 471 69 441.5 43 c 128,-1,34
 412 17 412 17 372 5.5 c 128,-1,35
 332 -6 332 -6 286 -6 c 256,36,37
 240 -6 240 -6 200 5.5 c 128,-1,38
 160 17 160 17 131 43 c 128,-1,39
 102 69 102 69 85 110.5 c 128,-1,40
 68 152 68 152 68 212 c 2,41,-1
 68 702 l 2,42,43
 68 717 68 717 81 724 c 128,-1,44
 94 731 94 731 110 731 c 256,45,46
 126 731 126 731 139 724 c 128,-1,47
 152 717 152 717 152 702 c 2,48,-1
 152 212 l 2,49,50
 152 139 152 139 187.5 104.5 c 128,-1,51
 223 70 223 70 286 70 c 256,52,53
 349 70 349 70 385 104.5 c 128,-1,54
 421 139 421 139 421 212 c 2,55,-1
 421 702 l 2,24,25
EndSplineSet
EndChar
StartChar: Yacute
Encoding: 221 221 123
Width: 545
Flags: W
LayerCount: 2
Back
Fore
SplineSet
231 283 m 2,0,1
 231 288 231 288 228 293 c 2,2,-1
 21 679 l 2,3,4
 17 688 17 688 17 696 c 0,5,6
 17 712 17 712 34 721.5 c 128,-1,7
 51 731 51 731 67 731 c 0,8,9
 78 731 78 731 84.5 725.5 c 128,-1,10
 91 720 91 720 97 709 c 2,11,-1
 273 366 l 1,12,-1
 448 709 l 2,13,14
 460 731 460 731 478 731 c 0,15,16
 495 731 495 731 511.5 721.5 c 128,-1,17
 528 712 528 712 528 696 c 0,18,19
 528 688 528 688 524 679 c 2,20,-1
 317 293 l 2,21,22
 315 290 315 290 315 283 c 2,23,-1
 315 30 l 2,24,25
 315 15 315 15 302 7.5 c 128,-1,26
 289 0 289 0 273 0 c 256,27,28
 257 0 257 0 244 7.5 c 128,-1,29
 231 15 231 15 231 30 c 2,30,-1
 231 283 l 2,0,1
237 839 m 2,31,32
 234 837 234 837 231.5 836 c 128,-1,33
 229 835 229 835 226 835 c 0,34,35
 213 835 213 835 204.5 846 c 128,-1,36
 196 857 196 857 196 869 c 0,37,38
 196 884 196 884 209 891 c 2,39,-1
 326 953 l 2,40,41
 332 955 332 955 336 955 c 0,42,43
 349 955 349 955 356.5 944 c 128,-1,44
 364 933 364 933 364 921 c 0,45,46
 364 914 364 914 361 907.5 c 128,-1,47
 358 901 358 901 350 897 c 2,48,-1
 237 839 l 2,31,32
EndSplineSet
EndChar
StartChar: Thorn
Encoding: 222 222 103
Width: 501
Flags: W
LayerCount: 2
Back
Fore
SplineSet
111 738 m 0,0,1
 131 738 131 738 142.5 730 c 128,-1,2
 154 722 154 722 154 709 c 2,3,-1
 154 544 l 1,4,5
 171 574 171 574 205 597 c 128,-1,6
 239 620 239 620 290 620 c 0,7,8
 325 620 325 620 356.5 608 c 128,-1,9
 388 596 388 596 412 573.5 c 128,-1,10
 436 551 436 551 450 519.5 c 128,-1,11
 464 488 464 488 464 449 c 2,12,-1
 464 306 l 2,13,14
 464 268 464 268 449.5 236 c 128,-1,15
 435 204 435 204 411.5 181 c 128,-1,16
 388 158 388 158 357.5 145.5 c 128,-1,17
 327 133 327 133 295 133 c 0,18,19
 272 133 272 133 249.5 139 c 128,-1,20
 227 145 227 145 208 156 c 128,-1,21
 189 167 189 167 175 181 c 128,-1,22
 161 195 161 195 154 212 c 1,23,-1
 154 30 l 2,24,25
 154 19 154 19 142 9.5 c 128,-1,26
 130 0 130 0 113 0 c 0,27,28
 95 0 95 0 83 9.5 c 128,-1,29
 71 19 71 19 71 30 c 2,30,-1
 71 709 l 2,31,32
 71 723 71 723 82.5 730.5 c 128,-1,33
 94 738 94 738 111 738 c 0,0,1
381 449 m 2,34,35
 381 471 381 471 372 489 c 128,-1,36
 363 507 363 507 347.5 519.5 c 128,-1,37
 332 532 332 532 312 538.5 c 128,-1,38
 292 545 292 545 271 545 c 0,39,40
 248 545 248 545 227 538 c 128,-1,41
 206 531 206 531 189.5 518.5 c 128,-1,42
 173 506 173 506 163.5 488.5 c 128,-1,43
 154 471 154 471 154 449 c 2,44,-1
 154 301 l 2,45,46
 154 286 154 286 162.5 269.5 c 128,-1,47
 171 253 171 253 187 239.5 c 128,-1,48
 203 226 203 226 224 217 c 128,-1,49
 245 208 245 208 271 208 c 0,50,51
 292 208 292 208 312 214.5 c 128,-1,52
 332 221 332 221 347 233.5 c 128,-1,53
 362 246 362 246 371.5 264.5 c 128,-1,54
 381 283 381 283 381 306 c 2,55,-1
 381 449 l 2,34,35
EndSplineSet
EndChar
StartChar: germandbls
Encoding: 223 223 234
Width: 566
Flags: W
LayerCount: 2
Back
Fore
SplineSet
337 -20 m 0,0,1
 324 -20 324 -20 306 -18.5 c 128,-1,2
 288 -17 288 -17 272 -12.5 c 128,-1,3
 256 -8 256 -8 244.5 1.5 c 128,-1,4
 233 11 233 11 233 28 c 0,5,6
 233 41 233 41 239 54.5 c 128,-1,7
 245 68 245 68 256 68 c 256,8,9
 267 68 267 68 283.5 59.5 c 128,-1,10
 300 51 300 51 331 51 c 0,11,12
 386 51 386 51 418 88.5 c 128,-1,13
 450 126 450 126 450 198 c 2,14,-1
 450 213 l 2,15,16
 450 244 450 244 441.5 271.5 c 128,-1,17
 433 299 433 299 415 320.5 c 128,-1,18
 397 342 397 342 370 356 c 128,-1,19
 343 370 343 370 306 375 c 0,20,21
 290 378 290 378 280.5 384 c 128,-1,22
 271 390 271 390 271 410 c 256,23,24
 271 430 271 430 281 435.5 c 128,-1,25
 291 441 291 441 307 444 c 0,26,27
 331 447 331 447 345.5 459.5 c 128,-1,28
 360 472 360 472 368 490 c 128,-1,29
 376 508 376 508 378.5 528 c 128,-1,30
 381 548 381 548 381 565 c 0,31,32
 381 623 381 623 356.5 658 c 128,-1,33
 332 693 332 693 279 693 c 0,34,35
 252 693 252 693 233.5 683.5 c 128,-1,36
 215 674 215 674 203.5 658 c 128,-1,37
 192 642 192 642 187.5 621 c 128,-1,38
 183 600 183 600 183 578 c 2,39,-1
 183 29 l 2,40,41
 183 16 183 16 170 8 c 128,-1,42
 157 0 157 0 140 0 c 256,43,44
 123 0 123 0 111.5 8 c 128,-1,45
 100 16 100 16 100 29 c 2,46,-1
 100 409 l 1,47,-1
 32 409 l 2,48,49
 20 409 20 409 13 418.5 c 128,-1,50
 6 428 6 428 6 441 c 256,51,52
 6 454 6 454 13 464 c 128,-1,53
 20 474 20 474 32 474 c 2,54,-1
 100 474 l 1,55,-1
 100 578 l 2,56,57
 100 616 100 616 109.5 650.5 c 128,-1,58
 119 685 119 685 140 711 c 128,-1,59
 161 737 161 737 194 752.5 c 128,-1,60
 227 768 227 768 275 768 c 0,61,62
 312 768 312 768 344.5 757 c 128,-1,63
 377 746 377 746 401 723.5 c 128,-1,64
 425 701 425 701 438.5 667 c 128,-1,65
 452 633 452 633 452 586 c 0,66,67
 452 560 452 560 447.5 534 c 128,-1,68
 443 508 443 508 434 485.5 c 128,-1,69
 425 463 425 463 412 445.5 c 128,-1,70
 399 428 399 428 382 420 c 1,71,72
 407 415 407 415 433.5 398 c 128,-1,73
 460 381 460 381 481.5 354.5 c 128,-1,74
 503 328 503 328 516.5 293.5 c 128,-1,75
 530 259 530 259 530 219 c 2,76,-1
 530 203 l 2,77,78
 530 147 530 147 514 105 c 128,-1,79
 498 63 498 63 471 35 c 128,-1,80
 444 7 444 7 409 -6.5 c 128,-1,81
 374 -20 374 -20 337 -20 c 0,0,1
EndSplineSet
EndChar
StartChar: aacute
Encoding: 225 225 133
Width: 448
Flags: W
LayerCount: 2
Back
Fore
SplineSet
202 480 m 0,0,1
 254 480 254 480 290.5 463.5 c 128,-1,2
 327 447 327 447 350 420 c 128,-1,3
 373 393 373 393 383 358 c 128,-1,4
 393 323 393 323 393 286 c 2,5,-1
 393 30 l 2,6,7
 393 17 393 17 381.5 8.5 c 128,-1,8
 370 0 370 0 352 0 c 0,9,10
 335 0 335 0 324.5 8.5 c 128,-1,11
 314 17 314 17 314 30 c 2,12,-1
 314 70 l 1,13,14
 288 40 288 40 251 16 c 128,-1,15
 214 -8 214 -8 163 -8 c 0,16,17
 135 -8 135 -8 110.5 0 c 128,-1,18
 86 8 86 8 67.5 24.5 c 128,-1,19
 49 41 49 41 38.5 66 c 128,-1,20
 28 91 28 91 28 125 c 0,21,22
 28 167 28 167 45 193.5 c 128,-1,23
 62 220 62 220 93 236 c 128,-1,24
 124 252 124 252 167 258 c 128,-1,25
 210 264 210 264 262 264 c 2,26,-1
 310 264 l 1,27,-1
 310 285 l 2,28,29
 310 307 310 307 304 329 c 128,-1,30
 298 351 298 351 285 369 c 128,-1,31
 272 387 272 387 251 398 c 128,-1,32
 230 409 230 409 200 409 c 0,33,34
 174 409 174 409 156 404.5 c 128,-1,35
 138 400 138 400 126 394.5 c 128,-1,36
 114 389 114 389 106 384.5 c 128,-1,37
 98 380 98 380 91 380 c 0,38,39
 76 380 76 380 68 394 c 128,-1,40
 60 408 60 408 60 422 c 0,41,42
 60 434 60 434 73 444.5 c 128,-1,43
 86 455 86 455 106.5 463 c 128,-1,44
 127 471 127 471 152 475.5 c 128,-1,45
 177 480 177 480 202 480 c 0,0,1
310 213 m 1,46,-1
 275 213 l 2,47,48
 243 213 243 213 213.5 210.5 c 128,-1,49
 184 208 184 208 161.5 200 c 128,-1,50
 139 192 139 192 125.5 176.5 c 128,-1,51
 112 161 112 161 112 134 c 0,52,53
 112 95 112 95 134 77 c 128,-1,54
 156 59 156 59 189 59 c 0,55,56
 210 59 210 59 232 68.5 c 128,-1,57
 254 78 254 78 271 93 c 128,-1,58
 288 108 288 108 299 126 c 128,-1,59
 310 144 310 144 310 161 c 2,60,-1
 310 213 l 1,46,-1
177 588 m 2,61,62
 174 586 174 586 171.5 585 c 128,-1,63
 169 584 169 584 166 584 c 0,64,65
 153 584 153 584 144.5 595 c 128,-1,66
 136 606 136 606 136 618 c 0,67,68
 136 633 136 633 149 640 c 2,69,-1
 266 702 l 2,70,71
 272 704 272 704 276 704 c 0,72,73
 289 704 289 704 296.5 693 c 128,-1,74
 304 682 304 682 304 670 c 0,75,76
 304 663 304 663 301 656.5 c 128,-1,77
 298 650 298 650 290 646 c 2,78,-1
 177 588 l 2,61,62
EndSplineSet
EndChar
StartChar: acircumflex
Encoding: 226 226 135
Width: 448
Flags: W
LayerCount: 2
Back
Fore
SplineSet
107 591 m 2,0,1
 102 588 102 588 98 588 c 0,2,3
 89 588 89 588 82 597 c 128,-1,4
 75 606 75 606 75 617 c 0,5,6
 75 625 75 625 78.5 632 c 128,-1,7
 82 639 82 639 90 643 c 2,8,-1
 194 699 l 2,9,10
 204 704 204 704 211 704 c 0,11,12
 220 704 220 704 228 699 c 2,13,-1
 332 644 l 2,14,15
 348 635 348 635 348 616 c 0,16,17
 348 605 348 605 341.5 596.5 c 128,-1,18
 335 588 335 588 325 588 c 0,19,20
 323 588 323 588 320.5 589 c 128,-1,21
 318 590 318 590 315 591 c 2,22,-1
 211 647 l 1,23,-1
 107 591 l 2,0,1
202 480 m 0,24,25
 254 480 254 480 290.5 463.5 c 128,-1,26
 327 447 327 447 350 420 c 128,-1,27
 373 393 373 393 383 358 c 128,-1,28
 393 323 393 323 393 286 c 2,29,-1
 393 30 l 2,30,31
 393 17 393 17 381.5 8.5 c 128,-1,32
 370 0 370 0 352 0 c 0,33,34
 335 0 335 0 324.5 8.5 c 128,-1,35
 314 17 314 17 314 30 c 2,36,-1
 314 70 l 1,37,38
 288 40 288 40 251 16 c 128,-1,39
 214 -8 214 -8 163 -8 c 0,40,41
 135 -8 135 -8 110.5 0 c 128,-1,42
 86 8 86 8 67.5 24.5 c 128,-1,43
 49 41 49 41 38.5 66 c 128,-1,44
 28 91 28 91 28 125 c 0,45,46
 28 167 28 167 45 193.5 c 128,-1,47
 62 220 62 220 93 236 c 128,-1,48
 124 252 124 252 167 258 c 128,-1,49
 210 264 210 264 262 264 c 2,50,-1
 310 264 l 1,51,-1
 310 285 l 2,52,53
 310 307 310 307 304 329 c 128,-1,54
 298 351 298 351 285 369 c 128,-1,55
 272 387 272 387 251 398 c 128,-1,56
 230 409 230 409 200 409 c 0,57,58
 174 409 174 409 156 404.5 c 128,-1,59
 138 400 138 400 126 394.5 c 128,-1,60
 114 389 114 389 106 384.5 c 128,-1,61
 98 380 98 380 91 380 c 0,62,63
 76 380 76 380 68 394 c 128,-1,64
 60 408 60 408 60 422 c 0,65,66
 60 434 60 434 73 444.5 c 128,-1,67
 86 455 86 455 106.5 463 c 128,-1,68
 127 471 127 471 152 475.5 c 128,-1,69
 177 480 177 480 202 480 c 0,24,25
310 213 m 1,70,-1
 275 213 l 2,71,72
 243 213 243 213 213.5 210.5 c 128,-1,73
 184 208 184 208 161.5 200 c 128,-1,74
 139 192 139 192 125.5 176.5 c 128,-1,75
 112 161 112 161 112 134 c 0,76,77
 112 95 112 95 134 77 c 128,-1,78
 156 59 156 59 189 59 c 0,79,80
 210 59 210 59 232 68.5 c 128,-1,81
 254 78 254 78 271 93 c 128,-1,82
 288 108 288 108 299 126 c 128,-1,83
 310 144 310 144 310 161 c 2,84,-1
 310 213 l 1,70,-1
EndSplineSet
EndChar
StartChar: atilde
Encoding: 227 227 154
Width: 448
Flags: W
LayerCount: 2
Back
Fore
SplineSet
202 480 m 0,0,1
 254 480 254 480 290.5 463.5 c 128,-1,2
 327 447 327 447 350 420 c 128,-1,3
 373 393 373 393 383 358 c 128,-1,4
 393 323 393 323 393 286 c 2,5,-1
 393 30 l 2,6,7
 393 17 393 17 381.5 8.5 c 128,-1,8
 370 0 370 0 352 0 c 0,9,10
 335 0 335 0 324.5 8.5 c 128,-1,11
 314 17 314 17 314 30 c 2,12,-1
 314 70 l 1,13,14
 288 40 288 40 251 16 c 128,-1,15
 214 -8 214 -8 163 -8 c 0,16,17
 135 -8 135 -8 110.5 0 c 128,-1,18
 86 8 86 8 67.5 24.5 c 128,-1,19
 49 41 49 41 38.5 66 c 128,-1,20
 28 91 28 91 28 125 c 0,21,22
 28 167 28 167 45 193.5 c 128,-1,23
 62 220 62 220 93 236 c 128,-1,24
 124 252 124 252 167 258 c 128,-1,25
 210 264 210 264 262 264 c 2,26,-1
 310 264 l 1,27,-1
 310 285 l 2,28,29
 310 307 310 307 304 329 c 128,-1,30
 298 351 298 351 285 369 c 128,-1,31
 272 387 272 387 251 398 c 128,-1,32
 230 409 230 409 200 409 c 0,33,34
 174 409 174 409 156 404.5 c 128,-1,35
 138 400 138 400 126 394.5 c 128,-1,36
 114 389 114 389 106 384.5 c 128,-1,37
 98 380 98 380 91 380 c 0,38,39
 76 380 76 380 68 394 c 128,-1,40
 60 408 60 408 60 422 c 0,41,42
 60 434 60 434 73 444.5 c 128,-1,43
 86 455 86 455 106.5 463 c 128,-1,44
 127 471 127 471 152 475.5 c 128,-1,45
 177 480 177 480 202 480 c 0,0,1
310 213 m 1,46,-1
 275 213 l 2,47,48
 243 213 243 213 213.5 210.5 c 128,-1,49
 184 208 184 208 161.5 200 c 128,-1,50
 139 192 139 192 125.5 176.5 c 128,-1,51
 112 161 112 161 112 134 c 0,52,53
 112 95 112 95 134 77 c 128,-1,54
 156 59 156 59 189 59 c 0,55,56
 210 59 210 59 232 68.5 c 128,-1,57
 254 78 254 78 271 93 c 128,-1,58
 288 108 288 108 299 126 c 128,-1,59
 310 144 310 144 310 161 c 2,60,-1
 310 213 l 1,46,-1
152 636 m 0,61,62
 136 636 136 636 124.5 631.5 c 128,-1,63
 113 627 113 627 104.5 621.5 c 128,-1,64
 96 616 96 616 89.5 611.5 c 128,-1,65
 83 607 83 607 76 607 c 0,66,67
 63 607 63 607 58 617.5 c 128,-1,68
 53 628 53 628 53 636 c 0,69,70
 53 652 53 652 62.5 664 c 128,-1,71
 72 676 72 676 85.5 683 c 128,-1,72
 99 690 99 690 114 693.5 c 128,-1,73
 129 697 129 697 140 697 c 0,74,75
 160 697 160 697 176.5 692 c 128,-1,76
 193 687 193 687 208 680.5 c 128,-1,77
 223 674 223 674 239 669 c 128,-1,78
 255 664 255 664 275 664 c 0,79,80
 291 664 291 664 302 668 c 128,-1,81
 313 672 313 672 321 677.5 c 128,-1,82
 329 683 329 683 335 687 c 128,-1,83
 341 691 341 691 348 691 c 0,84,85
 361 691 361 691 366.5 680.5 c 128,-1,86
 372 670 372 670 372 663 c 0,87,88
 372 645 372 645 362.5 633.5 c 128,-1,89
 353 622 353 622 339.5 615.5 c 128,-1,90
 326 609 326 609 312 606 c 128,-1,91
 298 603 298 603 288 603 c 0,92,93
 266 603 266 603 249.5 608 c 128,-1,94
 233 613 233 613 218 619.5 c 128,-1,95
 203 626 203 626 187.5 631 c 128,-1,96
 172 636 172 636 152 636 c 0,61,62
EndSplineSet
EndChar
StartChar: adieresis
Encoding: 228 228 137
Width: 448
Flags: W
LayerCount: 2
Back
Fore
SplineSet
147 671 m 256,0,1
 164 671 164 671 175.5 659 c 128,-1,2
 187 647 187 647 187 630 c 256,3,4
 187 613 187 613 175.5 600.5 c 128,-1,5
 164 588 164 588 147 588 c 256,6,7
 130 588 130 588 118 600.5 c 128,-1,8
 106 613 106 613 106 630 c 256,9,10
 106 647 106 647 118 659 c 128,-1,11
 130 671 130 671 147 671 c 256,0,1
277 671 m 256,12,13
 294 671 294 671 305.5 659 c 128,-1,14
 317 647 317 647 317 630 c 256,15,16
 317 613 317 613 305.5 600.5 c 128,-1,17
 294 588 294 588 277 588 c 256,18,19
 260 588 260 588 248.5 600.5 c 128,-1,20
 237 613 237 613 237 630 c 256,21,22
 237 647 237 647 248.5 659 c 128,-1,23
 260 671 260 671 277 671 c 256,12,13
202 480 m 0,24,25
 254 480 254 480 290.5 463.5 c 128,-1,26
 327 447 327 447 350 420 c 128,-1,27
 373 393 373 393 383 358 c 128,-1,28
 393 323 393 323 393 286 c 2,29,-1
 393 30 l 2,30,31
 393 17 393 17 381.5 8.5 c 128,-1,32
 370 0 370 0 352 0 c 0,33,34
 335 0 335 0 324.5 8.5 c 128,-1,35
 314 17 314 17 314 30 c 2,36,-1
 314 70 l 1,37,38
 288 40 288 40 251 16 c 128,-1,39
 214 -8 214 -8 163 -8 c 0,40,41
 135 -8 135 -8 110.5 0 c 128,-1,42
 86 8 86 8 67.5 24.5 c 128,-1,43
 49 41 49 41 38.5 66 c 128,-1,44
 28 91 28 91 28 125 c 0,45,46
 28 167 28 167 45 193.5 c 128,-1,47
 62 220 62 220 93 236 c 128,-1,48
 124 252 124 252 167 258 c 128,-1,49
 210 264 210 264 262 264 c 2,50,-1
 310 264 l 1,51,-1
 310 285 l 2,52,53
 310 307 310 307 304 329 c 128,-1,54
 298 351 298 351 285 369 c 128,-1,55
 272 387 272 387 251 398 c 128,-1,56
 230 409 230 409 200 409 c 0,57,58
 174 409 174 409 156 404.5 c 128,-1,59
 138 400 138 400 126 394.5 c 128,-1,60
 114 389 114 389 106 384.5 c 128,-1,61
 98 380 98 380 91 380 c 0,62,63
 76 380 76 380 68 394 c 128,-1,64
 60 408 60 408 60 422 c 0,65,66
 60 434 60 434 73 444.5 c 128,-1,67
 86 455 86 455 106.5 463 c 128,-1,68
 127 471 127 471 152 475.5 c 128,-1,69
 177 480 177 480 202 480 c 0,24,25
310 213 m 1,70,-1
 275 213 l 2,71,72
 243 213 243 213 213.5 210.5 c 128,-1,73
 184 208 184 208 161.5 200 c 128,-1,74
 139 192 139 192 125.5 176.5 c 128,-1,75
 112 161 112 161 112 134 c 0,76,77
 112 95 112 95 134 77 c 128,-1,78
 156 59 156 59 189 59 c 0,79,80
 210 59 210 59 232 68.5 c 128,-1,81
 254 78 254 78 271 93 c 128,-1,82
 288 108 288 108 299 126 c 128,-1,83
 310 144 310 144 310 161 c 2,84,-1
 310 213 l 1,70,-1
EndSplineSet
EndChar
StartChar: aring
Encoding: 229 229 145
Width: 448
Flags: W
LayerCount: 2
Back
Fore
SplineSet
202 480 m 0,0,1
 254 480 254 480 290.5 463.5 c 128,-1,2
 327 447 327 447 350 420 c 128,-1,3
 373 393 373 393 383 358 c 128,-1,4
 393 323 393 323 393 286 c 2,5,-1
 393 30 l 2,6,7
 393 17 393 17 381.5 8.5 c 128,-1,8
 370 0 370 0 352 0 c 0,9,10
 335 0 335 0 324.5 8.5 c 128,-1,11
 314 17 314 17 314 30 c 2,12,-1
 314 70 l 1,13,14
 288 40 288 40 251 16 c 128,-1,15
 214 -8 214 -8 163 -8 c 0,16,17
 135 -8 135 -8 110.5 0 c 128,-1,18
 86 8 86 8 67.5 24.5 c 128,-1,19
 49 41 49 41 38.5 66 c 128,-1,20
 28 91 28 91 28 125 c 0,21,22
 28 167 28 167 45 193.5 c 128,-1,23
 62 220 62 220 93 236 c 128,-1,24
 124 252 124 252 167 258 c 128,-1,25
 210 264 210 264 262 264 c 2,26,-1
 310 264 l 1,27,-1
 310 285 l 2,28,29
 310 307 310 307 304 329 c 128,-1,30
 298 351 298 351 285 369 c 128,-1,31
 272 387 272 387 251 398 c 128,-1,32
 230 409 230 409 200 409 c 0,33,34
 174 409 174 409 156 404.5 c 128,-1,35
 138 400 138 400 126 394.5 c 128,-1,36
 114 389 114 389 106 384.5 c 128,-1,37
 98 380 98 380 91 380 c 0,38,39
 76 380 76 380 68 394 c 128,-1,40
 60 408 60 408 60 422 c 0,41,42
 60 434 60 434 73 444.5 c 128,-1,43
 86 455 86 455 106.5 463 c 128,-1,44
 127 471 127 471 152 475.5 c 128,-1,45
 177 480 177 480 202 480 c 0,0,1
310 213 m 1,46,-1
 275 213 l 2,47,48
 243 213 243 213 213.5 210.5 c 128,-1,49
 184 208 184 208 161.5 200 c 128,-1,50
 139 192 139 192 125.5 176.5 c 128,-1,51
 112 161 112 161 112 134 c 0,52,53
 112 95 112 95 134 77 c 128,-1,54
 156 59 156 59 189 59 c 0,55,56
 210 59 210 59 232 68.5 c 128,-1,57
 254 78 254 78 271 93 c 128,-1,58
 288 108 288 108 299 126 c 128,-1,59
 310 144 310 144 310 161 c 2,60,-1
 310 213 l 1,46,-1
213 768 m 0,61,62
 231 768 231 768 248 760 c 128,-1,63
 265 752 265 752 278 739 c 128,-1,64
 291 726 291 726 299 709 c 128,-1,65
 307 692 307 692 307 673 c 256,66,67
 307 654 307 654 299 636.5 c 128,-1,68
 291 619 291 619 278 605.5 c 128,-1,69
 265 592 265 592 248 584 c 128,-1,70
 231 576 231 576 213 576 c 0,71,72
 193 576 193 576 176 584 c 128,-1,73
 159 592 159 592 146.5 605.5 c 128,-1,74
 134 619 134 619 126.5 636.5 c 128,-1,75
 119 654 119 654 119 673 c 0,76,77
 119 691 119 691 126 708.5 c 128,-1,78
 133 726 133 726 146 739 c 128,-1,79
 159 752 159 752 176 760 c 128,-1,80
 193 768 193 768 213 768 c 0,61,62
268 673 m 0,81,82
 268 693 268 693 252 710.5 c 128,-1,83
 236 728 236 728 213 728 c 256,84,85
 190 728 190 728 173.5 710.5 c 128,-1,86
 157 693 157 693 157 673 c 0,87,88
 157 651 157 651 173.5 632.5 c 128,-1,89
 190 614 190 614 213 614 c 256,90,91
 236 614 236 614 252 632.5 c 128,-1,92
 268 651 268 651 268 673 c 0,81,82
EndSplineSet
EndChar
StartChar: ae
Encoding: 230 230 138
Width: 733
Flags: W
LayerCount: 2
Back
Fore
SplineSet
508 480 m 0,0,1
 542 480 542 480 576.5 468.5 c 128,-1,2
 611 457 611 457 638.5 433 c 128,-1,3
 666 409 666 409 683.5 372.5 c 128,-1,4
 701 336 701 336 701 287 c 0,5,6
 701 262 701 262 695.5 247.5 c 128,-1,7
 690 233 690 233 679 225.5 c 128,-1,8
 668 218 668 218 651 215.5 c 128,-1,9
 634 213 634 213 612 213 c 2,10,-1
 394 213 l 1,11,-1
 394 183 l 2,12,13
 394 127 394 127 433.5 94.5 c 128,-1,14
 473 62 473 62 534 62 c 0,15,16
 561 62 561 62 580.5 68 c 128,-1,17
 600 74 600 74 613.5 81.5 c 128,-1,18
 627 89 627 89 637 95 c 128,-1,19
 647 101 647 101 656 101 c 0,20,21
 670 101 670 101 679.5 88 c 128,-1,22
 689 75 689 75 689 63 c 256,23,24
 689 51 689 51 675 38.5 c 128,-1,25
 661 26 661 26 638.5 15.5 c 128,-1,26
 616 5 616 5 586 -1.5 c 128,-1,27
 556 -8 556 -8 525 -8 c 0,28,29
 468 -8 468 -8 420 18 c 128,-1,30
 372 44 372 44 345 92 c 1,31,32
 313 41 313 41 265.5 16.5 c 128,-1,33
 218 -8 218 -8 173 -8 c 0,34,35
 144 -8 144 -8 118 0 c 128,-1,36
 92 8 92 8 72 24.5 c 128,-1,37
 52 41 52 41 40 65.5 c 128,-1,38
 28 90 28 90 28 124 c 0,39,40
 28 166 28 166 45 193 c 128,-1,41
 62 220 62 220 92.5 236 c 128,-1,42
 123 252 123 252 165.5 258 c 128,-1,43
 208 264 208 264 260 264 c 2,44,-1
 308 264 l 1,45,-1
 308 286 l 2,46,47
 308 308 308 308 302.5 330 c 128,-1,48
 297 352 297 352 284 370 c 128,-1,49
 271 388 271 388 249.5 399 c 128,-1,50
 228 410 228 410 197 410 c 0,51,52
 172 410 172 410 154.5 405.5 c 128,-1,53
 137 401 137 401 124.5 395 c 128,-1,54
 112 389 112 389 104 384.5 c 128,-1,55
 96 380 96 380 89 380 c 0,56,57
 75 380 75 380 66.5 394.5 c 128,-1,58
 58 409 58 409 58 423 c 0,59,60
 58 434 58 434 71 444.5 c 128,-1,61
 84 455 84 455 104.5 463 c 128,-1,62
 125 471 125 471 150.5 475.5 c 128,-1,63
 176 480 176 480 201 480 c 0,64,65
 261 480 261 480 298 455 c 128,-1,66
 335 430 335 430 355 391 c 1,67,68
 380 430 380 430 419.5 455 c 128,-1,69
 459 480 459 480 508 480 c 0,0,1
577 269 m 2,70,71
 606 269 606 269 614 275.5 c 128,-1,72
 622 282 622 282 622 300 c 0,73,74
 622 323 622 323 613.5 343.5 c 128,-1,75
 605 364 605 364 589.5 380 c 128,-1,76
 574 396 574 396 553 405 c 128,-1,77
 532 414 532 414 507 414 c 0,78,79
 483 414 483 414 462.5 405.5 c 128,-1,80
 442 397 442 397 427 382.5 c 128,-1,81
 412 368 412 368 403 348 c 128,-1,82
 394 328 394 328 394 305 c 2,83,-1
 394 269 l 1,84,-1
 577 269 l 2,70,71
308 213 m 1,85,-1
 274 213 l 2,86,87
 241 213 241 213 212 210.5 c 128,-1,88
 183 208 183 208 160.5 200 c 128,-1,89
 138 192 138 192 125 175.5 c 128,-1,90
 112 159 112 159 112 132 c 0,91,92
 112 95 112 95 134 77 c 128,-1,93
 156 59 156 59 188 59 c 0,94,95
 212 59 212 59 233.5 68.5 c 128,-1,96
 255 78 255 78 271.5 93 c 128,-1,97
 288 108 288 108 298 126 c 128,-1,98
 308 144 308 144 308 161 c 2,99,-1
 308 213 l 1,85,-1
EndSplineSet
EndChar
StartChar: ccedilla
Encoding: 231 231 171
Width: 417
Flags: W
LayerCount: 2
Back
Fore
SplineSet
394 63 m 0,0,1
 394 41 394 41 357.5 19 c 128,-1,2
 321 -3 321 -3 261 -7 c 1,3,-1
 248 -58 l 1,4,5
 299 -60 299 -60 321.5 -81.5 c 128,-1,6
 344 -103 344 -103 344 -131 c 0,7,8
 344 -145 344 -145 338.5 -159.5 c 128,-1,9
 333 -174 333 -174 322 -185.5 c 128,-1,10
 311 -197 311 -197 293.5 -204.5 c 128,-1,11
 276 -212 276 -212 251 -212 c 0,12,13
 240 -212 240 -212 226 -210.5 c 128,-1,14
 212 -209 212 -209 200 -205.5 c 128,-1,15
 188 -202 188 -202 179.5 -197 c 128,-1,16
 171 -192 171 -192 171 -185 c 0,17,18
 171 -180 171 -180 175.5 -168.5 c 128,-1,19
 180 -157 180 -157 189 -157 c 0,20,21
 196 -157 196 -157 208.5 -164 c 128,-1,22
 221 -171 221 -171 245 -171 c 0,23,24
 272 -171 272 -171 284.5 -160.5 c 128,-1,25
 297 -150 297 -150 297 -134 c 0,26,27
 297 -114 297 -114 281.5 -104.5 c 128,-1,28
 266 -95 266 -95 238 -93 c 2,29,-1
 195 -90 l 1,30,-1
 217 -7 l 1,31,32
 172 -4 172 -4 139 12.5 c 128,-1,33
 106 29 106 29 84.5 54.5 c 128,-1,34
 63 80 63 80 52.5 113.5 c 128,-1,35
 42 147 42 147 42 186 c 2,36,-1
 42 286 l 2,37,38
 42 326 42 326 54 361.5 c 128,-1,39
 66 397 66 397 90.5 423.5 c 128,-1,40
 115 450 115 450 152.5 465 c 128,-1,41
 190 480 190 480 241 480 c 0,42,43
 274 480 274 480 301 473.5 c 128,-1,44
 328 467 328 467 347.5 457 c 128,-1,45
 367 447 367 447 377.5 434.5 c 128,-1,46
 388 422 388 422 388 411 c 0,47,48
 388 398 388 398 378 384 c 128,-1,49
 368 370 368 370 353 370 c 0,50,51
 345 370 345 370 337.5 375.5 c 128,-1,52
 330 381 330 381 318.5 387.5 c 128,-1,53
 307 394 307 394 290 399.5 c 128,-1,54
 273 405 273 405 247 405 c 0,55,56
 185 405 185 405 155 373.5 c 128,-1,57
 125 342 125 342 125 286 c 2,58,-1
 125 186 l 2,59,60
 125 130 125 130 155 98.5 c 128,-1,61
 185 67 185 67 248 67 c 0,62,63
 275 67 275 67 292.5 72.5 c 128,-1,64
 310 78 310 78 321.5 85 c 128,-1,65
 333 92 333 92 341 97.5 c 128,-1,66
 349 103 349 103 357 103 c 0,67,68
 374 103 374 103 384 89.5 c 128,-1,69
 394 76 394 76 394 63 c 0,0,1
EndSplineSet
EndChar
StartChar: eacute
Encoding: 233 233 195
Width: 465
Flags: W
LayerCount: 2
Back
Fore
SplineSet
197 588 m 2,0,1
 194 586 194 586 191.5 585 c 128,-1,2
 189 584 189 584 186 584 c 0,3,4
 173 584 173 584 164.5 595 c 128,-1,5
 156 606 156 606 156 618 c 0,6,7
 156 633 156 633 169 640 c 2,8,-1
 286 702 l 2,9,10
 292 704 292 704 296 704 c 0,11,12
 309 704 309 704 316.5 693 c 128,-1,13
 324 682 324 682 324 670 c 0,14,15
 324 663 324 663 321 656.5 c 128,-1,16
 318 650 318 650 310 646 c 2,17,-1
 197 588 l 2,0,1
240 480 m 0,18,19
 278 480 278 480 313 466.5 c 128,-1,20
 348 453 348 453 374.5 428.5 c 128,-1,21
 401 404 401 404 416.5 370 c 128,-1,22
 432 336 432 336 432 296 c 0,23,24
 432 266 432 266 424.5 249.5 c 128,-1,25
 417 233 417 233 404.5 224.5 c 128,-1,26
 392 216 392 216 376 214.5 c 128,-1,27
 360 213 360 213 343 213 c 2,28,-1
 124 213 l 1,29,-1
 124 183 l 2,30,31
 124 127 124 127 163.5 94.5 c 128,-1,32
 203 62 203 62 266 62 c 0,33,34
 294 62 294 62 313 68 c 128,-1,35
 332 74 332 74 345.5 81.5 c 128,-1,36
 359 89 359 89 368.5 95 c 128,-1,37
 378 101 378 101 387 101 c 0,38,39
 402 101 402 101 411.5 87.5 c 128,-1,40
 421 74 421 74 421 63 c 0,41,42
 421 53 421 53 410 41 c 128,-1,43
 399 29 399 29 378.5 18 c 128,-1,44
 358 7 358 7 328.5 -0.5 c 128,-1,45
 299 -8 299 -8 263 -8 c 0,46,47
 214 -8 214 -8 173.5 6 c 128,-1,48
 133 20 133 20 103.5 45.5 c 128,-1,49
 74 71 74 71 57.5 106.5 c 128,-1,50
 41 142 41 142 41 186 c 2,51,-1
 41 291 l 2,52,53
 41 329 41 329 56.5 363.5 c 128,-1,54
 72 398 72 398 99 424 c 128,-1,55
 126 450 126 450 162.5 465 c 128,-1,56
 199 480 199 480 240 480 c 0,18,19
309 269 m 2,57,58
 335 269 335 269 344 275 c 128,-1,59
 353 281 353 281 353 301 c 0,60,61
 353 323 353 323 344.5 343.5 c 128,-1,62
 336 364 336 364 321 379.5 c 128,-1,63
 306 395 306 395 285 404.5 c 128,-1,64
 264 414 264 414 239 414 c 0,65,66
 215 414 215 414 194.5 405.5 c 128,-1,67
 174 397 174 397 158 382.5 c 128,-1,68
 142 368 142 368 133 348 c 128,-1,69
 124 328 124 328 124 305 c 2,70,-1
 124 269 l 1,71,-1
 309 269 l 2,57,58
EndSplineSet
EndChar
